<svg width="800" height="800" viewBox="0 0 800 800" fill="none" xmlns="http://www.w3.org/2000/svg">
<g clip-path="url(#clip0_15_4)">
<path d="M711.111 133.333H88.8889C77.1015 133.333 65.7969 138.016 57.4619 146.351C49.127 154.686 44.4445 165.99 44.4445 177.778V622.222C44.4445 634.01 49.127 645.314 57.4619 653.649C65.7969 661.984 77.1015 666.667 88.8889 666.667H422.222L434.889 651.111L455.556 625.778L453.556 622.222H88.8889V177.778H711.111V368C727.994 378.929 743.001 392.511 755.556 408.222V177.778C755.556 165.99 750.873 154.686 742.538 146.351C734.203 138.016 722.898 133.333 711.111 133.333Z" fill="#FA8072"/>
<path d="M533.333 266.667H155.556V302.222H533.333V266.667Z" fill="#FA8072"/>
<path d="M400 355.556H155.556V391.111H400V355.556Z" fill="#FA8072"/>
<path d="M377.778 511.111H155.556V546.667H377.778V511.111Z" fill="#FA8072"/>
<path d="M610.222 382.889C581.785 382.663 553.941 391.021 530.33 406.871C506.718 422.72 488.437 445.324 477.875 471.728C467.314 498.132 464.963 527.108 471.13 554.869C477.298 582.63 491.696 607.885 512.444 627.333L469.333 680L489.333 760.222L570.667 661.111C596.412 668.724 623.81 668.724 649.556 661.111L730.889 760.222L750.889 680L707.778 627.333C728.526 607.885 742.924 582.63 749.092 554.869C755.259 527.108 752.909 498.132 742.347 471.728C731.785 445.324 713.504 422.72 689.892 406.871C666.281 391.021 638.437 382.663 610 382.889H610.222ZM610.222 620.222C591.338 619.959 572.953 614.119 557.379 603.437C541.805 592.754 529.737 577.705 522.691 560.183C515.646 542.66 513.939 523.446 517.784 504.955C521.628 486.465 530.854 469.524 544.3 456.262C557.747 443 574.813 434.01 593.355 430.421C611.897 426.832 631.086 428.805 648.509 436.092C665.933 443.379 680.813 455.654 691.28 471.374C701.746 487.095 707.332 505.559 707.333 524.444C707.099 550.005 696.749 574.432 678.55 592.381C660.351 610.33 635.783 620.341 610.222 620.222Z" fill="#FA8072"/>
</g>
<defs>
<clipPath id="clip0_15_4">
<rect width="800" height="800" fill="white"/>
</clipPath>
</defs>
</svg>
