<svg width="800" height="800" viewBox="0 0 800 800" fill="none" xmlns="http://www.w3.org/2000/svg">
<path d="M283.333 766.667C323.339 766.905 362.994 759.201 400 744C436.967 759.33 476.649 767.04 516.667 766.667C638.167 766.667 733.333 701.833 733.333 619.033V480.967C733.333 398.167 638.167 333.333 516.667 333.333C511.033 333.333 505.5 333.6 500 333.9V177.767C500 96.6667 404.833 33.3334 283.333 33.3334C161.833 33.3334 66.6667 96.6667 66.6667 177.767V622.233C66.6667 703.333 161.833 766.667 283.333 766.667ZM666.667 619.033C666.667 657.333 605.067 700 516.667 700C428.267 700 366.667 657.333 366.667 619.033V588.2C411.807 615.654 463.844 629.658 516.667 628.567C569.489 629.658 621.526 615.654 666.667 588.2V619.033ZM516.667 400C605.067 400 666.667 442.667 666.667 480.967C666.667 519.267 605.067 561.9 516.667 561.9C428.267 561.9 366.667 519.233 366.667 480.967C366.667 442.7 428.267 400 516.667 400ZM283.333 100C371.733 100 433.333 141 433.333 177.767C433.333 214.533 371.733 255.567 283.333 255.567C194.933 255.567 133.333 214.567 133.333 177.767C133.333 140.967 194.933 100 283.333 100ZM133.333 282.733C178.662 309.653 230.625 323.336 283.333 322.233C336.041 323.336 388.005 309.653 433.333 282.733V344.333C397.005 353.49 363.689 371.951 336.667 397.9C319.141 401.693 301.265 403.637 283.333 403.7C194.933 403.7 133.333 362.7 133.333 325.933V282.733ZM133.333 430.9C178.672 457.793 230.63 471.464 283.333 470.367C289.267 470.367 295 469.633 300.833 469.333C300.337 473.192 300.059 477.076 300 480.967V550.467C294.4 550.8 289 551.867 283.333 551.867C194.933 551.867 133.333 510.867 133.333 474.067V430.9ZM133.333 579.033C178.662 605.953 230.625 619.636 283.333 618.533C288.933 618.533 294.433 618.1 300 617.833V619.033C300.477 647.409 311.381 674.616 330.633 695.467C315.037 698.411 299.205 699.929 283.333 700C194.933 700 133.333 659 133.333 622.233V579.033Z" fill="#FA8072"/>
</svg>
