<svg width="800" height="800" viewBox="0 0 800 800" fill="none" xmlns="http://www.w3.org/2000/svg">
<path fill-rule="evenodd" clip-rule="evenodd" d="M302.09 477.137C298.285 469.34 289.69 465.127 281.31 467.187C191.242 489.32 100 534.452 100 602.345V716.667H700V602.345C700 534.452 608.758 489.32 518.69 467.187C510.31 465.127 501.715 469.34 497.91 477.137H430.175C415.363 477.14 407.822 477.14 400.413 477.14C392.728 477.138 385.187 477.138 369.822 477.142L302.09 477.137ZM430.182 510.47C415.277 510.473 407.767 510.473 400.4 510.473C392.763 510.472 385.27 510.472 369.83 510.475L281.263 510.468L277.427 502.607C238.722 513.048 202.213 527.583 175.27 545.407C144.877 565.512 133.333 584.992 133.333 602.345V683.333H666.667V602.345C666.667 584.992 655.123 565.512 624.73 545.407C597.787 527.583 561.278 513.048 522.573 502.607L518.737 510.47H430.182Z" fill="white"/>
<path fill-rule="evenodd" clip-rule="evenodd" d="M266.667 598.397C275.64 598.397 283.333 591.002 283.333 581.36C283.333 571.718 275.64 564.323 266.667 564.323C257.693 564.323 250 571.718 250 581.36C250 591.002 257.693 598.397 266.667 598.397ZM266.667 631.73C294.282 631.73 316.667 609.178 316.667 581.36C316.667 553.542 294.282 530.99 266.667 530.99C239.052 530.99 216.667 553.542 216.667 581.36C216.667 609.178 239.052 631.73 266.667 631.73Z" fill="white"/>
<path d="M260.59 493.528C256.963 505.768 257.318 520.833 264.835 539.343L233.952 551.885C226.558 533.68 223.822 516.272 225.488 499.998C226.045 494.553 227.097 489.235 228.63 484.058L260.59 493.528Z" fill="white"/>
<path d="M542.247 541.6L574.6 549.628C578.777 532.798 579.648 516.982 577.5 502.325L540.19 491.307C545.717 504.733 547.298 521.245 542.247 541.6Z" fill="white"/>
<path fill-rule="evenodd" clip-rule="evenodd" d="M523.78 537.083C526.755 534.658 530.475 533.333 534.313 533.333H582.353C586.192 533.333 589.912 534.658 592.887 537.083L627.2 565.067C631.082 568.233 633.333 572.975 633.333 577.983V650.74C633.333 659.945 625.872 667.407 616.667 667.407H582.353V634.073H600V585.898L576.418 566.667H540.248L516.667 585.898V634.073H534.313V667.407H500C490.795 667.407 483.333 659.945 483.333 650.74V577.983C483.333 572.975 485.585 568.233 489.467 565.067L523.78 537.083Z" fill="white"/>
<path fill-rule="evenodd" clip-rule="evenodd" d="M291.198 103.502C312.135 84.8961 345.04 66.6666 392.62 66.6666C440.006 66.6666 475.855 84.7368 499.663 102.64C511.548 111.578 520.511 120.525 526.552 127.301C529.578 130.696 531.889 133.567 533.483 135.647C534.28 136.689 534.9 137.534 535.342 138.152C535.564 138.46 535.74 138.712 535.873 138.903C535.939 138.999 535.994 139.079 536.038 139.144L536.096 139.229L536.128 139.277C536.133 139.283 536.137 139.29 522.305 148.587C536.637 140.081 536.639 140.084 536.641 140.087L536.646 140.096L536.661 140.12L536.706 140.197C536.733 140.243 536.767 140.301 536.809 140.372L536.861 140.462C536.994 140.687 537.182 141.01 537.423 141.427C537.904 142.26 538.595 143.469 539.466 145.024C541.208 148.132 543.673 152.628 546.618 158.274C552.502 169.554 560.34 185.49 568.186 204.175C583.694 241.108 600 290.55 600 336.44C600 389.456 559.083 417.824 524.936 432.142C507.385 439.502 490.03 443.914 477.192 446.491C470.737 447.787 465.335 448.637 461.504 449.167C459.587 449.432 458.058 449.618 456.982 449.74C456.721 449.77 456.486 449.795 456.279 449.818C456.059 449.841 455.87 449.861 455.713 449.877C455.56 449.893 455.438 449.905 455.346 449.914L455.233 449.924L455.194 449.928L455.179 449.93C455.173 449.93 455.167 449.931 453.648 433.333L455.167 449.931L406.605 454.374L442.262 421.163L442.27 421.155L442.275 421.15C442.288 421.138 442.31 421.117 442.342 421.086C442.363 421.066 442.388 421.043 442.416 421.015C442.506 420.929 442.635 420.804 442.8 420.642C442.899 420.544 443.012 420.434 443.137 420.309C443.802 419.647 444.824 418.607 446.128 417.211C448.738 414.414 452.459 410.206 456.702 404.749C465.224 393.79 475.655 378.049 483.513 358.811C498.685 321.669 504.549 271.251 467.048 214.864C464.373 214.867 460.345 215.243 454.839 216.223C441.807 218.541 424.127 223.549 404.621 230.128C365.647 243.274 322.229 261.711 299.451 273.992C297.342 275.129 293.343 279.046 295.41 295.247C297.333 310.321 303.986 329.491 312.735 349.207C321.361 368.644 331.492 387.447 339.527 401.475C343.532 408.465 346.986 414.217 349.429 418.206C350.65 420.2 351.616 421.75 352.271 422.791C352.598 423.312 352.847 423.705 353.011 423.963L353.076 424.064C353.126 424.142 353.164 424.203 353.192 424.246L353.232 424.309L353.239 424.319L353.24 424.321L372.938 454.956L336.876 449.834L339.22 433.333C336.876 449.834 336.871 449.834 336.866 449.833L336.852 449.831L336.816 449.826L336.704 449.809C336.613 449.796 336.489 449.778 336.333 449.754C336.02 449.707 335.578 449.639 335.015 449.548C333.891 449.368 332.283 449.099 330.26 448.731C326.218 447.997 320.501 446.868 313.664 445.266C300.053 442.076 281.698 436.942 263.169 429.178C244.791 421.478 225.274 410.794 210.131 396.06C194.739 381.085 183.333 361.32 183.333 336.44C183.333 293.591 204.123 243.544 223.301 206.011C233.09 186.853 242.861 170.202 250.183 158.34C253.849 152.402 256.912 147.645 259.073 144.352C260.154 142.705 261.01 141.423 261.603 140.542C261.701 140.396 261.792 140.261 261.876 140.138C262.208 139.491 262.658 138.644 263.232 137.623C264.454 135.446 266.244 132.467 268.656 128.956C273.468 121.949 280.829 112.718 291.198 103.502ZM290.01 158.043L289.979 158.088C289.951 158.129 289.904 158.197 289.84 158.291C289.713 158.478 289.515 158.769 289.253 159.158C288.729 159.936 287.946 161.109 286.941 162.641C284.93 165.705 282.034 170.201 278.548 175.849C271.566 187.16 262.266 203.012 252.984 221.178C234.02 258.291 216.667 302.17 216.667 336.44C216.667 350.12 222.664 361.747 233.376 372.169C244.336 382.833 259.624 391.552 276.051 398.435C286.058 402.628 296.131 405.993 305.31 408.644C297.997 395.43 289.661 379.389 282.267 362.728C273.137 342.154 264.891 319.428 262.344 299.465C259.941 280.629 261.902 256.368 283.632 244.651C308.532 231.226 353.797 212.092 393.968 198.543C414.036 191.774 433.545 186.154 449.001 183.405C456.606 182.052 464.186 181.213 470.729 181.646C474 181.863 477.862 182.444 481.62 183.985C485.204 185.455 489.527 188.17 492.496 192.998C539.796 261.6 533.178 325.376 514.372 371.415C508.782 385.1 502.142 397.192 495.599 407.408C500.979 405.705 506.526 403.717 512.046 401.402C542.741 388.531 566.667 368.452 566.667 336.44C566.667 297.302 552.458 252.818 537.452 217.081C530.041 199.431 522.622 184.347 517.064 173.69C514.287 168.368 511.984 164.167 510.388 161.32C509.591 159.897 508.971 158.813 508.558 158.099C508.443 157.899 508.343 157.728 508.261 157.586C508.254 157.577 508.247 157.567 508.24 157.558C507.998 157.219 507.592 156.663 507.022 155.92C505.883 154.432 504.096 152.204 501.669 149.482C496.803 144.023 489.437 136.657 479.629 129.281C460.049 114.557 431.056 100 392.62 100C354.38 100 329.118 114.398 313.342 128.418C305.355 135.516 299.723 142.599 296.132 147.827C294.342 150.434 293.077 152.553 292.296 153.944C291.906 154.639 291.638 155.149 291.487 155.444C291.415 155.584 291.37 155.675 291.351 155.714C291.35 155.716 291.348 155.72 291.348 155.72L290.796 156.902L290.01 158.043ZM522.305 148.587L536.637 140.081L536.398 139.678L536.137 139.29L522.305 148.587Z" fill="white"/>
</svg>
