<svg width="600" height="651" viewBox="0 0 600 651" fill="none" xmlns="http://www.w3.org/2000/svg">
<path fill-rule="evenodd" clip-rule="evenodd" d="M202.09 411.137C198.285 403.34 189.69 399.127 181.31 401.187C91.242 423.32 0 468.452 0 536.345V650.667H600V536.345C600 468.452 508.758 423.32 418.69 401.187C410.31 399.127 401.715 403.34 397.91 411.137H330.175C315.363 411.14 307.822 411.14 300.413 411.14C292.728 411.138 285.187 411.138 269.822 411.142L202.09 411.137ZM330.182 444.47C315.277 444.473 307.767 444.473 300.4 444.473C292.763 444.472 285.27 444.472 269.83 444.475L181.263 444.468L177.427 436.607C138.722 447.048 102.213 461.583 75.27 479.407C44.877 499.512 33.333 518.992 33.333 536.345V617.333H566.667V536.345C566.667 518.992 555.123 499.512 524.73 479.407C497.787 461.583 461.278 447.048 422.573 436.607L418.737 444.47H330.182Z" fill="#F39F95"/>
<path fill-rule="evenodd" clip-rule="evenodd" d="M166.667 532.397C175.64 532.397 183.333 525.002 183.333 515.36C183.333 505.718 175.64 498.323 166.667 498.323C157.693 498.323 150 505.718 150 515.36C150 525.002 157.693 532.397 166.667 532.397ZM166.667 565.73C194.282 565.73 216.667 543.178 216.667 515.36C216.667 487.542 194.282 464.99 166.667 464.99C139.052 464.99 116.667 487.542 116.667 515.36C116.667 543.178 139.052 565.73 166.667 565.73Z" fill="#F39F95"/>
<path d="M160.59 427.528C156.963 439.768 157.318 454.833 164.835 473.343L133.952 485.885C126.558 467.68 123.822 450.272 125.488 433.998C126.045 428.553 127.097 423.235 128.63 418.058L160.59 427.528Z" fill="#F39F95"/>
<path d="M442.247 475.6L474.6 483.628C478.777 466.798 479.648 450.982 477.5 436.325L440.19 425.307C445.717 438.733 447.298 455.245 442.247 475.6Z" fill="#F39F95"/>
<path fill-rule="evenodd" clip-rule="evenodd" d="M423.78 471.083C426.755 468.658 430.475 467.333 434.313 467.333H482.353C486.192 467.333 489.912 468.658 492.887 471.083L527.2 499.067C531.082 502.233 533.333 506.975 533.333 511.983V584.74C533.333 593.945 525.872 601.407 516.667 601.407H482.353V568.073H500V519.898L476.418 500.667H440.248L416.667 519.898V568.073H434.313V601.407H400C390.795 601.407 383.333 593.945 383.333 584.74V511.983C383.333 506.975 385.585 502.233 389.467 499.067L423.78 471.083Z" fill="#F39F95"/>
<path fill-rule="evenodd" clip-rule="evenodd" d="M191.198 37.502C212.135 18.8961 245.04 0.666626 292.62 0.666626C340.006 0.666626 375.855 18.7368 399.663 36.64C411.548 45.578 420.511 54.525 426.552 61.301C429.578 64.696 431.889 67.567 433.483 69.647C434.28 70.689 434.9 71.534 435.342 72.152C435.564 72.46 435.74 72.712 435.873 72.903C435.939 72.999 435.994 73.079 436.038 73.144L436.096 73.229L436.128 73.277C436.133 73.283 436.137 73.29 422.305 82.587C436.637 74.081 436.639 74.084 436.641 74.087L436.646 74.096L436.661 74.12L436.706 74.197C436.733 74.243 436.767 74.301 436.809 74.372L436.861 74.462C436.994 74.687 437.182 75.01 437.423 75.427C437.904 76.26 438.595 77.469 439.466 79.024C441.208 82.132 443.673 86.628 446.618 92.274C452.502 103.554 460.34 119.49 468.186 138.175C483.694 175.108 500 224.55 500 270.44C500 323.456 459.083 351.824 424.936 366.142C407.385 373.502 390.03 377.914 377.192 380.491C370.737 381.787 365.335 382.637 361.504 383.167C359.587 383.432 358.058 383.618 356.982 383.74C356.721 383.77 356.486 383.795 356.279 383.818C356.059 383.841 355.87 383.861 355.713 383.877C355.56 383.893 355.438 383.905 355.346 383.914L355.233 383.924L355.194 383.928L355.179 383.93C355.173 383.93 355.167 383.931 353.648 367.333L355.167 383.931L306.605 388.374L342.262 355.163L342.275 355.15C342.288 355.138 342.31 355.117 342.342 355.086C342.363 355.066 342.388 355.043 342.416 355.015C342.506 354.929 342.635 354.804 342.8 354.642C342.899 354.544 343.012 354.434 343.137 354.309C343.802 353.647 344.824 352.607 346.128 351.211C348.738 348.414 352.459 344.206 356.702 338.749C365.224 327.79 375.655 312.049 383.513 292.811C398.685 255.669 404.549 205.251 367.048 148.864C364.373 148.867 360.345 149.243 354.839 150.223C341.807 152.541 324.127 157.549 304.621 164.128C265.647 177.274 222.229 195.711 199.451 207.992C197.342 209.129 193.343 213.046 195.41 229.247C197.333 244.321 203.986 263.491 212.735 283.207C221.361 302.644 231.492 321.447 239.527 335.475C243.532 342.465 246.986 348.217 249.429 352.206C250.65 354.2 251.616 355.75 252.271 356.791C252.598 357.312 252.847 357.705 253.011 357.963L253.076 358.064C253.126 358.142 253.164 358.203 253.192 358.246L253.232 358.309L253.239 358.319L253.24 358.321L272.938 388.956L236.876 383.834L239.22 367.333C236.876 383.834 236.871 383.834 236.866 383.833L236.852 383.831L236.816 383.826L236.704 383.809C236.613 383.796 236.489 383.778 236.333 383.754C236.02 383.707 235.578 383.639 235.015 383.548C233.891 383.368 232.283 383.099 230.26 382.731C226.218 381.997 220.501 380.868 213.664 379.266C200.053 376.076 181.698 370.942 163.169 363.178C144.791 355.478 125.274 344.794 110.131 330.06C94.739 315.085 83.333 295.32 83.333 270.44C83.333 227.591 104.123 177.544 123.301 140.011C133.09 120.853 142.861 104.202 150.183 92.34C153.849 86.402 156.912 81.645 159.073 78.352C160.154 76.705 161.01 75.423 161.603 74.542C161.701 74.396 161.792 74.261 161.876 74.138C162.208 73.491 162.658 72.644 163.232 71.623C164.454 69.446 166.244 66.467 168.656 62.956C173.468 55.949 180.829 46.718 191.198 37.502ZM189.979 92.088C189.951 92.129 189.904 92.197 189.84 92.291C189.713 92.478 189.515 92.769 189.253 93.158C188.729 93.936 187.946 95.109 186.941 96.641C184.93 99.705 182.034 104.201 178.548 109.849C171.566 121.16 162.266 137.012 152.984 155.178C134.02 192.291 116.667 236.17 116.667 270.44C116.667 284.12 122.664 295.747 133.376 306.169C144.336 316.833 159.624 325.552 176.051 332.435C186.058 336.628 196.131 339.993 205.31 342.644C197.997 329.43 189.661 313.389 182.267 296.728C173.137 276.154 164.891 253.428 162.344 233.465C159.941 214.629 161.902 190.368 183.632 178.651C208.532 165.226 253.797 146.092 293.968 132.543C314.036 125.774 333.545 120.154 349.001 117.405C356.606 116.052 364.186 115.213 370.729 115.646C374 115.863 377.862 116.444 381.62 117.985C385.204 119.455 389.527 122.17 392.496 126.998C439.796 195.6 433.178 259.376 414.372 305.415C408.782 319.1 402.142 331.192 395.599 341.408C400.979 339.705 406.526 337.717 412.046 335.402C442.741 322.531 466.667 302.452 466.667 270.44C466.667 231.302 452.458 186.818 437.452 151.081C430.041 133.431 422.622 118.347 417.064 107.69C414.287 102.368 411.984 98.167 410.388 95.32C409.591 93.897 408.971 92.813 408.558 92.099C408.443 91.899 408.343 91.728 408.261 91.586C408.254 91.577 408.247 91.567 408.24 91.558C407.998 91.219 407.592 90.663 407.022 89.92C405.883 88.432 404.096 86.204 401.669 83.482C396.803 78.023 389.437 70.657 379.629 63.281C360.049 48.557 331.056 34 292.62 34C254.38 34 229.118 48.398 213.342 62.418C205.355 69.516 199.723 76.599 196.132 81.827C194.342 84.434 193.077 86.553 192.296 87.944C191.906 88.639 191.638 89.149 191.487 89.444C191.415 89.584 191.37 89.675 191.351 89.714C191.35 89.716 191.348 89.72 191.348 89.72L190.796 90.902L189.979 92.088ZM422.305 82.587L436.637 74.081L436.398 73.678L436.137 73.29L422.305 82.587Z" fill="#F39F95"/>
</svg>
