<svg width="20" height="16" viewBox="0 0 20 16" fill="none" xmlns="http://www.w3.org/2000/svg">
<path d="M17.4209 2.18478C17.8614 1.87151 18.4738 1.96507 18.8 2.39999C19.1262 2.83492 19.0445 3.44907 18.6204 3.78424L18.6 3.8L12.4 8.45C10.9889 9.50832 9.05278 9.5166 7.63344 8.47482L7.60001 8.45L1.39999 3.80003L1.37954 3.7843C0.955473 3.44914 0.873798 2.83498 1.19998 2.40005C1.53135 1.95822 2.15816 1.86867 2.59999 2.20004L8.80001 6.84998C9.51116 7.38333 10.4889 7.38333 11.2 6.84998L17.4 2.19998L17.4209 2.18478Z" fill="url(#paint0_linear_229_50)"/>
<path d="M18 3C18 2.44772 17.5523 1.99998 17 1.99998H3C2.44772 1.99998 1.99998 2.44772 1.99998 3V13C1.99998 13.5523 2.44772 14 3 14H17C17.5523 14 18 13.5523 18 13V3ZM20 13C20 14.6569 18.6569 16 17 16H3C1.34315 16 2.47399e-07 14.6569 0 13V3C0 1.34315 1.34315 0 3 0H17C18.6569 0 20 1.34315 20 3V13Z" fill="url(#paint1_linear_229_50)"/>
<defs>
<linearGradient id="paint0_linear_229_50" x1="0" y1="8" x2="20" y2="8" gradientUnits="userSpaceOnUse">
<stop stop-color="#8B5C23"/>
<stop offset="0.525023" stop-color="#AE8339"/>
<stop offset="1" stop-color="#8B5C23"/>
</linearGradient>
<linearGradient id="paint1_linear_229_50" x1="0" y1="8" x2="20" y2="8" gradientUnits="userSpaceOnUse">
<stop stop-color="#8B5C23"/>
<stop offset="0.525023" stop-color="#AE8339"/>
<stop offset="1" stop-color="#8B5C23"/>
</linearGradient>
</defs>
</svg>
