<svg width="63" height="50" viewBox="0 0 63 50" fill="none" xmlns="http://www.w3.org/2000/svg">
<path d="M53.9 0.399902H9.69995C4.69995 0.399902 0.699951 4.3999 0.699951 9.3999V40.2999C0.699951 45.2999 4.69995 49.2999 9.69995 49.2999H53.9C58.9 49.2999 62.9 45.2999 62.9 40.2999V9.3999C62.9 4.3999 58.9 0.399902 53.9 0.399902ZM53.9 4.69991C54.3 4.69991 54.6 4.69991 55 4.79991L36.2999 25.9999C35.1999 27.2999 33.4999 27.9999 31.7999 27.9999C30.0999 27.9999 28.3999 27.2999 27.2999 25.9999L8.59995 4.79991C8.89995 4.69991 9.29995 4.69991 9.69995 4.69991H53.9ZM58.5999 40.2999C58.5999 42.8999 56.5 44.9999 53.9 44.9999H9.69995C7.09995 44.9999 4.99995 42.8999 4.99995 40.2999V9.3999C4.99995 8.7999 5.09995 8.19991 5.39995 7.59991L24.1 28.7999C26.1 30.9999 28.8999 32.2999 31.7999 32.2999C34.7999 32.2999 37.6 30.9999 39.5 28.7999L58.2 7.59991C58.4 8.09991 58.5999 8.6999 58.5999 9.3999V40.2999Z" fill="white"/>
</svg>
