<svg width="40" height="41" viewBox="0 0 40 41" fill="none" xmlns="http://www.w3.org/2000/svg">
<path opacity="0.2" d="M28.3941 0H11.6258C4.34216 0 0 4.34216 0 11.6258V28.3741C0 35.6778 4.34216 40.0199 11.6258 40.0199H28.3741C35.6578 40.0199 39.9999 35.6778 39.9999 28.3941V11.6258C40.0199 4.34216 35.6778 0 28.3941 0Z" fill="#FA8072"/>
<path d="M30.0149 12.5064H10.0049C9.18449 12.5064 8.50415 11.826 8.50415 11.0056C8.50415 10.1852 9.18449 9.50488 10.0049 9.50488H30.0149C30.8353 9.50488 31.5156 10.1852 31.5156 11.0056C31.5156 11.826 30.8353 12.5064 30.0149 12.5064Z" fill="#FA8072"/>
<path d="M30.0149 21.5109H10.0049C9.18449 21.5109 8.50415 20.8305 8.50415 20.0101C8.50415 19.1897 9.18449 18.5094 10.0049 18.5094H30.0149C30.8353 18.5094 31.5156 19.1897 31.5156 20.0101C31.5156 20.8305 30.8353 21.5109 30.0149 21.5109Z" fill="#FA8072"/>
<path d="M30.0149 30.5154H10.0049C9.18449 30.5154 8.50415 29.835 8.50415 29.0146C8.50415 28.1942 9.18449 27.5139 10.0049 27.5139H30.0149C30.8353 27.5139 31.5156 28.1942 31.5156 29.0146C31.5156 29.835 30.8353 30.5154 30.0149 30.5154Z" fill="#FA8072"/>
</svg>
