<svg width="40" height="42" viewBox="0 0 40 42" fill="none" xmlns="http://www.w3.org/2000/svg">
<path d="M33.9131 12.5H6.08696C4.94609 12.5 4 11.5933 4 10.4999C4 9.40663 4.94609 8.5 6.08696 8.5H33.9131C35.054 8.5 36 9.40663 36 10.4999C36 11.5933 35.054 12.5 33.9131 12.5Z" fill="url(#paint0_linear_251_39)"/>
<path d="M33.9229 22.5H6.09673C4.95585 22.5 4.00977 21.5932 4.00977 20.4999C4.00977 19.4066 4.95585 18.5 6.09673 18.5H33.9229C35.0637 18.5 36.0098 19.4066 36.0098 20.4999C36.0098 21.5932 35.0637 22.5 33.9229 22.5Z" fill="url(#paint1_linear_251_39)"/>
<path d="M33.9131 32.5H6.08696C4.94609 32.5 4 31.5933 4 30.4999C4 29.4066 4.94609 28.5 6.08696 28.5H33.9131C35.054 28.5 36 29.4066 36 30.4999C36 31.5933 35.054 32.5 33.9131 32.5Z" fill="url(#paint2_linear_251_39)"/>
<defs>
<linearGradient id="paint0_linear_251_39" x1="4" y1="10.5" x2="36" y2="10.5" gradientUnits="userSpaceOnUse">
<stop stop-color="#8B5C23"/>
<stop offset="0.525023" stop-color="#AE8339"/>
<stop offset="1" stop-color="#8B5C23"/>
</linearGradient>
<linearGradient id="paint1_linear_251_39" x1="4.00977" y1="20.5" x2="36.0098" y2="20.5" gradientUnits="userSpaceOnUse">
<stop stop-color="#8B5C23"/>
<stop offset="0.525023" stop-color="#AE8339"/>
<stop offset="1" stop-color="#8B5C23"/>
</linearGradient>
<linearGradient id="paint2_linear_251_39" x1="4" y1="30.5" x2="36" y2="30.5" gradientUnits="userSpaceOnUse">
<stop stop-color="#8B5C23"/>
<stop offset="0.525023" stop-color="#AE8339"/>
<stop offset="1" stop-color="#8B5C23"/>
</linearGradient>
</defs>
</svg>
