<svg width="21" height="21" viewBox="0 0 21 21" fill="none" xmlns="http://www.w3.org/2000/svg">
<path d="M20.8333 10.8335C20.8333 16.3563 16.3561 20.8335 10.8333 20.8335C5.31041 20.8335 0.833252 16.3563 0.833252 10.8335C0.833252 5.31065 5.31041 0.833496 10.8333 0.833496C16.3561 0.833496 20.8333 5.31065 20.8333 10.8335ZM2.65764 10.8335C2.65764 15.3488 6.31799 19.0091 10.8333 19.0091C15.3485 19.0091 19.0089 15.3488 19.0089 10.8335C19.0089 6.31823 15.3485 2.65789 10.8333 2.65789C6.31799 2.65789 2.65764 6.31823 2.65764 10.8335Z" fill="url(#paint0_linear_229_54)"/>
<path d="M10.8334 4.4695C10.3313 4.4695 9.92434 4.87651 9.92434 5.3786V11.2574C9.92434 11.2574 9.92434 11.4944 10.0395 11.6727C10.1166 11.8239 10.2368 11.9552 10.3947 12.0464L14.5945 14.4712C15.0293 14.7222 15.5853 14.5732 15.8363 14.1384C16.0873 13.7036 15.9384 13.1476 15.5036 12.8966L11.7425 10.7251V5.3786C11.7425 4.87652 11.3355 4.4695 10.8334 4.4695Z" fill="url(#paint1_linear_229_54)"/>
<defs>
<linearGradient id="paint0_linear_229_54" x1="0.833252" y1="10.8335" x2="20.8333" y2="10.8335" gradientUnits="userSpaceOnUse">
<stop stop-color="#8B5C23"/>
<stop offset="0.525023" stop-color="#AE8339"/>
<stop offset="1" stop-color="#8B5C23"/>
</linearGradient>
<linearGradient id="paint1_linear_229_54" x1="0.833252" y1="10.8335" x2="20.8333" y2="10.8335" gradientUnits="userSpaceOnUse">
<stop stop-color="#8B5C23"/>
<stop offset="0.525023" stop-color="#AE8339"/>
<stop offset="1" stop-color="#8B5C23"/>
</linearGradient>
</defs>
</svg>
