<svg width="65" height="65" viewBox="0 0 65 65" fill="none" xmlns="http://www.w3.org/2000/svg">
<path d="M49.3361 11.4026C47.2727 11.4026 45.5352 13.0316 45.5352 15.2035C45.5352 17.2669 47.1641 19.0045 49.3361 19.0045C51.3995 19.0045 53.1371 17.3755 53.1371 15.2035C53.1371 13.1402 51.3995 11.4026 49.3361 11.4026Z" fill="white"/>
<path d="M32.6121 16.2898C23.9242 16.2898 16.8652 23.3487 16.8652 32.0366C16.8652 40.7245 23.9242 47.7834 32.6121 47.7834C41.3 47.7834 48.3589 40.7245 48.3589 32.0366C48.3589 23.3487 41.3 16.2898 32.6121 16.2898ZM32.6121 42.1363C27.0735 42.1363 22.5124 37.5752 22.5124 32.0366C22.5124 26.4981 27.0735 21.9369 32.6121 21.9369C38.1506 21.9369 42.7117 26.4981 42.7117 32.0366C42.7117 37.5752 38.1506 42.1363 32.6121 42.1363Z" fill="white"/>
<path d="M45.2095 64.0733H19.5802C8.93749 64.0733 0.358185 55.3854 0.358185 44.8513V19.222C0.249586 8.6879 8.93749 0 19.5802 0H45.2095C55.7436 0 64.4315 8.6879 64.4315 19.222V44.8513C64.4315 55.494 55.7436 64.0733 45.2095 64.0733ZM19.5802 6.08153C12.3041 6.08153 6.33112 11.9459 6.33112 19.222V44.8513C6.33112 52.1274 12.3041 58.1003 19.5802 58.1003H45.2095C52.4856 58.1003 58.4585 52.1274 58.4585 44.8513V19.222C58.3499 11.9459 52.4856 6.08153 45.2095 6.08153H19.5802Z" fill="white"/>
</svg>
