<svg width="24" height="24" viewBox="0 0 24 24" fill="none" xmlns="http://www.w3.org/2000/svg">
<g clip-path="url(#clip0_249_27)">
<mask id="mask0_249_27" style="mask-type:luminance" maskUnits="userSpaceOnUse" x="0" y="0" width="24" height="24">
<path d="M24 0H0V24H24V0Z" fill="white"/>
</mask>
<g mask="url(#mask0_249_27)">
<path d="M18.2164 4.20996C17.4545 4.20996 16.813 4.81144 16.813 5.61337C16.813 6.37524 17.4144 7.01682 18.2164 7.01682C18.9783 7.01682 19.6198 6.41534 19.6198 5.61337C19.6198 4.85154 18.9783 4.20996 18.2164 4.20996Z" fill="#7B8AC2"/>
<path d="M12.0414 6.01465C8.83345 6.01465 6.22705 8.62101 6.22705 11.8289C6.22705 15.0367 8.83345 17.6431 12.0414 17.6431C15.2492 17.6431 17.8555 15.0367 17.8555 11.8289C17.8555 8.62101 15.2492 6.01465 12.0414 6.01465ZM12.0414 15.5579C9.99628 15.5579 8.31217 13.8739 8.31217 11.8289C8.31217 9.78386 9.99628 8.09972 12.0414 8.09972C14.0863 8.09972 15.7704 9.78386 15.7704 11.8289C15.7704 13.8739 14.0863 15.5579 12.0414 15.5579Z" fill="#7B8AC2"/>
<path d="M16.6927 23.6579H7.22957C3.29995 23.6579 0.132208 20.45 0.132208 16.5605V7.09735C0.0921099 3.20784 3.29995 0 7.22957 0H16.6927C20.5822 0 23.79 3.20784 23.79 7.09735V16.5605C23.79 20.4901 20.5822 23.6579 16.6927 23.6579ZM7.22957 2.24549C4.54301 2.24549 2.3376 4.41079 2.3376 7.09735V16.5605C2.3376 19.247 4.54301 21.4524 7.22957 21.4524H16.6927C19.3793 21.4524 21.5846 19.247 21.5846 16.5605V7.09735C21.5446 4.41079 19.3793 2.24549 16.6927 2.24549H7.22957Z" fill="#7B8AC2"/>
</g>
</g>
<defs>
<clipPath id="clip0_249_27">
<rect width="24" height="24" fill="white"/>
</clipPath>
</defs>
</svg>
