<svg width="20" height="20" viewBox="0 0 20 20" fill="none" xmlns="http://www.w3.org/2000/svg">
<g clip-path="url(#clip0_229_21)">
<path d="M15.1803 3.50849C14.5454 3.50849 14.0108 4.00972 14.0108 4.678C14.0108 5.31289 14.512 5.84754 15.1803 5.84754C15.8152 5.84754 16.3498 5.34631 16.3498 4.678C16.3498 4.04314 15.8152 3.50849 15.1803 3.50849Z" fill="url(#paint0_linear_229_21)"/>
<path d="M10.0345 5.01225C7.36125 5.01225 5.18925 7.18422 5.18925 9.85742C5.18925 12.5306 7.36125 14.7026 10.0345 14.7026C12.7077 14.7026 14.8796 12.5306 14.8796 9.85742C14.8796 7.18422 12.7077 5.01225 10.0345 5.01225ZM10.0345 12.965C8.33027 12.965 6.92685 11.5616 6.92685 9.85742C6.92685 8.15326 8.33027 6.74981 10.0345 6.74981C11.7386 6.74981 13.142 8.15326 13.142 9.85742C13.142 11.5616 11.7386 12.965 10.0345 12.965Z" fill="url(#paint1_linear_229_21)"/>
<path d="M13.9106 19.7149H6.02464C2.74996 19.7149 0.110173 17.0417 0.110173 13.8004V5.91446C0.0767581 2.6732 2.74996 0 6.02464 0H13.9106C17.1518 0 19.825 2.6732 19.825 5.91446V13.8004C19.825 17.0751 17.1518 19.7149 13.9106 19.7149ZM6.02464 1.87124C3.78584 1.87124 1.948 3.67566 1.948 5.91446V13.8004C1.948 16.0392 3.78584 17.877 6.02464 17.877H13.9106C16.1494 17.877 17.9872 16.0392 17.9872 13.8004V5.91446C17.9538 3.67566 16.1494 1.87124 13.9106 1.87124H6.02464Z" fill="url(#paint2_linear_229_21)"/>
</g>
<defs>
<linearGradient id="paint0_linear_229_21" x1="0.109863" y1="9.85743" x2="19.825" y2="9.85743" gradientUnits="userSpaceOnUse">
<stop stop-color="#8B5C23"/>
<stop offset="0.525023" stop-color="#AE8339"/>
<stop offset="1" stop-color="#8B5C23"/>
</linearGradient>
<linearGradient id="paint1_linear_229_21" x1="0.109863" y1="9.85743" x2="19.825" y2="9.85743" gradientUnits="userSpaceOnUse">
<stop stop-color="#8B5C23"/>
<stop offset="0.525023" stop-color="#AE8339"/>
<stop offset="1" stop-color="#8B5C23"/>
</linearGradient>
<linearGradient id="paint2_linear_229_21" x1="0.109863" y1="9.85743" x2="19.825" y2="9.85743" gradientUnits="userSpaceOnUse">
<stop stop-color="#8B5C23"/>
<stop offset="0.525023" stop-color="#AE8339"/>
<stop offset="1" stop-color="#8B5C23"/>
</linearGradient>
<clipPath id="clip0_229_21">
<rect width="20" height="20" fill="white"/>
</clipPath>
</defs>
</svg>
