<svg width="32" height="32" viewBox="0 0 32 32" fill="none" xmlns="http://www.w3.org/2000/svg">
<path d="M26.8493 12.8L26.3523 14.788C26.1742 15.5003 25.5342 16 24.8 16H21.6C20.8658 16 20.2258 15.5003 20.0478 14.788L19.5507 12.8H17.6V28.8H28.8V12.8H26.8493ZM4.8 3.19997V19.2H14.4V12.8C14.4 11.9513 14.7372 11.1374 15.3373 10.5373C15.9374 9.93716 16.7513 9.60001 17.6 9.60001H27.2V3.19997H4.8ZM30.4 10.0287C30.6402 10.1674 30.8633 10.3378 31.0627 10.5373C31.6628 11.1374 32 11.9513 32 12.8V28.8C32 29.6487 31.6628 30.4626 31.0627 31.0627C30.4626 31.6628 29.6487 32 28.8 32H17.6C16.7513 32 15.9374 31.6628 15.3373 31.0627C14.7372 30.4626 14.4 29.6487 14.4 28.8V25.6H3.19997C2.35129 25.6 1.53738 25.2629 0.937267 24.6627C0.337149 24.0626 0 23.2487 0 22.4V20.8L0.000515625 20.7587C0.0220718 19.9079 0.707842 19.2221 1.55869 19.2005L1.59999 19.2V3.19997C1.59999 2.35129 1.93714 1.53738 2.53725 0.937267C3.13737 0.33715 3.95131 0 4.8 0H27.2C28.0487 0 28.8626 0.337149 29.4627 0.937267C30.0629 1.53738 30.4 2.35129 30.4 3.19997V10.0287Z" fill="url(#paint0_linear_215_29)"/>
<defs>
<linearGradient id="paint0_linear_215_29" x1="16" y1="0" x2="16" y2="32" gradientUnits="userSpaceOnUse">
<stop stop-color="#A16C2B"/>
<stop offset="0.490385" stop-color="#D8B056"/>
<stop offset="1" stop-color="#A16C2B"/>
</linearGradient>
</defs>
</svg>
