<svg width="718" height="718" viewBox="0 0 718 718" fill="none" xmlns="http://www.w3.org/2000/svg">
<path d="M562.887 259.606C577.704 244.828 577.704 220.865 562.887 206.085C548.07 191.305 524.05 191.305 509.233 206.085L283.118 431.63L208.77 357.472C193.953 342.691 169.929 342.691 155.113 357.472C140.296 372.252 140.296 396.211 155.113 410.991L256.289 511.915C271.108 526.695 295.128 526.695 309.945 511.915L562.887 259.606Z" fill="#F39F95"/>
<path fill-rule="evenodd" clip-rule="evenodd" d="M360.913 0.666753H357.087C280.141 0.66642 219.84 0.666085 172.79 6.99175C124.632 13.4664 86.6316 26.9777 56.8046 56.8047C26.9776 86.6317 13.4663 124.632 6.99163 172.79C0.665963 219.84 0.666297 280.141 0.666631 357.087V360.913C0.666297 437.86 0.665963 498.16 6.99163 545.21C13.4663 593.367 26.9776 631.37 56.8046 661.197C86.6316 691.023 124.632 704.533 172.79 711.01C219.84 717.333 280.141 717.333 357.087 717.333H360.913C437.86 717.333 498.16 717.333 545.21 711.01C593.367 704.533 631.37 691.023 661.197 661.197C691.023 631.37 704.533 593.367 711.01 545.21C717.333 498.16 717.333 437.86 717.333 360.913V357.087C717.333 280.141 717.333 219.84 711.01 172.79C704.533 124.632 691.023 86.6317 661.197 56.8047C631.37 26.9777 593.367 13.4664 545.21 6.99175C498.16 0.666085 437.86 0.66642 360.913 0.666753ZM92.16 92.1601C111.148 73.1714 136.839 62.2751 179.453 56.5457C222.785 50.7197 279.726 50.6668 359 50.6668C438.273 50.6668 495.213 50.7197 538.547 56.5457C581.16 62.2751 606.85 73.1714 625.84 92.1601C644.83 111.148 655.727 136.839 661.453 179.453C667.28 222.785 667.333 279.726 667.333 359C667.333 438.273 667.28 495.213 661.453 538.547C655.727 581.16 644.83 606.85 625.84 625.84C606.85 644.83 581.16 655.727 538.547 661.453C495.213 667.28 438.273 667.333 359 667.333C279.726 667.333 222.785 667.28 179.453 661.453C136.839 655.727 111.148 644.83 92.16 625.84C73.1713 606.85 62.275 581.16 56.5456 538.547C50.7196 495.213 50.6666 438.273 50.6666 359C50.6666 279.726 50.7196 222.785 56.5456 179.453C62.275 136.839 73.1713 111.148 92.16 92.1601Z" fill="#F39F95"/>
</svg>
