<svg width="600" height="552" viewBox="0 0 600 552" fill="none" xmlns="http://www.w3.org/2000/svg">
<path fill-rule="evenodd" clip-rule="evenodd" d="M382.125 38V148.375H418.25V177.027L458.793 148.375H561.75V38H382.125ZM353.265 9.14C358.798 3.608 366.301 0.5 374.125 0.5H569.75C577.574 0.5 585.077 3.608 590.61 9.14C596.142 14.673 599.25 22.176 599.25 30V156.482L599.249 156.589C599.16 164.329 596.047 171.726 590.574 177.199C585.101 182.672 577.704 185.785 569.964 185.874L569.857 185.875H547.25V425.25C547.25 435.991 542.983 446.293 535.388 453.888C527.793 461.483 517.491 465.75 506.75 465.75H357.304C356.978 473.807 358.497 481.894 361.821 489.371C366.465 499.815 374.351 508.44 384.259 514H429.875C440.23 514 448.625 522.395 448.625 532.75C448.625 543.105 440.23 551.5 429.875 551.5H118.125C107.77 551.5 99.375 543.105 99.375 532.75C99.375 522.395 107.77 514 118.125 514H173.291C183.095 508.391 190.872 499.762 195.425 489.35C198.697 481.868 200.163 473.789 199.787 465.75H41.25C30.509 465.75 20.207 461.483 12.612 453.888C5.017 446.293 0.75 435.991 0.75 425.25V99.125C0.75 88.384 5.017 78.082 12.612 70.487C20.207 62.892 30.509 58.625 41.25 58.625H344.625V30C344.625 22.176 347.733 14.673 353.265 9.14ZM344.625 96.125H41.25C40.454 96.125 39.691 96.441 39.129 97.004C38.566 97.566 38.25 98.329 38.25 99.125V347.125H70.39C74.207 325.469 84.58 305.332 100.329 289.561C120.55 269.311 147.982 257.915 176.599 257.875H176.612H176.625C205.275 257.875 232.754 269.246 253.027 289.491C268.828 305.269 279.244 325.432 283.09 347.125H509.75V185.875H470.707L411.884 227.445L411.693 227.573C408.777 229.528 405.393 230.677 401.885 230.901C398.38 231.124 394.877 230.413 391.735 228.842C388.593 227.271 385.923 224.895 383.998 221.957C382.073 219.018 380.961 215.621 380.776 212.114L380.75 211.62V185.875H374.018L373.911 185.874C366.171 185.785 358.774 182.672 353.301 177.199C347.828 171.726 344.715 164.329 344.626 156.589L344.625 156.482V96.125ZM509.75 384.625H38.25V425.25C38.25 426.046 38.566 426.809 39.129 427.371C39.691 427.934 40.454 428.25 41.25 428.25H506.75C507.546 428.25 508.309 427.934 508.871 427.371C509.434 426.809 509.75 426.046 509.75 425.25V384.625ZM244.681 347.125C241.447 335.466 235.241 324.725 226.53 316.026C213.289 302.804 195.343 295.377 176.631 295.375C157.958 295.406 140.059 302.845 126.864 316.059C118.181 324.754 112.001 335.483 108.789 347.125H244.681ZM237.311 465.75C237.671 478.923 235.144 492.118 229.783 504.376C228.332 507.694 226.69 510.907 224.869 514H332.409C330.617 510.979 328.995 507.844 327.555 504.606C322.082 492.295 319.472 479.018 319.786 465.75H237.311ZM176.625 165.75C162.611 165.75 151.25 177.111 151.25 191.125C151.25 205.139 162.611 216.5 176.625 216.5C190.639 216.5 202 205.139 202 191.125C202 177.111 190.639 165.75 176.625 165.75ZM113.75 191.125C113.75 156.4 141.9 128.25 176.625 128.25C211.35 128.25 239.5 156.4 239.5 191.125C239.5 225.85 211.35 254 176.625 254C141.9 254 113.75 225.85 113.75 191.125Z" fill="#F39F95"/>
</svg>
