<svg width="800" height="800" viewBox="0 0 800 800" fill="none" xmlns="http://www.w3.org/2000/svg">
<path fill-rule="evenodd" clip-rule="evenodd" d="M482.125 162V272.375H518.25V301.027L558.793 272.375H661.75V162H482.125ZM453.265 133.14C458.798 127.608 466.301 124.5 474.125 124.5H669.75C677.574 124.5 685.077 127.608 690.61 133.14C696.142 138.673 699.25 146.176 699.25 154V280.482L699.249 280.589C699.16 288.329 696.047 295.726 690.574 301.199C685.101 306.672 677.704 309.785 669.964 309.874L669.857 309.875H647.25V549.25C647.25 559.991 642.983 570.293 635.388 577.888C627.793 585.483 617.491 589.75 606.75 589.75H457.304C456.978 597.807 458.497 605.894 461.821 613.371C466.465 623.815 474.351 632.44 484.259 638H529.875C540.23 638 548.625 646.395 548.625 656.75C548.625 667.105 540.23 675.5 529.875 675.5H218.125C207.77 675.5 199.375 667.105 199.375 656.75C199.375 646.395 207.77 638 218.125 638H273.291C283.095 632.391 290.872 623.762 295.425 613.35C298.697 605.868 300.163 597.789 299.787 589.75H141.25C130.509 589.75 120.207 585.483 112.612 577.888C105.017 570.293 100.75 559.991 100.75 549.25V223.125C100.75 212.384 105.017 202.082 112.612 194.487C120.207 186.892 130.509 182.625 141.25 182.625H444.625V154C444.625 146.176 447.733 138.673 453.265 133.14ZM444.625 220.125H141.25C140.454 220.125 139.691 220.441 139.129 221.004C138.566 221.566 138.25 222.329 138.25 223.125V471.125H170.39C174.207 449.469 184.58 429.332 200.329 413.561C220.55 393.311 247.982 381.915 276.599 381.875H276.612H276.625C305.275 381.875 332.754 393.246 353.027 413.491C368.828 429.269 379.244 449.432 383.09 471.125H609.75V309.875H570.707L511.884 351.445L511.693 351.573C508.777 353.528 505.393 354.677 501.885 354.901C498.38 355.124 494.877 354.413 491.735 352.842C488.593 351.271 485.923 348.895 483.998 345.957C482.073 343.018 480.961 339.621 480.776 336.114L480.75 335.62V309.875H474.018L473.911 309.874C466.171 309.785 458.774 306.672 453.301 301.199C447.828 295.726 444.715 288.329 444.626 280.589L444.625 280.482V220.125ZM609.75 508.625H138.25V549.25C138.25 550.046 138.566 550.809 139.129 551.371C139.691 551.934 140.454 552.25 141.25 552.25H606.75C607.546 552.25 608.309 551.934 608.871 551.371C609.434 550.809 609.75 550.046 609.75 549.25V508.625ZM344.681 471.125C341.447 459.466 335.241 448.725 326.53 440.026C313.289 426.804 295.343 419.377 276.631 419.375C257.958 419.406 240.059 426.845 226.864 440.059C218.181 448.754 212.001 459.483 208.789 471.125H344.681ZM337.311 589.75C337.671 602.923 335.144 616.118 329.783 628.376C328.332 631.694 326.69 634.907 324.869 638H432.409C430.617 634.979 428.995 631.844 427.555 628.606C422.082 616.295 419.472 603.018 419.786 589.75H337.311ZM276.625 289.75C262.611 289.75 251.25 301.111 251.25 315.125C251.25 329.139 262.611 340.5 276.625 340.5C290.639 340.5 302 329.139 302 315.125C302 301.111 290.639 289.75 276.625 289.75ZM213.75 315.125C213.75 280.4 241.9 252.25 276.625 252.25C311.35 252.25 339.5 280.4 339.5 315.125C339.5 349.85 311.35 378 276.625 378C241.9 378 213.75 349.85 213.75 315.125Z" fill="white"/>
</svg>
