<svg width="800" height="800" viewBox="0 0 800 800" fill="none" xmlns="http://www.w3.org/2000/svg">
<path d="M455.043 265.342C477.896 248.433 492.748 221.296 492.748 190.749C492.748 139.606 451.142 98 399.999 98C348.857 98 307.25 139.606 307.25 190.749C307.25 221.296 322.102 248.433 344.955 265.342C303.513 285.741 274.918 328.4 274.918 377.628V478.154C274.918 499.103 288.46 516.947 307.252 523.393V664.269C307.252 685.073 324.177 701.998 344.981 701.998H455.02C475.824 701.998 492.75 685.073 492.75 664.269V523.393C511.542 516.947 525.084 499.103 525.084 478.154V377.628C525.082 328.401 496.487 285.741 455.043 265.342ZM400.001 128.951C434.075 128.951 461.799 156.673 461.799 190.749C461.799 224.824 434.076 252.547 400.001 252.547C365.925 252.547 338.203 224.824 338.203 190.749C338.203 156.673 365.925 128.951 400.001 128.951ZM494.131 478.154C494.131 487.509 486.47 495.11 477.093 495.011C468.574 494.921 461.799 502.225 461.799 510.745V664.27C461.799 668.014 458.764 671.049 455.02 671.049H422.983C418.837 671.049 415.476 667.688 415.476 663.542V532.729C415.476 524.486 409.257 517.289 401.032 516.756C392.019 516.173 384.525 523.311 384.525 532.197V663.542C384.525 667.688 381.165 671.049 377.019 671.049H344.981C341.238 671.049 338.203 668.014 338.203 664.27V510.747C338.203 502.227 331.428 494.923 322.908 495.012C313.53 495.11 305.869 487.509 305.869 478.154V379.057C305.869 327.401 346.887 284.296 398.538 283.507C451.109 282.706 494.131 325.236 494.131 377.626V478.154Z" fill="white"/>
<path d="M188.798 305.248C202.711 292.55 211.455 274.279 211.455 254.003C211.455 215.741 180.327 184.614 142.065 184.614C103.803 184.614 72.6741 215.741 72.6741 254.003C72.6741 274.279 81.4186 292.55 95.3319 305.248C68.2921 321.276 50.1157 350.743 50.1157 384.39V454.53C50.1157 469.994 59.3945 483.332 72.6758 489.273V584.386C72.6758 601.481 86.5842 615.389 103.679 615.389H180.454C197.549 615.389 211.455 601.481 211.455 584.386V489.273C224.737 483.334 234.014 469.996 234.014 454.532V384.392C234.014 350.743 215.837 321.276 188.798 305.248ZM103.627 254.001C103.627 232.806 120.87 215.563 142.066 215.563C163.263 215.563 180.506 232.806 180.506 254.001C180.506 275.196 163.263 292.441 142.066 292.441C120.87 292.441 103.627 275.196 103.627 254.001ZM203.063 454.53C203.063 458.435 199.885 461.613 195.98 461.613C187.432 461.613 180.504 468.541 180.504 477.088L180.454 584.436L157.542 584.42V492.235C157.542 483.687 150.614 476.759 142.066 476.759C133.519 476.759 126.591 483.687 126.591 492.235V584.399L103.627 584.383V477.087C103.627 468.539 96.6987 461.611 88.1513 461.611C84.2449 461.611 81.0668 458.433 81.0668 454.528V384.388C81.0668 350.754 108.431 323.39 142.065 323.39C175.699 323.39 203.063 350.754 203.063 384.388V454.53Z" fill="white"/>
<path d="M704.668 305.248C718.582 292.55 727.326 274.279 727.326 254.003C727.326 215.741 696.197 184.614 657.935 184.614C619.673 184.614 588.545 215.741 588.545 254.003C588.545 274.279 597.289 292.55 611.203 305.248C584.163 321.276 565.986 350.743 565.986 384.39V454.53C565.986 469.994 575.265 483.332 588.546 489.273V584.386C588.546 601.481 602.455 615.389 619.55 615.389H696.324C713.419 615.389 727.326 601.481 727.326 584.386V489.273C740.607 483.334 749.886 469.996 749.886 454.53V384.39C749.884 350.743 731.708 321.276 704.668 305.248ZM619.496 254.001C619.496 232.806 636.739 215.563 657.935 215.563C679.132 215.563 696.375 232.806 696.375 254.001C696.375 275.196 679.132 292.441 657.935 292.441C636.739 292.441 619.496 275.196 619.496 254.001ZM718.933 454.53C718.933 458.435 715.755 461.613 711.849 461.613C703.301 461.613 696.373 468.541 696.373 477.088L696.323 584.436L673.411 584.42V492.235C673.411 483.687 666.483 476.759 657.935 476.759C649.388 476.759 642.46 483.687 642.46 492.235V584.399L619.496 584.383V477.087C619.496 468.539 612.568 461.611 604.02 461.611C600.114 461.611 596.936 458.433 596.936 454.528V384.388C596.936 350.754 624.3 323.39 657.934 323.39C691.568 323.39 718.932 350.754 718.932 384.388V454.53H718.933Z" fill="white"/>
</svg>
