<svg width="13" height="13" viewBox="0 0 13 13" fill="none" xmlns="http://www.w3.org/2000/svg">
<path d="M12.2072 3.82532C11.9001 3.0577 11.4396 2.39242 10.8766 1.8295C10.3137 1.26658 9.64844 0.806004 8.88082 0.498955C7.34557 -0.166318 5.50328 -0.166318 3.96803 0.498955C3.20041 0.806004 2.53514 1.26658 1.97221 1.8295C1.40929 2.39242 0.948715 3.0577 0.641666 3.82532C0.334617 4.59294 0.181091 5.41174 0.181091 6.28172C0.181091 7.15169 0.334616 7.97049 0.69284 8.73811C0.999889 9.50573 1.46047 10.171 2.02339 10.7339C2.58631 11.2969 3.25158 11.7574 4.01921 12.0645C4.78683 12.3715 5.60563 12.525 6.4756 12.525C7.34557 12.525 8.16437 12.3715 8.932 12.0645C9.69962 11.7574 10.3649 11.2969 10.9278 10.7339C11.4907 10.171 11.9513 9.50573 12.2584 8.73811C12.5654 7.97049 12.7189 7.15169 12.7189 6.28172C12.7189 5.41174 12.5142 4.59294 12.2072 3.82532ZM10.6208 6.23054C10.6208 6.79346 10.5184 7.35639 10.2625 7.86814C10.0578 8.37988 9.75079 8.84046 9.34139 9.19868C8.98317 9.55691 8.5226 9.86396 8.01085 10.0687C6.98735 10.4781 5.75915 10.4781 4.73566 10.0687C4.22391 9.86396 3.76333 9.55691 3.40511 9.19868C3.04689 8.84046 2.73983 8.37988 2.48396 7.86814C2.27926 7.35639 2.17691 6.79346 2.17691 6.23054C2.17691 5.66762 2.27926 5.10469 2.48396 4.59294C2.68866 4.0812 2.99571 3.62062 3.40511 3.2624C3.76333 2.90417 4.22391 2.59712 4.73566 2.34125C5.2474 2.13655 5.81033 2.0342 6.37325 2.0342C6.93618 2.0342 7.4991 2.13655 8.01085 2.34125C8.5226 2.54595 8.98317 2.853 9.34139 3.2624C9.69962 3.62062 10.0067 4.0812 10.2625 4.59294C10.5184 5.15587 10.6208 5.66762 10.6208 6.23054Z" fill="#FA8072"/>
<path d="M10.9403 4.49207C10.7022 3.89616 10.345 3.37971 9.90849 2.94271C9.47194 2.50571 8.95601 2.14816 8.36071 1.9098C7.17011 1.39335 5.74139 1.39335 4.55079 1.9098C3.9555 2.14816 3.43957 2.50571 3.00302 2.94271C2.56646 3.37971 2.20928 3.89616 1.97116 4.49207C1.73304 5.08797 1.61398 5.72361 1.61398 6.39897C1.61398 7.07433 1.73304 7.70997 2.01085 8.30588C2.24897 8.90178 2.60615 9.41824 3.0427 9.85523C3.47926 10.2922 3.99518 10.6498 4.59048 10.8881C5.18578 11.1265 5.82077 11.2457 6.49544 11.2457C7.17011 11.2457 7.8051 11.1265 8.4004 10.8881C8.9957 10.6498 9.51162 10.2922 9.94818 9.85523C10.3847 9.41824 10.7419 8.90178 10.98 8.30588C11.2182 7.70997 11.3372 7.07433 11.3372 6.39897C11.3372 5.72361 11.1785 5.08797 10.9403 4.49207ZM9.71006 6.35924C9.71006 6.79624 9.63068 7.23324 9.43225 7.63051C9.2735 8.02778 9.03538 8.38533 8.71789 8.66342C8.44008 8.94151 8.08291 9.17987 7.68604 9.33878C6.89231 9.6566 5.93983 9.6566 5.14609 9.33878C4.74923 9.17987 4.39205 8.94151 4.11424 8.66342C3.83644 8.38533 3.59831 8.02778 3.39988 7.63051C3.24114 7.23324 3.16176 6.79624 3.16176 6.35924C3.16176 5.92225 3.24114 5.48525 3.39988 5.08797C3.55863 4.6907 3.79675 4.33316 4.11424 4.05507C4.39205 3.77698 4.74923 3.53861 5.14609 3.33998C5.54296 3.18107 5.97952 3.10162 6.41607 3.10162C6.85262 3.10162 7.28917 3.18107 7.68604 3.33998C8.08291 3.49889 8.44008 3.73725 8.71789 4.05507C8.9957 4.33316 9.23382 4.6907 9.43225 5.08797C9.63068 5.52497 9.71006 5.92225 9.71006 6.35924Z" fill="#FA8072"/>
</svg>
