<svg width="32" height="32" viewBox="0 0 32 32" fill="none" xmlns="http://www.w3.org/2000/svg">
<path d="M0 14.893C9.06208e-05 15.3173 0.168723 15.7242 0.468805 16.0242L15.9762 31.5315C16.2762 31.8315 16.6831 32 17.1074 32C17.5317 32 17.9385 31.8315 18.2386 31.5315L31.5315 18.2402C31.8315 17.9401 32 17.5332 32 17.109C32 16.6847 31.8315 16.2778 31.5315 15.9778L16.0242 0.468805C15.7242 0.168723 15.3173 9.06208e-05 14.893 0H1.60002C1.17567 0 0.768695 0.168573 0.468634 0.468634C0.168573 0.768695 0 1.17567 0 1.60002V14.893ZM3.20003 3.20003H14.2306L28.1379 17.1074L17.1074 28.1379L3.20003 14.2306V3.20003ZM12.6769 8.24649C13.1151 8.68462 13.4135 9.24284 13.5343 9.85055C13.6552 10.4583 13.5932 11.0882 13.3561 11.6606C13.119 12.2331 12.7174 12.7224 12.2022 13.0666C11.687 13.4109 11.0813 13.5946 10.4617 13.5946C9.84209 13.5946 9.23639 13.4109 8.7212 13.0666C8.206 12.7224 7.80446 12.2331 7.56734 11.6606C7.33023 11.0882 7.26819 10.4583 7.38908 9.85055C7.50997 9.24284 7.80835 8.68462 8.24649 8.24649C8.53729 7.95539 8.88261 7.72447 9.26272 7.56691C9.64282 7.40936 10.0502 7.32826 10.4617 7.32826C10.8732 7.32826 11.2806 7.40936 11.6607 7.56691C12.0408 7.72447 12.3861 7.95539 12.6769 8.24649Z" fill="url(#paint0_linear_215_31)"/>
<defs>
<linearGradient id="paint0_linear_215_31" x1="16" y1="0" x2="16" y2="32" gradientUnits="userSpaceOnUse">
<stop stop-color="#A16C2B"/>
<stop offset="0.490385" stop-color="#D8B056"/>
<stop offset="1" stop-color="#A16C2B"/>
</linearGradient>
</defs>
</svg>
