<svg width="732" height="734" viewBox="0 0 732 734" fill="none" xmlns="http://www.w3.org/2000/svg">
<path fill-rule="evenodd" clip-rule="evenodd" d="M231.667 67C231.667 103.819 201.819 133.667 165 133.667C143.841 133.667 124.983 123.809 112.771 108.435L87.792 116.761C73.785 121.43 66.479 133.46 67.562 145.097C72.057 193.381 84.103 268.14 115.221 329.84C145.864 390.593 191.847 433.667 264.999 433.667C338.15 433.667 384.133 390.593 414.777 329.84C445.897 268.14 457.943 193.381 462.437 145.097C463.52 133.46 456.217 121.43 442.207 116.761L417.23 108.435C405.017 123.809 386.16 133.667 365 133.667C328.18 133.667 298.333 103.819 298.333 67C298.333 30.181 328.18 0.333374 365 0.333374C392.693 0.333374 416.443 17.2197 426.517 41.2574L463.29 53.5157C503.727 66.995 533.053 105.769 528.817 151.276C524.063 202.342 511.057 286.99 474.303 359.86C440.987 425.913 385.67 486.237 297.468 498.193C298.813 516.743 301.753 537.507 307.51 557.973C315.847 587.62 329.513 614.623 350.777 634.063C371.363 652.883 401.623 666.997 448.337 666.997C495.047 666.997 525.31 652.883 545.893 634.063C567.16 614.62 580.823 587.62 589.163 557.973C599.163 522.417 600.643 485.547 600.07 461.907C560.327 448.68 531.667 411.187 531.667 367C531.667 311.77 576.44 267 631.667 267C686.897 267 731.667 311.77 731.667 367C731.667 409.893 704.663 446.477 666.727 460.68C667.37 488.227 665.87 531.47 653.34 576.023C642.927 613.04 624.303 652.707 590.88 683.263C556.777 714.443 509.957 733.663 448.337 733.663C386.717 733.663 339.893 714.443 305.793 683.263C272.369 652.707 253.744 613.04 243.332 576.023C235.562 548.393 232.042 521.107 230.637 497.927C143.536 485.37 88.772 425.44 55.697 359.86C18.944 286.99 5.93601 202.342 1.18271 151.276C-3.05339 105.769 26.2727 66.995 66.71 53.5157L103.485 41.2574C113.556 17.2197 137.306 0.333374 165 0.333374C201.819 0.333374 231.667 30.181 231.667 67ZM631.667 401.277C612.737 401.277 597.39 385.93 597.39 367C597.39 348.07 612.737 332.723 631.667 332.723C650.597 332.723 665.943 348.07 665.943 367C665.943 385.93 650.597 401.277 631.667 401.277Z" fill="#F39F95"/>
</svg>
