<svg width="800" height="800" viewBox="0 0 800 800" fill="none" xmlns="http://www.w3.org/2000/svg">
<path fill-rule="evenodd" clip-rule="evenodd" d="M266.667 100C266.667 136.819 236.819 166.667 200 166.667C178.841 166.667 159.983 156.809 147.771 141.435L122.792 149.761C108.785 154.43 101.479 166.46 102.562 178.097C107.057 226.381 119.103 301.14 150.221 362.84C180.864 423.593 226.847 466.667 299.999 466.667C373.15 466.667 419.133 423.593 449.777 362.84C480.897 301.14 492.943 226.381 497.437 178.097C498.52 166.46 491.217 154.43 477.207 149.761L452.23 141.435C440.017 156.809 421.16 166.667 400 166.667C363.18 166.667 333.333 136.819 333.333 100C333.333 63.181 363.18 33.3334 400 33.3334C427.693 33.3334 451.443 50.2197 461.517 74.2574L498.29 86.5157C538.727 99.995 568.053 138.769 563.817 184.276C559.063 235.342 546.057 319.99 509.303 392.86C475.987 458.913 420.67 519.237 332.468 531.193C333.813 549.743 336.753 570.507 342.51 590.973C350.847 620.62 364.513 647.623 385.777 667.063C406.363 685.883 436.623 699.997 483.337 699.997C530.047 699.997 560.31 685.883 580.893 667.063C602.16 647.62 615.823 620.62 624.163 590.973C634.163 555.417 635.643 518.547 635.07 494.907C595.327 481.68 566.667 444.187 566.667 400C566.667 344.77 611.44 300 666.667 300C721.897 300 766.667 344.77 766.667 400C766.667 442.893 739.663 479.477 701.727 493.68C702.37 521.227 700.87 564.47 688.34 609.023C677.927 646.04 659.303 685.707 625.88 716.263C591.777 747.443 544.957 766.663 483.337 766.663C421.717 766.663 374.893 747.443 340.793 716.263C307.369 685.707 288.744 646.04 278.332 609.023C270.562 581.393 267.042 554.107 265.637 530.927C178.536 518.37 123.772 458.44 90.697 392.86C53.944 319.99 40.936 235.342 36.1827 184.276C31.9466 138.769 61.2727 99.995 101.71 86.5157L138.485 74.2574C148.556 50.2197 172.306 33.3334 200 33.3334C236.819 33.3334 266.667 63.181 266.667 100ZM666.667 434.277C647.737 434.277 632.39 418.93 632.39 400C632.39 381.07 647.737 365.723 666.667 365.723C685.597 365.723 700.943 381.07 700.943 400C700.943 418.93 685.597 434.277 666.667 434.277Z" fill="#FA8072"/>
</svg>
