<svg width="32" height="32" viewBox="0 0 32 32" fill="none" xmlns="http://www.w3.org/2000/svg">
<path d="M28.4879 23.5163C27.4867 22.5143 26.3169 21.6965 25.0319 21.1003C26.8439 19.6324 27.9999 17.3924 27.9999 14.8805C27.9999 10.4486 24.3039 6.81274 19.872 6.88074C15.508 6.94874 11.992 10.5046 11.992 14.8805C11.992 17.3924 13.152 19.6324 14.96 21.1003C13.6748 21.696 12.5049 22.5139 11.504 23.5163C9.32004 25.7042 8.08005 28.5921 8.00005 31.672C7.99898 31.7147 8.00647 31.7572 8.02207 31.7969C8.03768 31.8367 8.06108 31.8729 8.0909 31.9035C8.12072 31.934 8.15636 31.9583 8.19571 31.9749C8.23507 31.9915 8.27734 32 8.32005 32H10.56C10.732 32 10.876 31.864 10.88 31.692C10.956 29.3721 11.896 27.2001 13.548 25.5522C14.3934 24.7024 15.3989 24.0286 16.5064 23.57C17.6138 23.1114 18.8013 22.8769 20 22.8803C22.436 22.8803 24.7279 23.8282 26.4519 25.5522C28.0999 27.2001 29.0399 29.3721 29.1199 31.692C29.1239 31.864 29.2679 32 29.4399 32H31.6799C31.7226 32 31.7649 31.9915 31.8042 31.9749C31.8436 31.9583 31.8792 31.934 31.909 31.9035C31.9389 31.8729 31.9623 31.8367 31.9779 31.7969C31.9935 31.7572 32.001 31.7147 31.9999 31.672C31.9199 28.5921 30.6799 25.7042 28.4879 23.5163ZM20 20.0004C18.632 20.0004 17.344 19.4684 16.38 18.5004C15.8962 18.0204 15.5141 17.4479 15.2564 16.8171C14.9986 16.1862 14.8706 15.5099 14.88 14.8285C14.892 13.5165 15.416 12.2486 16.332 11.3086C17.292 10.3246 18.576 9.77665 19.948 9.76065C21.304 9.74865 22.62 10.2766 23.588 11.2246C24.5799 12.1966 25.1239 13.4965 25.1239 14.8805C25.1239 16.2485 24.5919 17.5324 23.624 18.5004C23.149 18.9776 22.5842 19.3558 21.9622 19.6133C21.3401 19.8708 20.6732 20.0023 20 20.0004ZM9.98004 15.9365C9.94404 15.5885 9.92404 15.2365 9.92404 14.8805C9.92404 14.2445 9.98404 13.6245 10.096 13.0206C10.124 12.8766 10.048 12.7286 9.91604 12.6686C9.37204 12.4246 8.87204 12.0886 8.44005 11.6646C7.93101 11.171 7.53045 10.5768 7.26391 9.91978C6.99738 9.26276 6.87074 8.55741 6.89206 7.84871C6.92806 6.56475 7.44405 5.34478 8.34405 4.42481C9.33204 3.41284 10.66 2.86085 12.072 2.87685C13.348 2.88885 14.58 3.38084 15.512 4.25281C15.828 4.54881 16.1 4.8768 16.328 5.22879C16.408 5.35278 16.564 5.40478 16.7 5.35678C17.404 5.11279 18.148 4.94079 18.912 4.8608C19.136 4.8368 19.264 4.5968 19.164 4.39681C17.864 1.82488 15.208 0.0489371 12.136 0.000938522C7.70005 -0.0670595 4.00408 3.56883 4.00408 7.9967C4.00408 10.5086 5.16007 12.7486 6.97206 14.2165C5.70006 14.8045 4.52807 15.6165 3.51208 16.6325C1.32009 18.8204 0.0800995 21.7083 0.000100023 24.7922C-0.00096759 24.8349 0.00652047 24.8774 0.0221232 24.9171C0.0377259 24.9569 0.0611275 24.9931 0.0909491 25.0237C0.120771 25.0542 0.156409 25.0785 0.195764 25.0951C0.235119 25.1117 0.277394 25.1202 0.320098 25.1202H2.56408C2.73608 25.1202 2.88008 24.9842 2.88408 24.8122C2.96008 22.4923 3.90008 20.3203 5.55207 18.6724C6.72806 17.4964 8.16805 16.6804 9.74004 16.2845C9.89604 16.2445 10 16.0965 9.98004 15.9365Z" fill="url(#paint0_linear_215_30)"/>
<defs>
<linearGradient id="paint0_linear_215_30" x1="16" y1="0" x2="16" y2="32" gradientUnits="userSpaceOnUse">
<stop stop-color="#A16C2B"/>
<stop offset="0.490385" stop-color="#D8B056"/>
<stop offset="1" stop-color="#A16C2B"/>
</linearGradient>
</defs>
</svg>
