<svg width="54" height="51" viewBox="0 0 54 51" fill="none" xmlns="http://www.w3.org/2000/svg">
<path fill-rule="evenodd" clip-rule="evenodd" d="M47.6 33.2C45.3 31.8 42.3 30.3 39.6 31.4C37.5 32.2 36.2 35.5 34.9 37.1C34.2 38 33.4 38.1 32.3 37.7C24.5 34.6 18.6 29.4 14.3 22.3C13.6 21.2 13.7 20.3 14.6 19.3C15.9 17.8 17.5 16 17.9 14C18.3 11.9 17.3 9.49999 16.4 7.69999C15.3 5.39999 14.1 1.99999 11.8 0.699988C9.6 -0.500012 6.8 0.199988 4.9 1.69999C1.6 4.39999 0 8.59999 0 12.8C0 14 0.2 15.2 0.4 16.3C1.1 19.1 2.3 21.6 3.8 24.1C4.9 26 6.1 27.7 7.3 29.5C11.5 35.2 16.6 40.1 22.6 43.7C25.6 45.5 28.8 47.1 32.2 48.2C35.9 49.4 39.3 50.7 43.3 50C47.5 49.2 51.7 46.6 53.4 42.5C53.9 41.3 54.1 39.9 53.9 38.7C53.3 36 49.8 34.5 47.6 33.2Z" fill="white"/>
</svg>
