<svg width="32" height="35" viewBox="0 0 32 35" fill="none" xmlns="http://www.w3.org/2000/svg">
<path d="M26.9474 20C26.9474 13.5567 21.6691 8.33331 15.1579 8.3333C8.64675 8.3333 3.36839 13.5567 3.36839 20C3.3684 26.4433 8.64675 31.6667 15.1579 31.6667C21.6691 31.6666 26.9473 26.4433 26.9474 20ZM13.4737 20V13.3333C13.4737 12.4128 14.2277 11.6667 15.1579 11.6667C16.088 11.6667 16.8421 12.4128 16.8421 13.3333V20C16.8421 20.9205 16.088 21.6666 15.1579 21.6667C14.2277 21.6667 13.4737 20.9205 13.4737 20ZM25.7564 3.82148C26.4039 3.18078 27.4473 3.17077 28.1071 3.79146L28.1383 3.82148L31.5067 7.15479L31.5371 7.1856C32.1643 7.83854 32.1541 8.87111 31.5067 9.51182C30.8593 10.1525 29.8158 10.1625 29.156 9.54185L29.1249 9.51182L25.7564 6.17852L25.7261 6.14771C25.0989 5.49476 25.109 4.46219 25.7564 3.82148ZM18.5263 0L18.5698 0.000537109C19.4798 0.0233461 20.2105 0.760553 20.2105 1.66665C20.2105 2.57275 19.4798 3.30995 18.5698 3.33276L18.5263 3.3333H11.7895C10.8593 3.3333 10.1053 2.58712 10.1053 1.66665C10.1053 0.746176 10.8593 0 11.7895 0H18.5263ZM30.3158 20C30.3158 28.2843 23.5294 35 15.1579 35C6.78643 35 9.16687e-06 28.2843 0 20C0 11.7157 6.78642 5 15.1579 5C23.5294 5.00001 30.3158 11.7157 30.3158 20Z" fill="url(#paint0_linear_215_27)"/>
<defs>
<linearGradient id="paint0_linear_215_27" x1="16" y1="0" x2="16" y2="35" gradientUnits="userSpaceOnUse">
<stop stop-color="#A16C2B"/>
<stop offset="0.490385" stop-color="#D8B056"/>
<stop offset="1" stop-color="#A16C2B"/>
</linearGradient>
</defs>
</svg>
