<svg width="800" height="800" viewBox="0 0 800 800" fill="none" xmlns="http://www.w3.org/2000/svg">
<path d="M324.499 702H123.167C116.492 702 110.091 699.349 105.371 694.631C100.651 689.913 98 683.513 98 676.84C98 670.168 100.651 663.768 105.371 659.05C110.091 654.331 116.492 651.681 123.167 651.681H324.499C331.173 651.681 337.574 654.331 342.294 659.05C347.014 663.768 349.665 670.168 349.665 676.84C349.665 683.513 347.014 689.913 342.294 694.631C337.574 699.349 331.173 702 324.499 702ZM274.166 601.361H123.167C116.492 601.361 110.091 598.711 105.371 593.992C100.651 589.274 98 582.875 98 576.202C98 569.529 100.651 563.13 105.371 558.411C110.091 553.693 116.492 551.042 123.167 551.042H274.166C280.84 551.042 287.241 553.693 291.961 558.411C296.681 563.13 299.332 569.529 299.332 576.202C299.332 582.875 296.681 589.274 291.961 593.992C287.241 598.711 280.84 601.361 274.166 601.361ZM223.833 500.723H123.167C116.492 500.723 110.091 498.072 105.371 493.354C100.651 488.635 98 482.236 98 475.563C98 468.89 100.651 462.491 105.371 457.773C110.091 453.054 116.492 450.404 123.167 450.404H223.833C230.507 450.404 236.908 453.054 241.628 457.773C246.348 462.491 248.999 468.89 248.999 475.563C248.999 482.236 246.348 488.635 241.628 493.354C236.908 498.072 230.507 500.723 223.833 500.723ZM425.165 700.868C418.49 701.165 411.971 698.799 407.041 694.29C402.111 689.782 399.175 683.501 398.878 676.828C398.581 670.155 400.948 663.638 405.457 658.709C409.967 653.781 416.25 650.845 422.925 650.549C470.551 646.192 515.95 628.358 553.804 599.137C591.658 569.915 620.399 530.515 636.662 485.552C652.925 440.589 656.035 391.924 645.629 345.257C635.223 298.59 611.732 255.853 577.907 222.052C544.081 188.252 501.322 164.786 454.637 154.405C407.953 144.023 359.276 147.155 314.308 163.434C269.34 179.713 229.942 208.465 200.73 246.322C171.518 284.179 153.701 329.574 149.365 377.189C149.067 380.48 148.125 383.68 146.59 386.606C145.056 389.533 142.96 392.129 140.422 394.245C137.884 396.362 134.954 397.958 131.799 398.943C128.644 399.927 125.326 400.281 122.034 399.984C118.742 399.686 115.541 398.744 112.614 397.21C109.687 395.676 107.09 393.58 104.973 391.043C102.856 388.506 101.259 385.576 100.274 382.422C99.2895 379.268 98.9357 375.951 99.2332 372.66C106.252 295.252 142.862 223.532 201.443 172.429C260.023 121.326 336.061 94.7788 413.728 98.3124C491.394 101.846 564.706 135.189 618.401 191.399C672.097 247.61 702.039 322.359 701.996 400.084C702.382 475.522 674.349 548.34 623.474 604.054C572.599 659.768 502.61 694.295 427.43 700.767C426.675 700.843 425.894 700.868 425.165 700.868ZM399.998 249.126C393.323 249.126 386.922 251.777 382.203 256.496C377.483 261.214 374.832 267.613 374.832 274.286V400.084C374.833 406.757 377.485 413.155 382.205 417.872L457.705 493.351C462.451 497.934 468.808 500.47 475.407 500.413C482.006 500.355 488.318 497.709 492.984 493.045C497.65 488.38 500.296 482.069 500.354 475.473C500.411 468.876 497.875 462.521 493.29 457.775L425.165 389.668V274.286C425.165 267.613 422.513 261.214 417.793 256.496C413.074 251.777 406.673 249.126 399.998 249.126Z" fill="white"/>
</svg>
