<svg width="20" height="20" viewBox="0 0 20 20" fill="none" xmlns="http://www.w3.org/2000/svg">
<path d="M0 19.7778L1.42857 14.4762C0.603175 13.0159 0.190476 11.3968 0.190476 9.77778C0.190476 4.38095 4.57143 0 9.96825 0C15.3651 0 19.746 4.38095 19.746 9.77778C19.746 15.1746 15.3651 19.5556 9.96825 19.5556C8.34921 19.5556 6.7619 19.1429 5.33333 18.381L0 19.7778ZM5.5873 16.3492L5.93651 16.5397C7.1746 17.2698 8.57143 17.6508 9.96825 17.6508C14.3492 17.6508 17.873 14.0952 17.873 9.74603C17.873 5.39683 14.3175 1.84127 9.96825 1.84127C5.5873 1.84127 2.03175 5.39682 2.03175 9.77778C2.03175 11.2063 2.44444 12.6349 3.1746 13.873L3.36508 14.2222L2.60317 17.1429L5.5873 16.3492Z" fill="url(#paint0_linear_229_44)"/>
<path fill-rule="evenodd" clip-rule="evenodd" d="M13.5873 11.1111C13.1746 10.8571 12.6667 10.6032 12.1905 10.7937C11.8413 10.9524 11.5873 11.5238 11.3651 11.8095C11.2381 11.9683 11.1111 11.9683 10.9206 11.9048C9.55556 11.3651 8.50794 10.4444 7.74603 9.20635C7.61905 9.01587 7.65079 8.85714 7.80952 8.66667C8.03175 8.4127 8.31746 8.09524 8.38095 7.74603C8.44444 7.39683 8.28571 6.95238 8.12698 6.63492C7.93651 6.22222 7.71429 5.65079 7.30159 5.39683C6.92064 5.1746 6.4127 5.30159 6.09524 5.5873C5.52381 6.06349 5.2381 6.79365 5.2381 7.52381C5.2381 7.74603 5.26984 7.93651 5.30159 8.12698C5.42857 8.60318 5.65079 9.07937 5.90476 9.49206C6.09524 9.80952 6.28571 10.127 6.53968 10.4444C7.26984 11.4286 8.19048 12.2857 9.2381 12.9524C9.77778 13.2698 10.3175 13.5556 10.9206 13.746C11.5873 13.9683 12.1587 14.1905 12.8571 14.0635C13.5873 13.9365 14.3175 13.4603 14.6349 12.7619C14.7302 12.5397 14.7619 12.3175 14.7302 12.0952C14.5714 11.619 13.9683 11.3333 13.5873 11.1111Z" fill="url(#paint1_linear_229_44)"/>
<defs>
<linearGradient id="paint0_linear_229_44" x1="0" y1="9.88889" x2="19.746" y2="9.88889" gradientUnits="userSpaceOnUse">
<stop stop-color="#8B5C23"/>
<stop offset="0.525023" stop-color="#AE8339"/>
<stop offset="1" stop-color="#8B5C23"/>
</linearGradient>
<linearGradient id="paint1_linear_229_44" x1="0" y1="9.88889" x2="19.746" y2="9.88889" gradientUnits="userSpaceOnUse">
<stop stop-color="#8B5C23"/>
<stop offset="0.525023" stop-color="#AE8339"/>
<stop offset="1" stop-color="#8B5C23"/>
</linearGradient>
</defs>
</svg>
