<svg width="20" height="20" viewBox="0 0 20 20" fill="none" xmlns="http://www.w3.org/2000/svg">
<g clip-path="url(#clip0_286_2)">
<path d="M0 19.7778L1.42857 14.4762C0.603175 13.0159 0.190476 11.3968 0.190476 9.77778C0.190476 4.38095 4.57143 0 9.96825 0C15.3651 0 19.746 4.38095 19.746 9.77778C19.746 15.1746 15.3651 19.5556 9.96825 19.5556C8.34921 19.5556 6.7619 19.1429 5.33333 18.381L0 19.7778ZM5.5873 16.3492L5.93651 16.5397C7.1746 17.2698 8.57143 17.6508 9.96825 17.6508C14.3492 17.6508 17.873 14.0952 17.873 9.74603C17.873 5.39683 14.3175 1.84127 9.96825 1.84127C5.5873 1.84127 2.03175 5.39682 2.03175 9.77778C2.03175 11.2063 2.44444 12.6349 3.1746 13.873L3.36508 14.2222L2.60317 17.1429L5.5873 16.3492Z" fill="#F7F8FD"/>
<path fill-rule="evenodd" clip-rule="evenodd" d="M13.5874 11.1111C13.1747 10.8571 12.6668 10.6032 12.1906 10.7937C11.8414 10.9524 11.5874 11.5238 11.3652 11.8095C11.2382 11.9683 11.1112 11.9683 10.9207 11.9048C9.55562 11.3651 8.508 10.4444 7.74609 9.20639C7.61911 9.01591 7.65085 8.85718 7.80958 8.66671C8.03181 8.41274 8.31752 8.09528 8.38101 7.74607C8.4445 7.39687 8.28577 6.95242 8.12704 6.63496C7.93657 6.22226 7.71435 5.65083 7.30165 5.39687C6.9207 5.17464 6.41276 5.30163 6.0953 5.58734C5.52387 6.06353 5.23816 6.79369 5.23816 7.52385C5.23816 7.74607 5.2699 7.93655 5.30165 8.12702C5.42863 8.60322 5.65085 9.0794 5.90482 9.49209C6.0953 9.80955 6.28577 10.127 6.53974 10.4444C7.2699 11.4286 8.19054 12.2857 9.23816 12.9524C9.77784 13.2698 10.3176 13.5556 10.9207 13.746C11.5874 13.9683 12.1588 14.1905 12.8572 14.0635C13.5874 13.9365 14.3176 13.4603 14.635 12.7619C14.7303 12.5397 14.762 12.3175 14.7303 12.0952C14.5715 11.619 13.9684 11.3333 13.5874 11.1111Z" fill="#F7F8FD"/>
</g>
<defs>
<clipPath id="clip0_286_2">
<rect width="20" height="20" fill="white"/>
</clipPath>
</defs>
</svg>
