<svg width="24" height="24" viewBox="0 0 24 24" fill="none" xmlns="http://www.w3.org/2000/svg">
<g clip-path="url(#clip0_249_35)">
<path d="M0 23.7334L1.71428 17.3714C0.72381 15.6191 0.228571 13.6762 0.228571 11.7333C0.228571 5.25714 5.48572 0 11.9619 0C18.4381 0 23.6952 5.25714 23.6952 11.7333C23.6952 18.2095 18.4381 23.4667 11.9619 23.4667C10.0191 23.4667 8.11428 22.9715 6.4 22.0572L0 23.7334ZM6.70476 19.619L7.12381 19.8476C8.60952 20.7238 10.2857 21.181 11.9619 21.181C17.219 21.181 21.4476 16.9142 21.4476 11.6952C21.4476 6.4762 17.181 2.20952 11.9619 2.20952C6.70476 2.20952 2.4381 6.47618 2.4381 11.7333C2.4381 13.4476 2.93333 15.1619 3.80952 16.6476L4.0381 17.0666L3.1238 20.5715L6.70476 19.619Z" fill="#7B8AC2"/>
<path fill-rule="evenodd" clip-rule="evenodd" d="M16.3048 13.3333C15.8096 13.0285 15.2001 12.7238 14.6286 12.9524C14.2096 13.1428 13.9048 13.8285 13.6382 14.1713C13.4858 14.3619 13.3334 14.3619 13.1048 14.2857C11.4667 13.6381 10.2096 12.5332 9.29528 11.0476C9.14291 10.819 9.18099 10.6285 9.37147 10.3999C9.63815 10.0952 9.981 9.71423 10.0572 9.29518C10.1334 8.87614 9.9429 8.3428 9.75242 7.96185C9.52386 7.46661 9.25719 6.78089 8.76195 6.47614C8.30481 6.20947 7.69529 6.36185 7.31433 6.7047C6.62862 7.27613 6.28577 8.15232 6.28577 9.02852C6.28577 9.29518 6.32385 9.52376 6.36195 9.75232C6.51433 10.3238 6.78099 10.8952 7.08576 11.3904C7.31433 11.7714 7.5429 12.1523 7.84766 12.5332C8.72385 13.7143 9.82862 14.7428 11.0858 15.5428C11.7334 15.9237 12.381 16.2667 13.1048 16.4951C13.9048 16.7619 14.5905 17.0285 15.4286 16.8761C16.3048 16.7237 17.181 16.1523 17.5619 15.3142C17.6763 15.0476 17.7143 14.7809 17.6763 14.5142C17.4857 13.9427 16.762 13.5999 16.3048 13.3333Z" fill="#7B8AC2"/>
</g>
<defs>
<clipPath id="clip0_249_35">
<rect width="24" height="24" fill="white"/>
</clipPath>
</defs>
</svg>
