<svg width="19" height="19" viewBox="0 0 19 19" fill="none" xmlns="http://www.w3.org/2000/svg">
<path d="M18.0793 15.8412L3.3716 1.13352C2.74677 0.508689 1.73372 0.508689 1.10888 1.13352C0.484052 1.75835 0.484052 2.77141 1.10888 3.39624L15.8166 18.1039C16.4414 18.7288 17.4545 18.7288 18.0793 18.1039C18.7041 17.4791 18.7041 16.466 18.0793 15.8412Z" fill="url(#paint0_linear_229_11)"/>
<path d="M15.8155 1.13122L1.10778 15.8389C0.482952 16.4637 0.482952 17.4768 1.10778 18.1016C1.73262 18.7265 2.74567 18.7265 3.3705 18.1016L18.0782 3.39394C18.703 2.76911 18.703 1.75605 18.0782 1.13122C17.4534 0.506389 16.4403 0.50639 15.8155 1.13122Z" fill="url(#paint1_linear_229_11)"/>
<defs>
<linearGradient id="paint0_linear_229_11" x1="0.63916" y1="9.61757" x2="18.5479" y2="9.61757" gradientUnits="userSpaceOnUse">
<stop stop-color="#8B5C23"/>
<stop offset="0.25" stop-color="#AE8339"/>
<stop offset="0.5" stop-color="#D1AA4F"/>
<stop offset="1" stop-color="#8B5C23"/>
</linearGradient>
<linearGradient id="paint1_linear_229_11" x1="0.63916" y1="9.61757" x2="18.5479" y2="9.61757" gradientUnits="userSpaceOnUse">
<stop stop-color="#8B5C23"/>
<stop offset="0.25" stop-color="#AE8339"/>
<stop offset="0.5" stop-color="#D1AA4F"/>
<stop offset="1" stop-color="#8B5C23"/>
</linearGradient>
</defs>
</svg>
