<svg width="41" height="41" viewBox="0 0 41 41" fill="none" xmlns="http://www.w3.org/2000/svg">
<g clip-path="url(#clip0_19_2)">
<path d="M29.9615 3.15385C30.3798 3.15385 30.7809 2.98771 31.0766 2.69198C31.3723 2.39625 31.5385 1.99515 31.5385 1.57692C31.5385 1.1587 31.3723 0.757601 31.0766 0.46187C30.7809 0.16614 30.3798 0 29.9615 0C29.5433 0 29.1422 0.16614 28.8465 0.46187C28.5508 0.757601 28.3846 1.1587 28.3846 1.57692C28.3846 1.99515 28.5508 2.39625 28.8465 2.69198C29.1422 2.98771 29.5433 3.15385 29.9615 3.15385ZM39.4231 3.15385C39.8413 3.15385 40.2424 2.98771 40.5381 2.69198C40.8339 2.39625 41 1.99515 41 1.57692C41 1.1587 40.8339 0.757601 40.5381 0.46187C40.2424 0.16614 39.8413 0 39.4231 0C39.0049 0 38.6038 0.16614 38.308 0.46187C38.0123 0.757601 37.8462 1.1587 37.8462 1.57692C37.8462 1.99515 38.0123 2.39625 38.308 2.69198C38.6038 2.98771 39.0049 3.15385 39.4231 3.15385ZM11.0385 12.6154C11.4567 12.6154 11.8578 12.4492 12.1535 12.1535C12.4492 11.8578 12.6154 11.4567 12.6154 11.0385C12.6154 10.6202 12.4492 10.2191 12.1535 9.92341C11.8578 9.62768 11.4567 9.46154 11.0385 9.46154C10.6202 9.46154 10.2191 9.62768 9.92341 9.92341C9.62768 10.2191 9.46154 10.6202 9.46154 11.0385C9.46154 11.4567 9.62768 11.8578 9.92341 12.1535C10.2191 12.4492 10.6202 12.6154 11.0385 12.6154ZM20.5 12.6154C20.9182 12.6154 21.3193 12.4492 21.6151 12.1535C21.9108 11.8578 22.0769 11.4567 22.0769 11.0385C22.0769 10.6202 21.9108 10.2191 21.6151 9.92341C21.3193 9.62768 20.9182 9.46154 20.5 9.46154C20.0818 9.46154 19.6807 9.62768 19.3849 9.92341C19.0892 10.2191 18.9231 10.6202 18.9231 11.0385C18.9231 11.4567 19.0892 11.8578 19.3849 12.1535C19.6807 12.4492 20.0818 12.6154 20.5 12.6154ZM29.9615 12.6154C30.3798 12.6154 30.7809 12.4492 31.0766 12.1535C31.3723 11.8578 31.5385 11.4567 31.5385 11.0385C31.5385 10.6202 31.3723 10.2191 31.0766 9.92341C30.7809 9.62768 30.3798 9.46154 29.9615 9.46154C29.5433 9.46154 29.1422 9.62768 28.8465 9.92341C28.5508 10.2191 28.3846 10.6202 28.3846 11.0385C28.3846 11.4567 28.5508 11.8578 28.8465 12.1535C29.1422 12.4492 29.5433 12.6154 29.9615 12.6154ZM39.4231 12.6154C39.8413 12.6154 40.2424 12.4492 40.5381 12.1535C40.8339 11.8578 41 11.4567 41 11.0385C41 10.6202 40.8339 10.2191 40.5381 9.92341C40.2424 9.62768 39.8413 9.46154 39.4231 9.46154C39.0049 9.46154 38.6038 9.62768 38.308 9.92341C38.0123 10.2191 37.8462 10.6202 37.8462 11.0385C37.8462 11.4567 38.0123 11.8578 38.308 12.1535C38.6038 12.4492 39.0049 12.6154 39.4231 12.6154ZM11.0385 22.0769C11.4567 22.0769 11.8578 21.9108 12.1535 21.6151C12.4492 21.3193 12.6154 20.9182 12.6154 20.5C12.6154 20.0818 12.4492 19.6807 12.1535 19.3849C11.8578 19.0892 11.4567 18.9231 11.0385 18.9231C10.6202 18.9231 10.2191 19.0892 9.92341 19.3849C9.62768 19.6807 9.46154 20.0818 9.46154 20.5C9.46154 20.9182 9.62768 21.3193 9.92341 21.6151C10.2191 21.9108 10.6202 22.0769 11.0385 22.0769ZM20.5 22.0769C20.9182 22.0769 21.3193 21.9108 21.6151 21.6151C21.9108 21.3193 22.0769 20.9182 22.0769 20.5C22.0769 20.0818 21.9108 19.6807 21.6151 19.3849C21.3193 19.0892 20.9182 18.9231 20.5 18.9231C20.0818 18.9231 19.6807 19.0892 19.3849 19.3849C19.0892 19.6807 18.9231 20.0818 18.9231 20.5C18.9231 20.9182 19.0892 21.3193 19.3849 21.6151C19.6807 21.9108 20.0818 22.0769 20.5 22.0769ZM29.9615 22.0769C30.3798 22.0769 30.7809 21.9108 31.0766 21.6151C31.3723 21.3193 31.5385 20.9182 31.5385 20.5C31.5385 20.0818 31.3723 19.6807 31.0766 19.3849C30.7809 19.0892 30.3798 18.9231 29.9615 18.9231C29.5433 18.9231 29.1422 19.0892 28.8465 19.3849C28.5508 19.6807 28.3846 20.0818 28.3846 20.5C28.3846 20.9182 28.5508 21.3193 28.8465 21.6151C29.1422 21.9108 29.5433 22.0769 29.9615 22.0769ZM39.4231 22.0769C39.8413 22.0769 40.2424 21.9108 40.5381 21.6151C40.8339 21.3193 41 20.9182 41 20.5C41 20.0818 40.8339 19.6807 40.5381 19.3849C40.2424 19.0892 39.8413 18.9231 39.4231 18.9231C39.0049 18.9231 38.6038 19.0892 38.308 19.3849C38.0123 19.6807 37.8462 20.0818 37.8462 20.5C37.8462 20.9182 38.0123 21.3193 38.308 21.6151C38.6038 21.9108 39.0049 22.0769 39.4231 22.0769ZM1.57692 31.5385C1.99515 31.5385 2.39625 31.3723 2.69198 31.0766C2.98771 30.7809 3.15385 30.3798 3.15385 29.9615C3.15385 29.5433 2.98771 29.1422 2.69198 28.8465C2.39625 28.5508 1.99515 28.3846 1.57692 28.3846C1.1587 28.3846 0.757601 28.5508 0.46187 28.8465C0.16614 29.1422 0 29.5433 0 29.9615C0 30.3798 0.16614 30.7809 0.46187 31.0766C0.757601 31.3723 1.1587 31.5385 1.57692 31.5385ZM11.0385 31.5385C11.4567 31.5385 11.8578 31.3723 12.1535 31.0766C12.4492 30.7809 12.6154 30.3798 12.6154 29.9615C12.6154 29.5433 12.4492 29.1422 12.1535 28.8465C11.8578 28.5508 11.4567 28.3846 11.0385 28.3846C10.6202 28.3846 10.2191 28.5508 9.92341 28.8465C9.62768 29.1422 9.46154 29.5433 9.46154 29.9615C9.46154 30.3798 9.62768 30.7809 9.92341 31.0766C10.2191 31.3723 10.6202 31.5385 11.0385 31.5385ZM20.5 31.5385C20.9182 31.5385 21.3193 31.3723 21.6151 31.0766C21.9108 30.7809 22.0769 30.3798 22.0769 29.9615C22.0769 29.5433 21.9108 29.1422 21.6151 28.8465C21.3193 28.5508 20.9182 28.3846 20.5 28.3846C20.0818 28.3846 19.6807 28.5508 19.3849 28.8465C19.0892 29.1422 18.9231 29.5433 18.9231 29.9615C18.9231 30.3798 19.0892 30.7809 19.3849 31.0766C19.6807 31.3723 20.0818 31.5385 20.5 31.5385ZM29.9615 31.5385C30.3798 31.5385 30.7809 31.3723 31.0766 31.0766C31.3723 30.7809 31.5385 30.3798 31.5385 29.9615C31.5385 29.5433 31.3723 29.1422 31.0766 28.8465C30.7809 28.5508 30.3798 28.3846 29.9615 28.3846C29.5433 28.3846 29.1422 28.5508 28.8465 28.8465C28.5508 29.1422 28.3846 29.5433 28.3846 29.9615C28.3846 30.3798 28.5508 30.7809 28.8465 31.0766C29.1422 31.3723 29.5433 31.5385 29.9615 31.5385ZM39.4231 31.5385C39.8413 31.5385 40.2424 31.3723 40.5381 31.0766C40.8339 30.7809 41 30.3798 41 29.9615C41 29.5433 40.8339 29.1422 40.5381 28.8465C40.2424 28.5508 39.8413 28.3846 39.4231 28.3846C39.0049 28.3846 38.6038 28.5508 38.308 28.8465C38.0123 29.1422 37.8462 29.5433 37.8462 29.9615C37.8462 30.3798 38.0123 30.7809 38.308 31.0766C38.6038 31.3723 39.0049 31.5385 39.4231 31.5385ZM1.57692 41C1.99515 41 2.39625 40.8339 2.69198 40.5381C2.98771 40.2424 3.15385 39.8413 3.15385 39.4231C3.15385 39.0049 2.98771 38.6038 2.69198 38.308C2.39625 38.0123 1.99515 37.8462 1.57692 37.8462C1.1587 37.8462 0.757601 38.0123 0.46187 38.308C0.16614 38.6038 0 39.0049 0 39.4231C0 39.8413 0.16614 40.2424 0.46187 40.5381C0.757601 40.8339 1.1587 41 1.57692 41ZM11.0385 41C11.4567 41 11.8578 40.8339 12.1535 40.5381C12.4492 40.2424 12.6154 39.8413 12.6154 39.4231C12.6154 39.0049 12.4492 38.6038 12.1535 38.308C11.8578 38.0123 11.4567 37.8462 11.0385 37.8462C10.6202 37.8462 10.2191 38.0123 9.92341 38.308C9.62768 38.6038 9.46154 39.0049 9.46154 39.4231C9.46154 39.8413 9.62768 40.2424 9.92341 40.5381C10.2191 40.8339 10.6202 41 11.0385 41ZM20.5 41C20.9182 41 21.3193 40.8339 21.6151 40.5381C21.9108 40.2424 22.0769 39.8413 22.0769 39.4231C22.0769 39.0049 21.9108 38.6038 21.6151 38.308C21.3193 38.0123 20.9182 37.8462 20.5 37.8462C20.0818 37.8462 19.6807 38.0123 19.3849 38.308C19.0892 38.6038 18.9231 39.0049 18.9231 39.4231C18.9231 39.8413 19.0892 40.2424 19.3849 40.5381C19.6807 40.8339 20.0818 41 20.5 41ZM29.9615 41C30.3798 41 30.7809 40.8339 31.0766 40.5381C31.3723 40.2424 31.5385 39.8413 31.5385 39.4231C31.5385 39.0049 31.3723 38.6038 31.0766 38.308C30.7809 38.0123 30.3798 37.8462 29.9615 37.8462C29.5433 37.8462 29.1422 38.0123 28.8465 38.308C28.5508 38.6038 28.3846 39.0049 28.3846 39.4231C28.3846 39.8413 28.5508 40.2424 28.8465 40.5381C29.1422 40.8339 29.5433 41 29.9615 41ZM39.4231 41C39.8413 41 40.2424 40.8339 40.5381 40.5381C40.8339 40.2424 41 39.8413 41 39.4231C41 39.0049 40.8339 38.6038 40.5381 38.308C40.2424 38.0123 39.8413 37.8462 39.4231 37.8462C39.0049 37.8462 38.6038 38.0123 38.308 38.308C38.0123 38.6038 37.8462 39.0049 37.8462 39.4231C37.8462 39.8413 38.0123 40.2424 38.308 40.5381C38.6038 40.8339 39.0049 41 39.4231 41Z" fill="white"/>
</g>
<defs>
<clipPath id="clip0_19_2">
<rect width="41" height="41" fill="white"/>
</clipPath>
</defs>
</svg>
