<svg width="20" height="20" viewBox="0 0 20 20" fill="none" xmlns="http://www.w3.org/2000/svg">
<path d="M10 0C4.47679 0 0 4.47679 0 10C0 15.5232 4.47679 20 10 20C15.5232 20 20 15.5232 20 10C20 4.47679 15.5232 0 10 0ZM5.62402 15.9918C4.04941 15.9918 2.77297 14.7153 2.77297 13.1407V6.90473C2.77297 5.33012 4.04941 4.05367 5.62402 4.05367V15.9903V15.9918ZM16.0727 14.4413C15.4962 14.9879 14.8133 15.4125 14.0239 15.7149C13.2344 16.0173 12.3754 16.1692 11.4497 16.1692C10.7255 16.1692 10.0696 16.0684 9.48033 15.8668C8.89252 15.6652 8.39415 15.377 7.98381 15.0021C7.57348 14.6287 7.25543 14.18 7.0311 13.6575C6.80534 13.135 6.69317 12.5472 6.69317 11.8941V4.05509H11.4497C12.3754 4.05509 13.2344 4.19708 14.0239 4.48246C14.8133 4.76785 15.4962 5.17109 16.0727 5.6936C16.6492 6.2161 17.0978 6.84225 17.4173 7.57348C17.7382 8.30328 17.8986 9.12111 17.8986 10.0227C17.8986 10.9243 17.7382 11.7507 17.4173 12.4989C17.0964 13.2472 16.6477 13.8946 16.0727 14.4413Z" fill="#879CE6"/>
<path d="M13.8194 6.24459C13.4872 5.78598 13.0854 5.43244 12.6168 5.18397C12.1469 4.93549 11.6286 4.81055 11.0578 4.81055H9.54285V13.6051C9.54285 14.8091 10.1775 15.4097 11.4497 15.4097C11.9609 15.4097 12.4237 15.2805 12.8397 15.0207C13.2558 14.7609 13.615 14.3945 13.9174 13.9189C14.2198 13.4447 14.4541 12.8781 14.6216 12.2207C14.7878 11.5634 14.8715 10.8321 14.8715 10.0257C14.8715 9.21918 14.7793 8.52913 14.5961 7.88878C14.4115 7.24843 14.1531 6.69895 13.8209 6.24034L13.8194 6.24459Z" fill="#879CE6"/>
</svg>
