<svg width="21" height="15" viewBox="0 0 21 15" fill="none" xmlns="http://www.w3.org/2000/svg">
<path d="M12.5023 0H0.0999756L1.40857 0.326505C1.99451 0.480154 2.6781 0.902689 2.83435 1.44046V13.5403C2.6781 14.0973 1.99451 14.5198 1.40857 14.6735L0.236694 15H9.80701V12.9257C9.98279 13.2907 10.1976 13.6172 10.4711 13.9053C11.1937 14.6159 12.1703 15 13.264 15C16.5844 15 20.1 12.3688 20.1 7.4904V7.31754C20.0414 2.55442 16.1351 0 12.5023 0ZM16.8578 7.10627C16.8187 7.12548 16.7601 7.12548 16.7015 7.12548H16.6429C16.4867 7.14469 16.3304 7.14469 16.1547 7.14469C16.4867 7.02945 16.7797 6.85659 16.8773 6.81818C16.8773 6.81818 16.8773 6.83739 16.8578 6.83739L16.8187 6.91421V6.93342C16.8187 6.99104 16.8187 7.04866 16.8578 7.10627ZM15.5687 6.10755L15.6664 6.01152L15.6273 5.95391L15.5687 5.89629L15.4906 5.9347C15.432 5.95391 15.3929 5.97311 15.3344 5.99232C15.2172 6.04994 15.0804 6.08835 14.9633 6.14597C14.9828 6.12676 14.9828 6.12676 14.9828 6.12676L15.0414 6.06914L14.9828 6.01152L14.9242 5.95391H14.8851C14.8461 5.95391 14.807 5.97311 14.7484 6.01152C14.8461 5.83867 14.9633 5.68502 15.1195 5.55058C15.1586 5.49296 15.2172 5.43534 15.2758 5.37772C15.3148 5.33931 15.3344 5.3201 15.3734 5.28169L15.4125 5.24328C15.4515 5.20487 15.4906 5.16645 15.5297 5.14725V5.16645C15.4906 5.28169 15.4906 5.41613 15.5297 5.53137V5.56978L15.5492 5.58899C15.5492 5.60819 15.5687 5.6274 15.5687 5.6274C15.6273 5.70423 15.725 5.76184 15.8031 5.80026L15.8422 5.81946C15.8617 5.81946 15.8812 5.83867 15.9008 5.83867L15.9203 5.85787L15.9398 5.87708C15.9984 5.91549 16.0179 6.03073 16.0179 6.08835V6.16517C15.9984 6.2612 15.9984 6.33803 16.0179 6.43406L15.9789 6.41485C15.9594 6.39565 15.9008 6.37644 15.8422 6.43406C15.8031 6.45327 15.764 6.47247 15.7445 6.51088C15.6859 6.5493 15.6469 6.58771 15.6078 6.60691H15.5883C15.5101 6.66453 15.432 6.70294 15.3344 6.74136C15.4515 6.64533 15.4515 6.60691 15.432 6.5493L15.3929 6.47247L15.3148 6.51088C15.2367 6.5493 15.0414 6.62612 14.8851 6.70295C15.0804 6.47247 15.432 6.18438 15.5687 6.10755ZM15.8812 6.66453L15.9789 6.5685L16.0179 6.49168C16.0179 6.51088 16.0179 6.51088 16.0375 6.53009C16.0961 6.64533 16.1937 6.74136 16.3109 6.79898C16.2914 6.79898 16.2914 6.79898 16.2719 6.81818C16.1156 6.85659 15.9398 6.89501 15.764 6.93342L15.5883 6.95263C15.6859 6.85659 15.7836 6.76056 15.8812 6.66453ZM16.2719 5.6274C16.2523 5.6274 16.2523 5.6274 16.2719 5.6274C16.2523 5.60819 16.2328 5.58899 16.2133 5.58899C16.2523 5.58899 16.2719 5.58899 16.2914 5.56978C16.2914 5.58899 16.2719 5.60819 16.2719 5.6274ZM16.6039 7.52881C16.6625 7.52881 16.7211 7.52881 16.7601 7.52881C16.7406 7.54802 16.7211 7.54802 16.7015 7.56722C16.6429 7.56722 16.4672 7.58643 16.2523 7.54802C16.35 7.52881 16.4672 7.52881 16.6039 7.52881ZM16.8383 6.39565C16.8187 6.39565 16.7992 6.37644 16.7797 6.37644H16.7992C16.8187 6.37644 16.8187 6.37644 16.8187 6.37644C16.8383 6.37644 16.8383 6.37644 16.8383 6.39565ZM15.0219 5.08963C14.9047 5.18566 14.807 5.3009 14.7094 5.41613C14.7484 5.3201 14.807 5.24328 14.8656 5.16645L14.9828 5.0128H14.807H14.7094L14.6898 5.03201C14.6508 5.07042 14.6312 5.08963 14.5922 5.12804C14.6117 5.08963 14.6117 5.05122 14.6312 5.03201L14.6508 4.9936C14.6508 4.9936 14.6703 4.97439 14.6703 4.95519C14.7289 4.9936 14.7875 5.0128 14.8265 5.0128C14.9047 5.0128 14.9633 4.9936 15.0219 4.93598L15.1586 4.80154C15.1781 4.83995 15.1976 4.85916 15.2367 4.89757L15.2562 4.91677L15.0219 5.08963ZM10.2172 10.1216H10.2367C10.2758 10.1408 10.3148 10.1408 10.3539 10.1601C10.3929 10.1601 10.4515 10.1793 10.4906 10.1985C10.5492 10.2177 10.5883 10.2369 10.6469 10.2369C10.8617 10.2753 11.0961 10.2753 11.3695 10.2561C11.6234 10.2369 11.8383 10.1601 12.0531 10.0832L12.0726 10.064C12.0922 10.0448 12.1312 10.0448 12.1508 10.0256C12.1898 10.0064 12.2289 9.9872 12.2484 9.96799C12.2875 9.94878 12.3265 9.92958 12.3461 9.91037C12.4828 9.85275 12.7367 9.77593 12.8343 9.75672L13.1078 9.71831L12.639 9.44942C12.0922 9.16133 11.4086 9.08451 10.8226 9.23816C11.1156 8.96927 11.4867 8.77721 11.9164 8.68118C12.7562 9.50704 14.0062 9.60307 14.9047 9.52625C15.2562 9.50704 15.6469 9.43022 15.9789 9.35339C15.9984 9.35339 16.057 9.33419 16.1937 9.29578L16.389 9.23816L15.9203 8.93086L15.8422 8.89245C15.432 8.66197 15.0023 8.41229 14.5336 8.25864C14.2601 8.18182 13.9476 8.1242 13.6156 8.10499C13.9476 7.93214 14.1625 7.75928 14.2797 7.66325C14.3578 7.68246 14.4359 7.70167 14.514 7.72087H14.5726C14.6117 7.72087 14.6117 7.72087 14.6312 7.72087H14.6703L14.6898 7.74008L14.7484 7.75928C14.8461 7.77849 15.0023 7.7977 15.139 7.72087C15.1976 7.74008 15.2758 7.75928 15.3344 7.75928L15.3929 7.77849C15.4711 7.7977 15.5492 7.8169 15.6273 7.83611C15.7054 7.85531 15.8031 7.87452 15.8812 7.91293C16.0375 7.95134 16.2133 7.98976 16.4476 7.98976C16.6234 7.98976 16.8773 7.98976 17.0531 7.7977C17.1312 7.68246 17.1703 7.58643 17.1508 7.4904C17.1508 7.47119 17.1508 7.45198 17.1312 7.41357C17.1898 7.37516 17.2679 7.29834 17.2875 7.22151C17.3265 7.10627 17.2679 7.02945 17.2289 6.99104C17.2289 6.99104 17.2484 6.97183 17.2484 6.95263C17.2875 6.99104 17.3265 7.02945 17.3851 7.04866H17.4242C17.4828 7.04866 17.5609 7.02945 17.6 6.97183C17.6195 6.93342 17.639 6.89501 17.639 6.83739C17.639 6.77977 17.6195 6.72215 17.5804 6.68374C17.5414 6.64533 17.4633 6.60691 17.4047 6.62612C17.3656 6.62612 17.3265 6.64533 17.2875 6.68374C17.2875 6.64533 17.2679 6.58771 17.2484 6.5493L17.2679 6.53009H17.2484C17.2289 6.51088 17.2289 6.49168 17.2094 6.47247L17.1898 6.45327C17.1898 6.39565 17.1898 6.35723 17.1898 6.29962C17.1703 6.18438 17.0922 6.08835 16.9554 6.04994C16.975 6.03073 17.014 6.03073 17.014 5.99232C17.0336 5.95391 17.0531 5.91549 17.0531 5.85787C17.0531 5.80026 17.0531 5.74264 16.9945 5.70423C16.9945 5.70423 16.9945 5.70423 16.975 5.70423C16.9945 5.70423 17.014 5.70423 17.0336 5.70423C17.1117 5.70423 17.1898 5.66581 17.2484 5.6082C17.2875 5.55058 17.307 5.49296 17.2875 5.45455C17.2875 5.37772 17.2289 5.28169 17.1508 5.22407C17.0922 5.18566 17.0531 5.18566 16.9945 5.20487C16.8773 5.22407 16.7797 5.3201 16.7797 5.45455C16.7797 5.53137 16.8187 5.60819 16.8773 5.64661C16.8578 5.64661 16.8383 5.64661 16.8187 5.64661C16.7992 5.64661 16.7797 5.64661 16.7601 5.66581C16.7601 5.64661 16.7406 5.64661 16.7406 5.6274C16.7211 5.58899 16.7015 5.55058 16.6625 5.53137C16.682 5.49296 16.682 5.45455 16.682 5.39693C16.6625 5.3009 16.5844 5.22407 16.5062 5.18566C16.6039 5.14725 16.6625 5.07042 16.6625 4.95519V4.93598C16.6429 4.85916 16.5844 4.76312 16.4867 4.72471C16.4476 4.70551 16.389 4.70551 16.35 4.70551C16.2914 4.70551 16.2523 4.72471 16.2133 4.76312C16.2133 4.72471 16.1937 4.6863 16.1742 4.64789L16.1547 4.62868C16.1156 4.59027 16.057 4.53265 16.0179 4.51344L15.9984 4.49424L15.9789 4.47503C15.9789 4.47503 15.9789 4.47503 15.9594 4.45583L15.9398 4.43662C15.8617 4.34059 15.7445 4.28297 15.6078 4.28297C15.4711 4.28297 15.3734 4.30218 15.2562 4.34059C15.1586 4.30218 15.0414 4.30218 14.8461 4.43662C14.807 4.45583 14.7875 4.47503 14.7679 4.49424C14.6508 4.41741 14.514 4.39821 14.3773 4.49424C14.2797 4.57106 14.2211 4.6863 14.182 4.85916C14.182 4.83995 14.182 4.83995 14.182 4.83995C14.182 4.85916 14.1625 4.85916 14.1625 4.89757C14.0453 5.22407 13.9867 5.47375 13.9476 5.70423C13.889 5.99232 13.889 6.29962 13.9281 6.62612C13.8695 6.79898 13.8695 6.97183 13.9086 7.14469C13.6937 7.31754 13.1273 7.68246 12.2679 7.91293C12.7953 7.35595 13.0883 6.5685 13.1078 5.72343C13.1078 5.33931 13.0687 5.05122 13.0101 4.76312C12.9906 4.6863 12.9515 4.45583 12.8343 4.45583H12.7367V4.53265C12.6586 4.6863 12.4437 4.91677 12.307 5.07042L12.2289 5.16645L12.1703 5.28169C12.014 5.56978 11.8773 5.76184 11.7406 5.95391C11.4672 6.39565 11.2914 6.93342 11.2719 7.45198V7.95135C11.2719 8.06658 11.2719 8.18182 11.2523 8.29706C10.8812 8.4507 10.5687 8.66197 10.2953 8.95006C10.1 9.18054 9.92419 9.43022 9.78748 9.71831V0.537772H12.4633C15.6664 0.537772 17.9125 3.39949 17.9125 7.47119C17.9125 11.5045 15.9398 14.4238 13.2445 14.4238C12.0336 14.4238 11.2914 13.9245 10.8617 13.5211C10.2953 12.9641 10.0023 12.1959 10.0023 11.2932C10.0219 10.8707 10.0804 10.4674 10.2172 10.1216ZM4.96326 1.44046C5.11951 0.883483 5.74451 0.49936 6.31091 0.345711C6.87732 0.49936 7.54138 0.902689 7.65857 1.42125V13.5211C7.50232 14.0589 6.85779 14.4814 6.29138 14.6351C5.78357 14.4622 5.13904 14.0589 4.96326 13.5403V1.44046Z" fill="#A16C2B"/>
</svg>
