<?xml version="1.0" encoding="utf-8"?>
<!-- Generator: Adobe Illustrator 28.2.0, SVG Export Plug-In . SVG Version: 6.00 Build 0)  -->
<svg version="1.1" id="Camada_1" xmlns="http://www.w3.org/2000/svg" xmlns:xlink="http://www.w3.org/1999/xlink" x="0px" y="0px"
	 viewBox="0 0 418 78" style="enable-background:new 0 0 418 78;" xml:space="preserve">
<style type="text/css">
	.st0{fill:url(#SVGID_1_);}
</style>
<linearGradient id="SVGID_1_" gradientUnits="userSpaceOnUse" x1="-1.8673" y1="39.0355" x2="417.97" y2="39.0355">
	<stop  offset="8.938547e-02" style="stop-color:#A16C2B"/>
	<stop  offset="0.4469" style="stop-color:#D8B056"/>
	<stop  offset="1" style="stop-color:#A16C2B"/>
</linearGradient>
<path class="st0" d="M61.6,0H-1.9l6.7,1.7c3,0.8,6.5,3,7.3,5.8v63c-0.8,2.9-4.3,5.1-7.3,5.9l-6,1.7h49V67.3c0.9,1.9,2,3.6,3.4,5.1
	c3.7,3.7,8.7,5.7,14.3,5.7c17,0,35-13.7,35-39.1v-0.9C100.2,13.3,80.2,0,61.6,0z M83.9,37L83.9,37c-0.2,0.1-0.5,0.1-0.8,0.1l-0.3,0
	c-0.8,0.1-1.6,0.1-2.5,0.1c1.7-0.6,3.2-1.5,3.7-1.7v0c0,0,0,0.1-0.1,0.1L83.7,36v0.1C83.7,36.4,83.7,36.7,83.9,37z M77.3,31.8
	l0.5-0.5L77.6,31l-0.3-0.3l-0.4,0.2c-0.3,0.1-0.5,0.2-0.8,0.3c-0.6,0.3-1.3,0.5-1.9,0.8c0.1-0.1,0.1-0.1,0.1-0.1l0.3-0.3l-0.3-0.3
	L74,31l-0.2,0c-0.2,0-0.4,0.1-0.7,0.3c0.5-0.9,1.1-1.7,1.9-2.4c0.2-0.3,0.5-0.6,0.8-0.9c0.2-0.2,0.3-0.3,0.5-0.5l0.2-0.2
	c0.2-0.2,0.4-0.4,0.6-0.5l0,0.1c-0.2,0.6-0.2,1.3,0,1.9l0,0.2l0.1,0.1c0,0.1,0.1,0.2,0.1,0.2c0.3,0.4,0.8,0.7,1.2,0.9l0.2,0.1
	c0.1,0,0.2,0.1,0.3,0.1l0.1,0.1l0.1,0.1c0.3,0.2,0.4,0.8,0.4,1.1l0,0.4c-0.1,0.5-0.1,0.9,0,1.4l-0.2-0.1c-0.1-0.1-0.4-0.2-0.7,0.1
	c-0.2,0.1-0.4,0.2-0.5,0.4c-0.3,0.2-0.5,0.4-0.7,0.5l-0.1,0c-0.4,0.3-0.8,0.5-1.3,0.7c0.6-0.5,0.6-0.7,0.5-1l-0.2-0.4l-0.4,0.2
	c-0.4,0.2-1.4,0.6-2.2,1C74.8,33.7,76.6,32.2,77.3,31.8z M78.9,34.7l0.5-0.5l0.2-0.4c0,0.1,0,0.1,0.1,0.2c0.3,0.6,0.8,1.1,1.4,1.4
	c-0.1,0-0.1,0-0.2,0.1c-0.8,0.2-1.7,0.4-2.6,0.6l-0.9,0.1C77.9,35.7,78.4,35.2,78.9,34.7z M80.9,29.3C80.9,29.3,80.9,29.3,80.9,29.3
	C80.8,29.3,80.8,29.3,80.9,29.3c-0.1-0.1-0.2-0.2-0.3-0.2c0.2,0,0.3,0,0.4-0.1l0,0C81,29.1,80.9,29.2,80.9,29.3z M78.7,28.4
	C78.7,28.4,78.7,28.4,78.7,28.4L78.7,28.4C78.7,28.4,78.7,28.4,78.7,28.4z M82.6,39.2L82.6,39.2c0.3,0,0.6,0,0.8,0c0,0,0,0,0,0
	c0,0,0,0,0,0c-0.1,0.1-0.2,0.1-0.3,0.2l0,0c-0.3,0-1.2,0.1-2.3-0.1C81.3,39.2,81.9,39.2,82.6,39.2z M83.8,33.3L83.8,33.3
	c-0.1,0-0.2-0.1-0.3-0.1c0,0,0,0,0,0l0.1,0c0.1,0,0.1,0,0.1,0C83.8,33.2,83.8,33.2,83.8,33.3C83.8,33.3,83.8,33.3,83.8,33.3z
	 M82,31.9L82,31.9L82,31.9L82,31.9z M74.5,26.5c-0.6,0.5-1.1,1.1-1.6,1.7c0.2-0.5,0.5-0.9,0.8-1.3l0.6-0.8h-0.9h-0.5l-0.1,0.1
	c-0.2,0.2-0.3,0.3-0.5,0.5c0.1-0.2,0.1-0.4,0.2-0.5l0.1-0.2c0,0,0.1-0.1,0.1-0.2c0.3,0.2,0.6,0.3,0.8,0.3c0.4,0,0.7-0.1,1-0.4
	l0.7-0.7c0,0,0,0,0,0c0.1,0.2,0.2,0.3,0.4,0.5c0,0,0.1,0.1,0.1,0.1L74.5,26.5z M83.4,31.6L83.4,31.6C83.4,31.6,83.4,31.6,83.4,31.6
	C83.4,31.6,83.4,31.6,83.4,31.6z M49.9,52.7c0,0,0.1,0,0.1,0c0.2,0.1,0.4,0.1,0.6,0.2c0.2,0,0.5,0.1,0.7,0.2
	c0.3,0.1,0.5,0.2,0.8,0.2c1.1,0.2,2.3,0.2,3.7,0.1c1.3-0.1,2.4-0.5,3.5-0.9l0.1-0.1c0.1-0.1,0.3-0.1,0.4-0.2
	c0.2-0.1,0.4-0.2,0.5-0.3c0.2-0.1,0.4-0.2,0.5-0.3c0.7-0.3,2-0.7,2.5-0.8l1.4-0.2l-2.4-1.4c-2.8-1.5-6.3-1.9-9.3-1.1
	c1.5-1.4,3.4-2.4,5.6-2.9c4.3,4.3,10.7,4.8,15.3,4.4c1.8-0.1,3.8-0.5,5.5-0.9c0.1,0,0.4-0.1,1.1-0.3l1-0.3l-2.4-1.6l-0.4-0.2
	c-2.1-1.2-4.3-2.5-6.7-3.3c-1.4-0.4-3-0.7-4.7-0.8c1.7-0.9,2.8-1.8,3.4-2.3c0.4,0.1,0.8,0.2,1.2,0.3l0.3,0c0.2,0,0.2,0,0.3,0l0.2,0
	l0.1,0.1l0.3,0.1c0.5,0.1,1.3,0.2,2-0.2c0.3,0.1,0.7,0.2,1,0.2l0.3,0.1c0.4,0.1,0.8,0.2,1.2,0.3c0.4,0.1,0.9,0.2,1.3,0.4
	c0.8,0.2,1.7,0.4,2.9,0.4c0.9,0,2.2,0,3.1-1c0.4-0.6,0.6-1.1,0.5-1.6c0-0.1,0-0.2-0.1-0.4c0.3-0.2,0.7-0.6,0.8-1
	c0.2-0.6-0.1-1-0.3-1.2l0,0c0,0,0.1-0.1,0.1-0.2c0.2,0.2,0.4,0.4,0.7,0.5l0.2,0c0.3,0,0.7-0.1,0.9-0.4c0.1-0.2,0.2-0.4,0.2-0.7
	c0-0.3-0.1-0.6-0.3-0.8c-0.2-0.2-0.6-0.4-0.9-0.3c-0.2,0-0.4,0.1-0.6,0.3c0-0.2-0.1-0.5-0.2-0.7l0.1-0.1l-0.1,0
	c-0.1-0.1-0.1-0.2-0.2-0.3c0,0-0.1-0.1-0.1-0.1c0-0.3,0-0.5,0-0.8c-0.1-0.6-0.5-1.1-1.2-1.3c0.1-0.1,0.3-0.1,0.3-0.3
	c0.1-0.2,0.2-0.4,0.2-0.7c0-0.3,0-0.6-0.3-0.8c0,0,0,0-0.1,0c0.1,0,0.2,0,0.3,0c0.4,0,0.8-0.2,1.1-0.5c0.2-0.3,0.3-0.6,0.2-0.8
	c0-0.4-0.3-0.9-0.7-1.2c-0.3-0.2-0.5-0.2-0.8-0.1c-0.6,0.1-1.1,0.6-1.1,1.3c0,0.4,0.2,0.8,0.5,1c-0.1,0-0.2,0-0.3,0
	c-0.1,0-0.2,0-0.3,0.1c0-0.1-0.1-0.1-0.1-0.2c-0.1-0.2-0.2-0.4-0.4-0.5c0.1-0.2,0.1-0.4,0.1-0.7c-0.1-0.5-0.5-0.9-0.9-1.1
	c0.5-0.2,0.8-0.6,0.8-1.2l0-0.1c-0.1-0.4-0.4-0.9-0.9-1.1c-0.2-0.1-0.5-0.1-0.7-0.1c-0.3,0-0.5,0.1-0.7,0.3c0-0.2-0.1-0.4-0.2-0.6
	l-0.1-0.1c-0.2-0.2-0.5-0.5-0.7-0.6l-0.1-0.1c0,0-0.1-0.1-0.1-0.1c0,0,0,0-0.1-0.1l-0.1-0.1c-0.4-0.5-1-0.8-1.7-0.8
	c-0.7,0-1.2,0.1-1.8,0.3c-0.5-0.2-1.1-0.2-2.1,0.5c-0.2,0.1-0.3,0.2-0.4,0.3c-0.6-0.4-1.3-0.5-2,0c-0.5,0.4-0.8,1-1,1.9
	c0-0.1,0-0.1,0-0.1c0,0.1-0.1,0.1-0.1,0.3c-0.6,1.7-0.9,3-1.1,4.2c-0.3,1.5-0.3,3.1-0.1,4.8c-0.3,0.9-0.3,1.8-0.1,2.7
	c-1.1,0.9-4,2.8-8.4,4c2.7-2.9,4.2-7,4.3-11.4c0-2-0.2-3.5-0.5-5l0,0c-0.1-0.4-0.3-1.6-0.9-1.6l-0.5,0v0.4c-0.4,0.8-1.5,2-2.2,2.8
	l-0.4,0.5l-0.3,0.6C59.1,29,58.4,30,57.7,31c-1.4,2.3-2.3,5.1-2.4,7.8v2.6c0,0.6,0,1.2-0.1,1.8c-1.9,0.8-3.5,1.9-4.9,3.4
	c-1,1.2-1.9,2.5-2.6,4V2.8h13.7c16.4,0,27.9,14.9,27.9,36.1c0,21-10.1,36.2-23.9,36.2c-6.2,0-10-2.6-12.2-4.7
	c-2.9-2.9-4.4-6.9-4.4-11.6C48.9,56.6,49.2,54.5,49.9,52.7z M23,7.5c0.8-2.9,4-4.9,6.9-5.7c2.9,0.8,6.3,2.9,6.9,5.6v63
	c-0.8,2.8-4.1,5-7,5.8c-2.6-0.9-5.9-3-6.8-5.7V7.5z M418,10.1v58.7h-2l-0.2-0.5l-32.8-51.5v52h-3.6V13.6l-3.3-1.4v-2.2h10.8l0.1,0.2
	l27.5,43.3V10.1H418z M354.1,37.7h9.8l0,19.1c-0.3,0.8-0.8,1.6-1.5,2.5c-0.3,0.5-0.7,1-1.2,1.6c-0.2,0.2-0.4,0.5-0.5,0.7
	c0,0.1-0.1,0.1-0.1,0.1v0.1l-0.4,0.4c-0.1,0.2-0.3,0.4-0.5,0.6c-2.3,2.5-5,4.3-8.2,5.5c-3,1.2-6.2,1.8-9.5,1.8
	c-0.2,0.1-0.4,0.1-0.5,0.1c-4.4,0-8.4-0.8-11.7-2.5c-3.4-1.7-6.4-4-8.7-6.8c-2.3-2.9-4-6.2-5.2-9.8c-1.1-3.8-1.7-7.6-1.7-11.2
	c0-3.6,0.5-7.4,1.6-11.3c1.2-3.7,2.9-7.1,5.2-9.9c2.3-2.9,5.2-5.2,8.6-7c3.6-1.8,7.6-2.7,12.3-2.7c0.3,0,0.7,0,1.1,0.1h0.8
	c3.6,0.2,7.2,1.3,10.6,3.2c3.5,2,6.3,5,8.3,8.9l0.5,0.9l-2.8,0.9l-0.4-0.6c-1.9-3.3-4.4-5.7-7.4-7.3c-2.8-1.6-5.9-2.4-9.2-2.4
	c-3.8,0.1-6.9,0.9-9.6,2.4c-2.7,1.5-4.9,3.5-6.8,6.1c-1.7,2.5-3.1,5.4-4.1,8.6c-0.9,3.3-1.4,6.6-1.4,9.8c0.1,3.8,0.6,7.1,1.5,9.9
	c0.9,3.1,2.2,5.9,4,8.6c1.7,2.5,3.9,4.5,6.6,6.1c2.6,1.4,5.8,2.2,9.1,2.2c3.4,0,6.3-0.6,8.8-1.7c2.6-1.2,4.5-2.5,5.9-4V41.2
	l-3.3-1.4V37.7z M290.5,10.2h10v58.7h-6.8V13.7l-3.3-1.4V10.2z M279.4,46.4c1,1.8,1.6,4.1,1.6,6.6c0,2.8-0.6,5.3-1.7,7.2
	c-1,2-2.4,3.8-4.2,5.3c-1.8,1.5-3.9,2.6-6.1,3.3c-2,0.9-4.4,1.3-7.1,1.3c-4.1,0-8-0.8-11.6-2.5c-3.6-1.7-6.9-4.1-9.7-7.3l-0.5-0.7
	l2.2-1.9l0.5,0.8c2.5,2.8,5.4,4.8,8.5,6.1c3.3,1.4,6.8,2,10.4,2c1.9-0.1,3.6-0.5,5-1c1.7-0.6,3-1.4,4.1-2.4c1.1-1,2-2.2,2.8-3.9
	c0.7-1.7,1-3.5,0.9-5.4c-0.1-1.6-0.5-2.9-1.3-4c-0.8-1.2-2-2.3-3.4-3.4c-1.6-1.3-3.1-2.2-4.7-3c-1.7-0.9-3.5-1.8-5.3-2.5
	c-1.8-0.8-3.6-1.6-5.4-2.3c-1.5-0.6-3.3-1.4-4.5-2.1c-2.3-1.2-4.4-2.9-5.9-5c-1.5-2.1-2.3-4.5-2.4-7.4c0-2.6,0.5-4.7,1.7-6.7
	c1.2-2,2.6-3.6,4.3-4.8c1.7-1.3,3.6-2.2,5.8-2.8c5.3-1.5,10.9-1.2,16.2,1c3.2,1.3,5.7,3.3,7.7,5.8l0.5,0.5l-2,2.3l-0.7-0.9
	c-0.8-1.1-1.6-1.9-2.7-2.7c-0.9-0.7-2-1.4-3.4-1.9c-1.2-0.6-2.5-1-4-1.3c-3.3-0.6-6.6-0.5-9.5,0.4c-1.5,0.4-2.9,1.2-4.3,2.4
	c-1.3,1.2-2.2,2.4-2.6,3.7c-0.5,1.4-0.7,2.7-0.5,3.9c0.3,1.3,0.9,2.6,1.7,3.6c0.8,1.2,2,2.2,3.5,3.1c1.3,0.8,2.8,1.6,4.7,2.3
	c0.8,0.4,1.7,0.7,2.6,1.1c1.1,0.4,2.1,0.9,3.2,1.4c1.5,0.6,3,1.4,4.4,2.1c0.6,0.3,1.1,0.6,1.7,0.9c2,1,4,2.3,5.5,3.7
	C276.9,42.8,278.3,44.5,279.4,46.4z M193.8,10.2h38.6v3.3h-28.4v22.4h22.6v3.3h-22.6v26.5h28.4v3.3h-35.3V13.7l-3.3-1.4V10.2z
	 M176.5,19.8c-2.2-2.8-5.3-5.2-9.1-7c-3.7-1.8-8.5-2.7-14.2-2.7h-17.8v2.2l3.3,1.4v55.1h14.5c5.6,0,10.4-0.9,14.2-2.6
	c3.7-1.8,6.8-4.1,9.1-6.9c2.3-2.8,3.9-6,4.9-9.5c0.9-3.7,1.4-7,1.4-10.2c0-3.2-0.5-6.5-1.4-10.2C180.5,26,178.8,22.8,176.5,19.8z
	 M175.4,39.6c0,2.7-0.3,5.8-1,9.3c-0.6,3-1.7,5.8-3.4,8.4c-1.6,2.4-3.9,4.4-6.7,6.1c-2.8,1.5-6.6,2.3-11.2,2.3h-7.7V13.5h7.8
	c4.6,0,8.2,0.8,11,2.4c2.9,1.5,5.1,3.5,6.8,6.1c1.7,2.5,2.8,5.2,3.4,8.3C175.1,33.3,175.4,36.4,175.4,39.6z M116.7,0h2.7v78h-2.7V0z
	"/>
</svg>
