<svg width="262" height="80" viewBox="0 0 262 80" fill="none" xmlns="http://www.w3.org/2000/svg">
<path d="M90.4444 41.9025C90.4444 39.5172 90.859 37.2852 91.6939 35.2122C92.5287 33.1392 93.6646 31.3502 95.1072 29.8395C96.5498 28.3288 98.2706 27.1475 100.275 26.2899C102.28 25.4323 104.433 25.0063 106.727 25.0063C109.022 25.0063 111.174 25.4664 113.043 26.3921C114.911 27.3179 116.479 28.6355 117.74 30.345V14.0621C117.74 12.3526 118.245 11.0009 119.262 10.007C120.278 9.01883 121.636 8.51904 123.351 8.51904H123.623V40.8859C123.623 43.5893 123.232 46.0428 122.442 48.2521C121.653 50.4614 120.551 52.3413 119.131 53.8918C117.711 55.4479 116.002 56.6519 113.997 57.5095C111.992 58.3671 109.771 58.7931 107.341 58.7931C104.91 58.7931 102.655 58.3785 100.582 57.5436C98.5091 56.7087 96.7201 55.5388 95.2094 54.0281C93.6987 52.5173 92.5287 50.7283 91.6939 48.6553C90.859 46.5824 90.4444 44.3333 90.4444 41.8969V41.9025ZM96.9984 41.9025C96.9984 44.2481 97.2597 46.3949 97.7765 48.3543C98.2933 50.3137 99.0033 52.0005 99.9063 53.4204C100.809 54.8402 101.888 55.9307 103.149 56.6974C104.41 57.4641 105.807 57.8446 107.341 57.8446C108.874 57.8446 110.265 57.4641 111.532 56.6974C112.793 55.9307 113.883 54.8402 114.809 53.4204C115.729 52.0005 116.45 50.3137 116.973 48.3543C117.49 46.3949 117.751 44.2425 117.751 41.9025C117.751 39.5626 117.49 37.4101 116.973 35.4507C116.456 33.4914 115.746 31.8159 114.843 30.4188C113.94 29.0217 112.85 27.9426 111.566 27.1759C110.283 26.4091 108.874 26.0286 107.341 26.0286C105.807 26.0286 104.41 26.4091 103.149 27.1759C101.888 27.9426 100.804 29.0217 99.9063 30.4188C99.0033 31.8159 98.2933 33.4914 97.7765 35.4507C97.2597 37.4101 96.9984 39.5626 96.9984 41.9025Z" fill="white"/>
<path d="M127.003 41.9026C127.003 39.4263 127.417 37.1489 128.252 35.0759C129.087 33.0029 130.257 31.2253 131.768 29.7373C133.278 28.2493 135.067 27.0907 137.14 26.2558C139.213 25.4209 141.485 25.0063 143.967 25.0063C146.216 25.0063 148.255 25.3925 150.084 26.1536C151.907 26.9203 153.474 28.0107 154.781 29.4306C156.087 30.8504 157.098 32.5599 157.819 34.5648C158.54 36.5696 158.898 38.7902 158.898 41.221H133.557V41.8969C133.557 44.197 133.841 46.2757 134.403 48.1499C134.965 50.0184 135.755 51.6314 136.766 52.9831C137.777 54.3348 138.998 55.3741 140.412 56.0897C141.832 56.811 143.416 57.1688 145.177 57.1688C146.71 57.1688 148.181 56.9416 149.601 56.4929C151.021 56.0443 152.304 55.3911 153.452 54.5335C154.599 53.6759 155.616 52.665 156.49 51.4951C157.37 50.3251 158.035 49.0416 158.484 47.6444H159.364C158.194 51.2054 156.269 53.9542 153.588 55.8909C150.907 57.8276 147.698 58.7988 143.961 58.7988C141.485 58.7988 139.208 58.3842 137.135 57.5493C135.062 56.7144 133.273 55.5445 131.762 54.0338C130.251 52.523 129.081 50.734 128.247 48.661C127.412 46.5881 126.997 44.339 126.997 41.9026H127.003ZM152.816 40.2839C152.77 35.871 151.958 32.3782 150.385 29.8111C148.806 27.244 146.671 25.9605 143.967 25.9605C142.525 25.9605 141.196 26.3069 139.98 27.0055C138.765 27.7041 137.703 28.6752 136.805 29.9077C135.902 31.1458 135.181 32.6451 134.642 34.4001C134.102 36.155 133.761 38.1144 133.631 40.2782H152.821L152.816 40.2839Z" fill="white"/>
<path d="M179.702 42.8513C183.081 45.3275 184.768 47.9855 184.768 50.8252C184.768 52.989 183.831 54.744 181.962 56.0957C180.094 57.4474 177.674 58.1232 174.698 58.1232H161.119V57.1747H174.295C175.959 57.1747 177.299 56.7942 178.316 56.0275C179.333 55.2608 179.838 54.2726 179.838 53.0572C179.838 52.069 179.531 51.1546 178.924 50.3197C178.316 49.4848 177.18 48.4626 175.51 47.2472L166.997 40.9657C163.618 38.4895 161.931 35.8089 161.931 32.9237C161.931 30.7599 162.857 29.0163 164.702 27.6873C166.548 26.3583 168.962 25.6938 171.932 25.6938H182.808V26.6423H172.336C170.666 26.6423 169.331 27.0115 168.315 27.7555C167.298 28.4995 166.792 29.4763 166.792 30.6974C166.792 31.731 167.099 32.6681 167.707 33.503C168.315 34.3379 169.45 35.3602 171.12 36.5756L179.702 42.857V42.8513Z" fill="white"/>
<path d="M186.932 15.1468C186.932 13.9769 187.29 13.0284 188.011 12.3071C188.732 11.5858 189.698 11.228 190.919 11.228C192.14 11.228 193.037 11.5915 193.758 12.3071C194.48 13.0284 194.837 13.9769 194.837 15.1468C194.837 16.3168 194.474 17.2539 193.758 17.9524C193.037 18.651 192.089 18.9974 190.919 18.9974C189.749 18.9974 188.732 18.651 188.011 17.9524C187.29 17.2539 186.932 16.3224 186.932 15.1468ZM187.948 30.6175C187.948 28.908 188.454 27.5449 189.47 26.5283C190.481 25.5117 191.844 25.0062 193.56 25.0062H193.832V58.1171H187.954V30.6175H187.948Z" fill="white"/>
<path d="M229.499 25.9607H219.094C222.155 27 224.592 28.7209 226.392 31.1289C228.193 33.537 229.096 36.4108 229.096 39.7446C229.096 41.863 228.704 43.8224 227.914 45.6227C227.125 47.4231 226.023 48.9793 224.603 50.2855C223.183 51.5918 221.496 52.6141 219.537 53.3581C217.578 54.1021 215.425 54.4712 213.085 54.4712C212.722 54.4712 212.455 54.4485 212.273 54.4031C209.661 54.6303 207.542 55.6071 205.924 57.345C204.299 59.0772 203.493 61.3206 203.493 64.0694C203.493 66.8183 204.447 68.9708 206.367 70.6575C208.281 72.3443 210.791 73.1905 213.903 73.1905C215.476 73.1905 217.021 72.9634 218.532 72.5147C220.043 72.066 221.457 71.4129 222.791 70.5553C224.12 69.6977 225.302 68.6868 226.341 67.5168C227.375 66.3469 228.232 65.0406 228.908 63.598L229.72 63.9388C228.141 67.4089 225.813 70.1237 222.729 72.0831C219.645 74.0424 216.141 75.025 212.222 75.025C210.104 75.025 208.133 74.741 206.31 74.1788C204.487 73.6165 202.896 72.8498 201.545 71.8786C200.193 70.9074 199.125 69.7715 198.336 68.4653C197.546 67.159 197.155 65.7392 197.155 64.2057C197.155 61.5023 198.12 59.2476 200.062 57.4473C201.999 55.6469 204.725 54.4542 208.235 53.8635C206.565 53.4149 205.06 52.7504 203.709 51.8701C202.357 50.9898 201.198 49.9448 200.227 48.7294C199.256 47.514 198.506 46.1509 197.961 44.6402C197.422 43.1295 197.149 41.4995 197.149 39.7389C197.149 37.575 197.541 35.5929 198.33 33.7926C199.12 31.9922 200.221 30.436 201.641 29.1298C203.061 27.8235 204.748 26.8126 206.707 26.0913C208.667 25.37 210.797 25.0122 213.091 25.0122H229.51V25.9607H229.499ZM222.746 39.7446C222.746 37.717 222.507 35.8599 222.036 34.1674C221.565 32.4806 220.9 31.0267 220.043 29.8113C219.185 28.5959 218.174 27.6474 217.004 26.9716C215.834 26.2958 214.528 25.9607 213.085 25.9607C211.643 25.9607 210.393 26.3014 209.201 26.9716C208.008 27.6474 206.991 28.5959 206.162 29.8113C205.327 31.0267 204.674 32.4806 204.203 34.1674C203.731 35.8542 203.493 37.717 203.493 39.7446C203.493 41.7721 203.731 43.6293 204.203 45.3161C204.674 47.0028 205.339 48.4568 206.196 49.6722C207.054 50.8875 208.065 51.8246 209.235 52.4778C210.405 53.1309 211.688 53.4603 213.085 53.4603C214.482 53.4603 215.845 53.1195 217.038 52.4494C218.231 51.7735 219.247 50.8364 220.077 49.6438C220.912 48.4511 221.565 47.0085 222.036 45.3217C222.507 43.635 222.746 41.7721 222.746 39.7502V39.7446Z" fill="white"/>
<path d="M238.421 58.1228H232.543V39.8806C232.543 37.6258 232.889 35.5926 233.588 33.7639C234.287 31.9408 235.275 30.3733 236.558 29.067C237.842 27.7607 239.387 26.7612 241.187 26.0626C242.987 25.364 244.992 25.0176 247.201 25.0176C249.411 25.0176 251.416 25.3697 253.216 26.0626C255.016 26.7612 256.561 27.7607 257.845 29.067C259.128 30.3733 260.116 31.9408 260.821 33.7639C261.519 35.5869 261.866 37.6258 261.866 39.8806V58.1228H255.988V37.1772C255.988 33.7979 255.187 31.0832 253.591 29.0329C251.989 26.9826 249.865 25.9604 247.207 25.9604C244.549 25.9604 242.363 26.9883 240.789 29.0329C239.211 31.0832 238.427 33.7979 238.427 37.1772V58.1228H238.421Z" fill="white"/>
<path d="M40 0C17.9071 0 0 17.9071 0 40C0 62.0929 17.9071 80 40 80C62.0929 80 80 62.0929 80 40C80 17.9071 62.0929 0 40 0ZM22.4961 63.9671C16.1976 63.9671 11.0919 58.8613 11.0919 52.5628V27.6189C11.0919 21.3205 16.1976 16.2147 22.4961 16.2147V63.9614V63.9671ZM64.2908 57.7652C61.985 59.9517 59.2532 61.6499 56.0954 62.8596C52.9377 64.0693 49.5016 64.677 45.7987 64.677C42.9022 64.677 40.2783 64.2737 37.9213 63.4673C35.5701 62.6608 33.5766 61.5079 31.9353 60.0085C30.2939 58.5148 29.0217 56.7202 28.1244 54.6301C27.2214 52.5401 26.7727 50.1888 26.7727 47.5763V16.2204H45.7987C49.5016 16.2204 52.9377 16.7883 56.0954 17.9299C59.2532 19.0714 61.985 20.6844 64.2908 22.7744C66.5966 24.8644 68.3913 27.369 69.6692 30.2939C70.9527 33.2131 71.5945 36.4845 71.5945 40.0909C71.5945 43.6973 70.9527 47.0027 69.6692 49.9957C68.3856 52.9888 66.5909 55.5786 64.2908 57.7652Z" fill="white"/>
<path d="M55.2776 24.9779C53.9486 23.1434 52.3414 21.7293 50.4672 20.7354C48.5873 19.7415 46.5143 19.2417 44.2312 19.2417H38.1713V54.4199C38.1713 59.236 40.71 61.6384 45.7987 61.6384C47.8433 61.6384 49.6948 61.1216 51.3588 60.0823C53.0229 59.0429 54.4598 57.5776 55.6695 55.675C56.8792 53.7781 57.8163 51.512 58.4865 48.8825C59.151 46.2529 59.486 43.328 59.486 40.1021C59.486 36.8762 59.1169 34.116 58.3842 31.5546C57.6459 28.9932 56.6123 26.7953 55.2833 24.9609L55.2776 24.9779Z" fill="white"/>
</svg>
