<svg width="263" height="80" viewBox="0 0 263 80" fill="none" xmlns="http://www.w3.org/2000/svg">
<path d="M90.4444 41.9026C90.4444 39.5173 90.859 37.2852 91.6939 35.2123C92.5287 33.1393 93.6646 31.3503 95.1072 29.8396C96.5498 28.3288 98.2706 27.1475 100.275 26.2899C102.28 25.4323 104.433 25.0064 106.727 25.0064C109.022 25.0064 111.174 25.4664 113.043 26.3922C114.911 27.3179 116.479 28.6355 117.74 30.345V14.0622C117.74 12.3527 118.245 11.001 119.262 10.0071C120.278 9.01888 121.636 8.5191 123.351 8.5191H123.623V40.886C123.623 43.5894 123.232 46.0429 122.442 48.2522C121.653 50.4615 120.551 52.3413 119.131 53.8918C117.711 55.448 116.002 56.652 113.997 57.5096C111.992 58.3672 109.771 58.7931 107.341 58.7931C104.91 58.7931 102.655 58.3785 100.582 57.5437C98.5092 56.7088 96.7201 55.5388 95.2094 54.0281C93.6987 52.5174 92.5287 50.7284 91.6939 48.6554C90.859 46.5824 90.4444 44.3334 90.4444 41.8969V41.9026ZM96.9984 41.9026C96.9984 44.2482 97.2597 46.395 97.7765 48.3544C98.2933 50.3138 99.0033 52.0006 99.9063 53.4204C100.809 54.8403 101.888 55.9307 103.149 56.6974C104.41 57.4641 105.807 57.8447 107.341 57.8447C108.874 57.8447 110.266 57.4641 111.532 56.6974C112.793 55.9307 113.883 54.8403 114.809 53.4204C115.729 52.0006 116.45 50.3138 116.973 48.3544C117.49 46.395 117.751 44.2425 117.751 41.9026C117.751 39.5627 117.49 37.4102 116.973 35.4508C116.456 33.4914 115.746 31.816 114.843 30.4189C113.94 29.0217 112.85 27.9426 111.566 27.1759C110.283 26.4092 108.874 26.0287 107.341 26.0287C105.807 26.0287 104.41 26.4092 103.149 27.1759C101.888 27.9426 100.804 29.0217 99.9063 30.4189C99.0033 31.816 98.2933 33.4914 97.7765 35.4508C97.2597 37.4102 96.9984 39.5627 96.9984 41.9026Z" fill="url(#paint0_linear_280_90)"/>
<path d="M96.2481 41.9029C96.2481 39.5075 96.5154 37.2894 97.0509 35.2593C97.5837 33.2392 98.3224 31.4873 99.2764 30.0113C100.228 28.5297 101.392 27.3662 102.76 26.5347C103.076 26.3427 103.399 26.1736 103.731 26.0259C102.636 26.229 101.583 26.5461 100.57 26.9791C98.6545 27.7986 97.0188 28.9239 95.6495 30.358C94.2774 31.795 93.1916 33.5017 92.3897 35.4927C91.5934 37.4701 91.1944 39.6063 91.1944 41.9029C91.1951 44.2501 91.5946 46.4014 92.3897 48.3755C93.1887 50.3592 94.3036 52.0618 95.7393 53.4976C97.1752 54.9335 98.8785 56.0492 100.862 56.8482C101.612 57.15 102.387 57.394 103.19 57.5816C103.045 57.5045 102.901 57.4244 102.76 57.3384C101.388 56.5041 100.23 55.326 99.2735 53.8228C98.3217 52.3262 97.5836 50.5651 97.0509 48.5455C96.5155 46.5157 96.2481 44.3038 96.2481 41.9029ZM97.7481 41.9029C97.7481 44.1927 98.0039 46.274 98.502 48.1627C99.0029 50.0617 99.6849 51.675 100.539 53.0181C101.389 54.3545 102.39 55.3571 103.539 56.0562C104.677 56.7481 105.938 57.0943 107.341 57.0943C108.742 57.0942 109.998 56.7489 111.143 56.0562L111.357 55.9214C112.42 55.229 113.362 54.2664 114.181 53.0103C115.05 51.6683 115.742 50.0573 116.248 48.1607C116.746 46.2727 117.001 44.1863 117.001 41.9029C117.001 39.6185 116.746 37.5308 116.248 35.6421C115.747 33.7435 115.065 32.144 114.213 30.8257C113.365 29.5145 112.356 28.5211 111.182 27.8199C110.018 27.125 108.743 26.7789 107.341 26.7789C105.938 26.7789 104.677 27.125 103.539 27.8169C102.386 28.5184 101.38 29.5123 100.537 30.8238L100.536 30.8257C99.6842 32.144 99.0028 33.7435 98.502 35.6421C98.0038 37.5309 97.7481 39.6184 97.7481 41.9029ZM116.989 14.0621C116.989 12.1958 117.547 10.6348 118.737 9.47125L118.739 9.46929C119.922 8.31953 121.481 7.76913 123.351 7.7691H124.373V40.8863C124.373 43.6621 123.971 46.2026 123.149 48.5044C122.33 50.7961 121.18 52.7654 119.685 54.398L119.684 54.397C118.189 56.0349 116.391 57.3007 114.292 58.1988C112.183 59.1008 109.861 59.5435 107.341 59.5435C104.823 59.5435 102.472 59.1138 100.302 58.2398C98.1398 57.369 96.2643 56.1437 94.6788 54.5582C93.0934 52.9727 91.8688 51.097 90.9981 48.9351C90.1788 46.9007 89.7497 44.7124 89.6993 42.3677L89.6944 41.897C89.6951 39.4251 90.1254 37.0991 90.9981 34.9322C91.8659 32.7775 93.0517 30.9062 94.5645 29.3218C96.0803 27.7344 97.8868 26.4958 99.9805 25.6002C102.084 24.7004 104.338 24.2564 106.728 24.2564C109.121 24.2565 111.39 24.7365 113.376 25.7203C114.731 26.3915 115.936 27.2583 116.989 28.3179V14.0621ZM118.489 32.6255L117.136 30.7906C115.973 29.2142 114.54 27.9957 112.835 27.1275C113.847 27.8904 114.725 28.8538 115.473 30.0113C116.427 31.4873 117.165 33.2392 117.698 35.2593C118.234 37.2894 118.501 39.5075 118.501 41.9029C118.501 44.298 118.234 46.5156 117.698 48.5455L117.697 48.5474C117.158 50.5686 116.409 52.3313 115.439 53.8287L115.438 53.8296C114.46 55.3294 113.292 56.5054 111.922 57.3384L111.92 57.3394C111.805 57.4088 111.689 57.474 111.572 57.5377C112.31 57.3501 113.021 57.1115 113.702 56.8199C115.612 56.0029 117.232 54.8603 118.577 53.3863L118.578 53.3853C119.923 51.917 120.976 50.1262 121.735 47.9996C122.492 45.8831 122.873 43.5169 122.873 40.8863V9.28375C121.552 9.36735 120.546 9.80368 119.785 10.5425C118.942 11.3667 118.489 12.5095 118.489 14.0621V32.6255Z" fill="url(#paint1_linear_280_90)"/>
<path d="M127.003 41.9025C127.003 39.4263 127.417 37.1489 128.252 35.0759C129.087 33.0029 130.257 31.2253 131.768 29.7373C133.278 28.2493 135.067 27.0907 137.14 26.2558C139.213 25.4209 141.485 25.0063 143.967 25.0063C146.216 25.0063 148.255 25.3925 150.084 26.1536C151.907 26.9203 153.474 28.0107 154.781 29.4306C156.087 30.8504 157.098 32.5599 157.819 34.5648C158.54 36.5696 158.898 38.7902 158.898 41.221H133.557V41.8969C133.557 44.197 133.841 46.2757 134.403 48.1499C134.965 50.0184 135.755 51.6313 136.766 52.983C137.777 54.3347 138.998 55.3741 140.412 56.0897C141.832 56.811 143.416 57.1688 145.177 57.1688C146.71 57.1688 148.181 56.9416 149.601 56.4929C151.021 56.0442 152.304 55.3911 153.452 54.5335C154.599 53.6759 155.616 52.665 156.49 51.495C157.37 50.3251 158.035 49.0415 158.484 47.6444H159.364C158.194 51.2054 156.269 53.9542 153.588 55.8909C150.907 57.8276 147.698 58.7987 143.961 58.7987C141.485 58.7987 139.208 58.3841 137.135 57.5493C135.062 56.7144 133.273 55.5444 131.762 54.0337C130.251 52.523 129.081 50.734 128.246 48.661C127.412 46.588 126.997 44.339 126.997 41.9025H127.003ZM152.816 40.2839C152.77 35.871 151.958 32.3782 150.385 29.8111C148.806 27.244 146.67 25.9605 143.967 25.9605C142.525 25.9605 141.196 26.3069 139.98 27.0055C138.765 27.704 137.703 28.6752 136.805 29.9076C135.902 31.1458 135.181 32.6451 134.641 34.4C134.102 36.155 133.761 38.1144 133.631 40.2782H152.821L152.816 40.2839Z" fill="url(#paint2_linear_280_90)"/>
<path d="M143.967 24.2563C146.157 24.2563 148.174 24.6088 150.008 25.3149L150.372 25.4614L150.375 25.4624C152.294 26.2693 153.951 27.4206 155.333 28.9223C156.714 30.4232 157.773 32.2223 158.524 34.311C159.279 36.4085 159.648 38.7166 159.648 41.2212V41.9712H152.191L152.084 42.0786L152.083 41.9712H134.308C134.314 44.1797 134.589 46.1599 135.121 47.9341L135.334 48.5952C135.853 50.1095 136.534 51.4209 137.366 52.5337C138.312 53.7985 139.445 54.7602 140.75 55.4204L140.752 55.4214C142.055 56.0833 143.521 56.4184 145.177 56.4184C146.635 56.4184 148.029 56.203 149.375 55.7778C150.718 55.3535 151.926 54.7383 153.003 53.9331C154.093 53.1181 155.058 52.1581 155.89 51.0464L155.891 51.0444C156.72 49.9417 157.346 48.7329 157.769 47.4155L157.936 46.894H160.399L160.076 47.8784C158.864 51.5687 156.853 54.4571 154.027 56.4985C151.203 58.539 147.835 59.5482 143.962 59.5483C141.401 59.5483 139.026 59.1193 136.854 58.2446C134.692 57.3739 132.817 56.1494 131.231 54.5639C129.646 52.9785 128.421 51.1029 127.551 48.9409C126.677 46.7709 126.247 44.4259 126.247 41.9028V41.1528H126.267C126.343 38.8768 126.768 36.7537 127.557 34.7954C128.428 32.6325 129.653 30.7667 131.241 29.2026C132.826 27.6413 134.701 26.4298 136.86 25.56C139.032 24.6854 141.4 24.2564 143.967 24.2563ZM139.931 26.1782C139.06 26.3705 138.224 26.6283 137.421 26.9516C135.435 27.7516 133.73 28.8573 132.294 30.2719C130.861 31.6837 129.747 33.3732 128.948 35.3559C128.153 37.3301 127.753 39.5115 127.753 41.9028V42.3706C127.803 44.5387 128.2 46.5365 128.942 48.3803C129.741 50.3641 130.856 52.0675 132.292 53.5034C133.728 54.9393 135.431 56.055 137.415 56.854C139.389 57.649 141.571 58.0483 143.962 58.0483C144.962 58.0483 145.92 57.9739 146.836 57.8305C146.29 57.8882 145.737 57.9184 145.177 57.9184C143.312 57.9184 141.609 57.5384 140.073 56.7583C138.55 55.9873 137.241 54.8705 136.165 53.4321C135.228 52.1793 134.479 50.7252 133.915 49.0815L133.685 48.3657C133.098 46.4114 132.807 44.2586 132.807 41.8969V40.4712H132.867L132.882 40.2329C133.015 38.0185 133.365 35.9989 133.925 34.1792C134.484 32.3606 135.238 30.7826 136.199 29.4653C137.153 28.1557 138.292 27.1104 139.606 26.355C139.714 26.2934 139.822 26.2348 139.931 26.1782ZM147.862 26.2104C148.943 26.832 149.889 27.7374 150.698 28.9165L151.023 29.4184L151.024 29.4194C152.6 31.9907 153.423 35.3803 153.55 39.5278H154.629L153.688 40.4712H158.136C158.069 38.4095 157.727 36.5261 157.113 34.8188C156.422 32.8979 155.46 31.2768 154.228 29.938C152.998 28.6003 151.52 27.5716 149.793 26.8452C149.177 26.5889 148.533 26.3771 147.862 26.2104ZM143.967 26.7104C142.65 26.7105 141.451 27.025 140.353 27.6557C139.237 28.2972 138.253 29.1944 137.412 30.3491L137.411 30.3501C136.566 31.5088 135.878 32.9297 135.358 34.6206C134.905 36.0958 134.594 37.7306 134.437 39.5278H152.05C151.924 35.5609 151.134 32.469 149.745 30.2026C148.284 27.8279 146.374 26.7104 143.967 26.7104Z" fill="url(#paint3_linear_280_90)"/>
<path d="M179.702 42.8512C183.081 45.3275 184.768 47.9854 184.768 50.8251C184.768 52.989 183.831 54.7439 181.962 56.0956C180.094 57.4473 177.674 58.1231 174.698 58.1231H161.119V57.1747H174.295C175.959 57.1747 177.299 56.7942 178.316 56.0275C179.333 55.2607 179.838 54.2725 179.838 53.0571C179.838 52.0689 179.531 51.1545 178.924 50.3197C178.316 49.4848 177.18 48.4625 175.51 47.2471L166.997 40.9657C163.618 38.4895 161.931 35.8088 161.931 32.9237C161.931 30.7598 162.857 29.0162 164.703 27.6873C166.548 26.3583 168.962 25.6938 171.932 25.6938H182.808V26.6422H172.336C170.666 26.6422 169.331 27.0114 168.315 27.7554C167.298 28.4994 166.793 29.4763 166.793 30.6973C166.793 31.731 167.099 32.6681 167.707 33.503C168.315 34.3378 169.45 35.3601 171.12 36.5755L179.702 42.8569V42.8512Z" fill="url(#paint4_linear_280_90)"/>
<path d="M184.018 50.8246C184.018 48.378 182.604 45.974 179.474 43.6205L170.678 37.1821L170.07 36.7289C168.701 35.6892 167.695 34.7619 167.1 33.9448C166.4 32.9824 166.043 31.8906 166.043 30.6977C166.043 29.2286 166.669 28.0298 167.872 27.1498C168.013 27.0465 168.159 26.9498 168.309 26.8598C167.089 27.1706 166.035 27.6522 165.14 28.2963C163.478 29.4934 162.681 31.0162 162.681 32.9233C162.681 35.3155 163.983 37.6483 166.846 39.9096L167.44 40.3608L167.442 40.3618L175.952 46.641L176.561 47.0932C177.93 48.133 178.935 49.0612 179.53 49.8784C180.226 50.8345 180.589 51.9019 180.589 53.0571C180.589 54.52 179.962 55.7255 178.767 56.6264C178.604 56.7496 178.433 56.8623 178.257 56.9672C179.512 56.6519 180.597 56.1568 181.522 55.4877C183.212 54.2655 184.018 52.7289 184.018 50.8246ZM167.543 30.6977C167.543 31.5718 167.798 32.3548 168.313 33.0619C168.782 33.7057 169.649 34.5252 170.968 35.5278L171.561 35.9692L171.563 35.9701L178.952 41.3774V41.3715L180.145 42.2465C183.621 44.7938 185.518 47.6483 185.518 50.8246C185.518 53.2481 184.45 55.2223 182.402 56.7035C180.373 58.1714 177.786 58.8735 174.698 58.8735H160.369V56.4243H174.295C175.847 56.4243 177.014 56.0708 177.865 55.4291C178.704 54.7966 179.089 54.0249 179.089 53.0571C179.089 52.2359 178.836 51.4747 178.317 50.7612C177.781 50.0254 176.725 49.0597 175.069 47.8539L175.065 47.851L166.553 41.5698C163.073 39.0194 161.181 36.1416 161.181 32.9233C161.181 30.5032 162.236 28.5393 164.264 27.0785C166.272 25.633 168.853 24.9438 171.932 24.9438H183.558V27.392H172.336C170.774 27.392 169.609 27.7373 168.757 28.3608C167.927 28.9688 167.543 29.7247 167.543 30.6977Z" fill="url(#paint5_linear_280_90)"/>
<path d="M186.932 15.147C186.932 13.9771 187.29 13.0286 188.011 12.3073C188.732 11.586 189.698 11.2282 190.919 11.2282C192.14 11.2282 193.037 11.5917 193.758 12.3073C194.48 13.0286 194.837 13.9771 194.837 15.147C194.837 16.317 194.474 17.2541 193.758 17.9526C193.037 18.6512 192.089 18.9977 190.919 18.9977C189.749 18.9977 188.732 18.6512 188.011 17.9526C187.29 17.2541 186.932 16.3227 186.932 15.147ZM187.948 30.6177C187.948 28.9082 188.454 27.5451 189.47 26.5285C190.481 25.5119 191.844 25.0065 193.56 25.0065H193.832V58.1173H187.954V30.6177H187.948Z" fill="url(#paint6_linear_280_90)"/>
<path d="M194.582 24.2566V58.8669H187.204V31.3679H187.198V30.6179C187.198 28.7509 187.756 27.1819 188.941 25.9978C190.12 24.813 191.689 24.2566 193.56 24.2566H194.582ZM193.082 25.7722C191.762 25.8568 190.756 26.2991 190.002 27.0573L190.001 27.0593C189.208 27.8523 188.76 28.914 188.704 30.3151V57.3669H193.082V25.7722ZM194.087 15.1472C194.087 14.1423 193.786 13.396 193.228 12.8376C192.664 12.2798 191.965 11.9783 190.919 11.9782C189.855 11.9782 189.094 12.2844 188.541 12.8376C187.983 13.396 187.682 14.1423 187.682 15.1472C187.682 16.1575 187.982 16.8809 188.532 17.4138C189.081 17.9457 189.894 18.2478 190.919 18.2478C191.931 18.2477 192.679 17.9532 193.236 17.4138C193.783 16.8791 194.087 16.1484 194.087 15.1472ZM195.587 15.1472C195.587 16.4843 195.165 17.6268 194.282 18.489L194.28 18.4909C193.395 19.3484 192.247 19.7477 190.919 19.7478C189.604 19.7478 188.383 19.3562 187.489 18.4909C186.597 17.6267 186.182 16.4878 186.182 15.1472C186.182 13.8121 186.596 12.6612 187.481 11.7771C188.37 10.8878 189.541 10.4782 190.919 10.4782C192.226 10.4783 193.27 10.8521 194.119 11.6169L194.286 11.7751L194.289 11.7771C195.173 12.6612 195.587 13.8123 195.587 15.1472Z" fill="url(#paint7_linear_280_90)"/>
<path d="M219.094 25.9606C222.155 26.9999 224.592 28.7208 226.392 31.1289C228.193 33.5369 229.096 36.4107 229.096 39.7445C229.096 41.8629 228.704 43.8223 227.914 45.6227C227.125 47.423 226.023 48.9792 224.603 50.2855C223.183 51.5917 221.497 52.614 219.537 53.358C217.578 54.102 215.425 54.4712 213.085 54.4712C212.722 54.4712 212.455 54.4485 212.273 54.403C209.661 54.6302 207.542 55.6071 205.924 57.345C204.299 59.0772 203.493 61.3205 203.493 64.0694C203.493 66.8182 204.447 68.9707 206.367 70.6575C208.281 72.3443 210.791 73.1905 213.903 73.1905C215.476 73.1905 217.021 72.9633 218.532 72.5146C220.043 72.066 221.457 71.4128 222.791 70.5552C224.12 69.6976 225.302 68.6867 226.341 67.5168C227.375 66.3468 228.232 65.0405 228.908 63.598L229.72 63.9387C228.141 67.4089 225.813 70.1236 222.729 72.083C219.645 74.0424 216.141 75.0249 212.222 75.0249C210.104 75.0249 208.133 74.741 206.31 74.1787C204.487 73.6164 202.896 72.8497 201.545 71.8785C200.193 70.9074 199.125 69.7715 198.336 68.4652C197.547 67.159 197.155 65.7391 197.155 64.2057C197.155 61.5023 198.12 59.2476 200.062 57.4472C201.999 55.6468 204.725 54.4541 208.235 53.8635C206.565 53.4148 205.06 52.7503 203.709 51.87C202.357 50.9897 201.198 49.9447 200.227 48.7293C199.256 47.5139 198.506 46.1509 197.961 44.6401C197.422 43.1294 197.149 41.4994 197.149 39.7388C197.149 37.575 197.541 35.5929 198.33 33.7925C199.12 31.9921 200.222 30.436 201.641 29.1297C203.061 27.8234 204.748 26.8125 206.707 26.0912C208.667 25.3699 210.797 25.0121 213.091 25.0121H229.51V25.9606H219.094ZM222.746 39.7445C222.746 37.717 222.507 35.8598 222.036 34.1673C221.565 32.4806 220.9 31.0266 220.043 29.8112C219.185 28.5958 218.174 27.6474 217.004 26.9715C215.834 26.2957 214.528 25.9606 213.085 25.9606C211.643 25.9606 210.393 26.3014 209.201 26.9715C208.008 27.6474 206.991 28.5958 206.162 29.8112C205.327 31.0266 204.674 32.4806 204.203 34.1673C203.731 35.8541 203.493 37.717 203.493 39.7445C203.493 41.7721 203.731 43.6292 204.203 45.316C204.674 47.0028 205.339 48.4567 206.196 49.6721C207.054 50.8875 208.065 51.8246 209.235 52.4777C210.405 53.1308 211.688 53.4602 213.085 53.4602C214.482 53.4602 215.846 53.1195 217.038 52.4493C218.231 51.7735 219.247 50.8364 220.077 49.6437C220.912 48.451 221.565 47.0085 222.036 45.3217C222.507 43.6349 222.746 41.772 222.746 39.7502V39.7445Z" fill="url(#paint8_linear_280_90)"/>
<path d="M221.996 39.7446C221.996 37.7762 221.765 35.9878 221.314 34.3696L221.135 33.7739C220.7 32.4111 220.13 31.2357 219.43 30.2436C218.628 29.1066 217.695 28.2361 216.629 27.6205C215.582 27.0156 214.407 26.7104 213.085 26.7104C211.774 26.7104 210.651 27.0164 209.57 27.6235C208.484 28.239 207.551 29.1067 206.782 30.2338L206.781 30.2358C206.001 31.3715 205.379 32.7474 204.925 34.3696C204.475 35.9817 204.243 37.7755 204.243 39.7446C204.243 41.7134 204.475 43.5014 204.925 45.1137C205.378 46.7327 206.009 48.1058 206.809 49.2397C207.61 50.3748 208.54 51.2308 209.6 51.8227C210.654 52.4112 211.812 52.7104 213.085 52.7104C214.361 52.7104 215.596 52.3989 216.67 51.7953C217.759 51.178 218.692 50.32 219.46 49.2153L219.462 49.2133C220.24 48.1029 220.861 46.7411 221.314 45.1196C221.764 43.5074 221.996 41.7136 221.996 39.7504V39.7446ZM223.496 39.7504C223.496 41.8307 223.251 43.7626 222.758 45.5239C222.269 47.2745 221.583 48.7965 220.692 50.0707L220.693 50.0717C219.803 51.3516 218.703 52.3678 217.408 53.102L217.406 53.103C217.263 53.1831 217.118 53.2581 216.971 53.3295C217.768 53.1599 218.535 52.9361 219.271 52.6567C221.149 51.9436 222.752 50.9697 224.095 49.7338C225.436 48.5 226.478 47.0297 227.227 45.3217C227.971 43.6241 228.345 41.7682 228.345 39.7446C228.345 36.5545 227.485 33.8421 225.792 31.5776C224.089 29.301 221.783 27.6651 218.853 26.6703L219.003 25.7621H216.199C216.604 25.9163 216.998 26.1017 217.379 26.3217C218.654 27.0578 219.743 28.0847 220.656 29.3784C221.571 30.6752 222.268 32.2107 222.758 33.9653C223.25 35.7316 223.496 37.6583 223.496 39.7446V39.7504ZM229.845 39.7446C229.845 41.9578 229.436 44.0211 228.601 45.9243C227.771 47.8167 226.609 49.4588 225.111 50.8373C223.615 52.2138 221.844 53.2842 219.803 54.059C217.749 54.8391 215.505 55.2211 213.085 55.2211C212.772 55.2211 212.486 55.2032 212.242 55.1596C209.837 55.3879 207.93 56.2903 206.472 57.8559L206.47 57.8578C204.998 59.4282 204.243 61.4779 204.243 64.0698C204.243 66.4571 205.009 68.3132 206.544 69.8012L206.862 70.0942L206.863 70.0952C208.612 71.6363 210.932 72.4408 213.903 72.4409C215.403 72.4409 216.876 72.2236 218.318 71.7953C219.759 71.3675 221.108 70.745 222.384 69.9252C223.656 69.1044 224.786 68.1379 225.779 67.02C226.765 65.9041 227.583 64.6582 228.229 63.2797L228.535 62.6274L230.723 63.5463L230.403 64.2495C228.767 67.8455 226.344 70.6752 223.131 72.7162C219.919 74.7575 216.273 75.7748 212.222 75.7748C210.036 75.7748 207.99 75.4814 206.088 74.895C204.199 74.3123 202.534 73.5127 201.107 72.4877C199.68 71.4628 198.54 70.2535 197.694 68.853C196.833 67.4283 196.405 65.874 196.405 64.2055C196.405 61.2998 197.452 58.8434 199.552 56.8969C201.105 55.4539 203.106 54.397 205.525 53.7026C204.744 53.357 204.003 52.9564 203.299 52.4985C201.883 51.5762 200.664 50.4779 199.641 49.1977C198.616 47.9142 197.827 46.478 197.255 44.895L197.254 44.892C196.684 43.294 196.399 41.5779 196.399 39.7387C196.399 37.4826 196.808 35.3966 197.643 33.4916C198.473 31.599 199.635 29.9562 201.133 28.5776C202.631 27.1995 204.405 26.1394 206.449 25.3871C208.499 24.6323 210.718 24.2621 213.091 24.2621H230.26V26.7104H222.548C224.295 27.7368 225.78 29.0584 226.993 30.6801C228.9 33.2317 229.845 36.2671 229.845 39.7446ZM197.899 39.7387C197.899 41.4195 198.159 42.9627 198.667 44.3852C199.186 45.8235 199.896 47.1139 200.813 48.2612C201.732 49.4117 202.831 50.4034 204.118 51.2416C205.399 52.0763 206.832 52.7096 208.43 53.1391L208.36 54.603C204.945 55.1776 202.37 56.3254 200.573 57.9965C198.788 59.6507 197.905 61.7046 197.905 64.2055C197.905 65.6038 198.26 66.8897 198.978 68.0776C199.71 69.2892 200.705 70.3518 201.982 71.269C203.259 72.1863 204.774 72.9204 206.531 73.4623C208.276 74.0004 210.171 74.2748 212.222 74.2748C214.315 74.2748 216.278 73.9827 218.115 73.4067C216.737 73.7602 215.331 73.9409 213.903 73.9409C210.65 73.9408 207.95 73.0527 205.872 71.2211L205.492 70.8705C203.654 69.0859 202.743 66.8363 202.743 64.0698C202.743 61.1641 203.6 58.7255 205.376 56.8315C206.801 55.3033 208.578 54.3261 210.674 53.8813C210.049 53.7035 209.446 53.4544 208.869 53.1323C207.589 52.418 206.498 51.4002 205.584 50.1049C204.668 48.808 203.97 47.2726 203.48 45.518C202.988 43.7568 202.743 41.8307 202.743 39.7446C202.743 37.6587 202.988 35.7266 203.48 33.9653C203.969 32.2139 204.654 30.6813 205.543 29.3862C206.433 28.0836 207.532 27.0545 208.831 26.3188L208.834 26.3178C208.92 26.2691 209.007 26.2217 209.094 26.1762C208.362 26.3362 207.652 26.5429 206.966 26.7953C205.091 27.4856 203.491 28.4477 202.149 29.6821C200.808 30.9158 199.766 32.3854 199.017 34.0932C198.274 35.7888 197.899 37.6673 197.899 39.7387Z" fill="url(#paint9_linear_280_90)"/>
<path d="M232.543 58.1229V39.8807C232.543 37.626 232.889 35.5927 233.588 33.764C234.287 31.9409 235.275 30.3734 236.558 29.0671C237.842 27.7608 239.387 26.7613 241.187 26.0627C242.987 25.3641 244.992 25.0177 247.201 25.0177C249.411 25.0177 251.416 25.3698 253.216 26.0627C255.016 26.7613 256.561 27.7608 257.845 29.0671C259.128 30.3734 260.116 31.9409 260.821 33.764C261.519 35.5871 261.866 37.626 261.866 39.8807V58.1229H255.987V37.1773C255.987 33.798 255.187 31.0833 253.591 29.033C251.989 26.9828 249.865 25.9605 247.207 25.9605C244.549 25.9605 242.363 26.9884 240.789 29.033C239.211 31.0833 238.427 33.798 238.427 37.1773V58.1229H232.543Z" fill="url(#paint10_linear_280_90)"/>
<path d="M237.677 37.1769C237.677 33.6842 238.488 30.7926 240.195 28.5753C240.92 27.6329 241.769 26.8898 242.721 26.3429C242.288 26.4637 241.867 26.6033 241.458 26.7618C239.75 27.4245 238.297 28.3675 237.093 29.5929C235.887 30.8198 234.954 32.2976 234.289 34.0314C233.628 35.7625 233.293 37.7037 233.293 39.881V57.3732H237.677V37.1769ZM239.177 58.8732H231.793V39.881C231.793 37.5488 232.152 35.4226 232.888 33.4962C233.62 31.5846 234.662 29.9263 236.023 28.5411C237.386 27.1542 239.023 26.0979 240.916 25.3634C242.815 24.6267 244.913 24.2677 247.201 24.2677C249.491 24.2677 251.589 24.6325 253.485 25.3624L253.487 25.3634C255.38 26.0979 257.017 27.1541 258.38 28.5411C259.656 29.8399 260.65 31.3776 261.378 33.1388L261.52 33.4933L261.521 33.4952C262.258 35.4168 262.615 37.5493 262.615 39.881V58.8732H255.237V37.1769C255.237 33.9148 254.465 31.3772 252.999 29.4933C251.543 27.6308 249.639 26.7101 247.207 26.7101C244.92 26.7101 243.054 27.5288 241.657 29.1544L241.384 29.4903C239.934 31.3734 239.177 33.9114 239.177 37.1769V58.8732ZM256.737 57.3732H261.115V39.881C261.115 37.7032 260.781 35.757 260.12 34.0323C259.45 32.2978 258.515 30.8195 257.31 29.5929C256.106 28.3678 254.653 27.4254 252.946 26.7628L252.625 26.6437C252.308 26.5309 251.985 26.4284 251.654 26.337C252.46 26.8028 253.193 27.411 253.848 28.1652L254.182 28.5714L254.183 28.5724C255.908 30.7888 256.737 33.6808 256.737 37.1769V57.3732Z" fill="url(#paint11_linear_280_90)"/>
<path d="M40 0C17.9071 0 0 17.9071 0 40C0 62.0929 17.9071 80 40 80C62.0929 80 80 62.0929 80 40C80 17.9071 62.0929 0 40 0ZM22.4961 63.9671C16.1976 63.9671 11.0919 58.8613 11.0919 52.5628V27.6189C11.0919 21.3205 16.1976 16.2147 22.4961 16.2147V63.9671ZM64.2908 57.7652C61.985 59.9517 59.2532 61.6499 56.0954 62.8596C52.9377 64.0693 49.5016 64.677 45.7987 64.677C42.9022 64.677 40.2783 64.2737 37.9213 63.4673C35.5701 62.6608 33.5766 61.5079 31.9353 60.0085C30.2939 58.5148 29.0217 56.7201 28.1244 54.6301C27.2214 52.5401 26.7727 50.1888 26.7727 47.5763V16.2204H45.7987C49.5016 16.2204 52.9377 16.7883 56.0954 17.9299C59.2532 19.0714 61.985 20.6844 64.2908 22.7744C66.5966 24.8644 68.3913 27.369 69.6692 30.2939C70.9527 33.2131 71.5945 36.4845 71.5945 40.0909C71.5945 43.6973 70.9527 47.0027 69.6692 49.9957C68.3856 52.9888 66.5909 55.5786 64.2908 57.7652Z" fill="url(#paint12_linear_280_90)"/>
<path d="M55.2776 24.9779C53.9486 23.1435 52.3413 21.7293 50.4671 20.7354C48.5873 19.7415 46.5143 19.2417 44.2312 19.2417H38.1712V54.4199C38.1712 59.2361 40.7099 61.6384 45.7987 61.6384C47.8433 61.6384 49.6947 61.1216 51.3588 60.0823C53.0229 59.043 54.4598 57.5777 55.6695 55.6751C56.8792 53.7781 57.8163 51.5121 58.4865 48.8825C59.1509 46.2529 59.486 43.3281 59.486 40.1022C59.486 36.8763 59.1169 34.1161 58.3842 31.5547C57.6459 28.9933 56.6122 26.7953 55.2833 24.9609L55.2776 24.9779Z" fill="url(#paint13_linear_280_90)"/>
<defs>
<linearGradient id="paint0_linear_280_90" x1="0" y1="40" x2="262.615" y2="40" gradientUnits="userSpaceOnUse">
<stop stop-color="#8B5C23"/>
<stop offset="0.25" stop-color="#AE8339"/>
<stop offset="0.5" stop-color="#D1AA4F"/>
<stop offset="1" stop-color="#8B5C23"/>
</linearGradient>
<linearGradient id="paint1_linear_280_90" x1="0" y1="40" x2="262.615" y2="40" gradientUnits="userSpaceOnUse">
<stop stop-color="#8B5C23"/>
<stop offset="0.25" stop-color="#AE8339"/>
<stop offset="0.5" stop-color="#D1AA4F"/>
<stop offset="1" stop-color="#8B5C23"/>
</linearGradient>
<linearGradient id="paint2_linear_280_90" x1="0" y1="40" x2="262.615" y2="40" gradientUnits="userSpaceOnUse">
<stop stop-color="#8B5C23"/>
<stop offset="0.25" stop-color="#AE8339"/>
<stop offset="0.5" stop-color="#D1AA4F"/>
<stop offset="1" stop-color="#8B5C23"/>
</linearGradient>
<linearGradient id="paint3_linear_280_90" x1="0" y1="40" x2="262.615" y2="40" gradientUnits="userSpaceOnUse">
<stop stop-color="#8B5C23"/>
<stop offset="0.25" stop-color="#AE8339"/>
<stop offset="0.5" stop-color="#D1AA4F"/>
<stop offset="1" stop-color="#8B5C23"/>
</linearGradient>
<linearGradient id="paint4_linear_280_90" x1="0" y1="40" x2="262.615" y2="40" gradientUnits="userSpaceOnUse">
<stop stop-color="#8B5C23"/>
<stop offset="0.25" stop-color="#AE8339"/>
<stop offset="0.5" stop-color="#D1AA4F"/>
<stop offset="1" stop-color="#8B5C23"/>
</linearGradient>
<linearGradient id="paint5_linear_280_90" x1="0" y1="40" x2="262.615" y2="40" gradientUnits="userSpaceOnUse">
<stop stop-color="#8B5C23"/>
<stop offset="0.25" stop-color="#AE8339"/>
<stop offset="0.5" stop-color="#D1AA4F"/>
<stop offset="1" stop-color="#8B5C23"/>
</linearGradient>
<linearGradient id="paint6_linear_280_90" x1="0" y1="40" x2="262.615" y2="40" gradientUnits="userSpaceOnUse">
<stop stop-color="#8B5C23"/>
<stop offset="0.25" stop-color="#AE8339"/>
<stop offset="0.5" stop-color="#D1AA4F"/>
<stop offset="1" stop-color="#8B5C23"/>
</linearGradient>
<linearGradient id="paint7_linear_280_90" x1="0" y1="40" x2="262.615" y2="40" gradientUnits="userSpaceOnUse">
<stop stop-color="#8B5C23"/>
<stop offset="0.25" stop-color="#AE8339"/>
<stop offset="0.5" stop-color="#D1AA4F"/>
<stop offset="1" stop-color="#8B5C23"/>
</linearGradient>
<linearGradient id="paint8_linear_280_90" x1="0" y1="40" x2="262.615" y2="40" gradientUnits="userSpaceOnUse">
<stop stop-color="#8B5C23"/>
<stop offset="0.25" stop-color="#AE8339"/>
<stop offset="0.5" stop-color="#D1AA4F"/>
<stop offset="1" stop-color="#8B5C23"/>
</linearGradient>
<linearGradient id="paint9_linear_280_90" x1="0" y1="40" x2="262.615" y2="40" gradientUnits="userSpaceOnUse">
<stop stop-color="#8B5C23"/>
<stop offset="0.25" stop-color="#AE8339"/>
<stop offset="0.5" stop-color="#D1AA4F"/>
<stop offset="1" stop-color="#8B5C23"/>
</linearGradient>
<linearGradient id="paint10_linear_280_90" x1="0" y1="40" x2="262.615" y2="40" gradientUnits="userSpaceOnUse">
<stop stop-color="#8B5C23"/>
<stop offset="0.25" stop-color="#AE8339"/>
<stop offset="0.5" stop-color="#D1AA4F"/>
<stop offset="1" stop-color="#8B5C23"/>
</linearGradient>
<linearGradient id="paint11_linear_280_90" x1="0" y1="40" x2="262.615" y2="40" gradientUnits="userSpaceOnUse">
<stop stop-color="#8B5C23"/>
<stop offset="0.25" stop-color="#AE8339"/>
<stop offset="0.5" stop-color="#D1AA4F"/>
<stop offset="1" stop-color="#8B5C23"/>
</linearGradient>
<linearGradient id="paint12_linear_280_90" x1="0" y1="40" x2="262.615" y2="40" gradientUnits="userSpaceOnUse">
<stop stop-color="#8B5C23"/>
<stop offset="0.25" stop-color="#AE8339"/>
<stop offset="0.5" stop-color="#D1AA4F"/>
<stop offset="1" stop-color="#8B5C23"/>
</linearGradient>
<linearGradient id="paint13_linear_280_90" x1="0" y1="40" x2="262.615" y2="40" gradientUnits="userSpaceOnUse">
<stop stop-color="#8B5C23"/>
<stop offset="0.25" stop-color="#AE8339"/>
<stop offset="0.5" stop-color="#D1AA4F"/>
<stop offset="1" stop-color="#8B5C23"/>
</linearGradient>
</defs>
</svg>
