<?xml version="1.0" encoding="utf-8"?>
<!-- Generator: Adobe Illustrator 28.2.0, SVG Export Plug-In . SVG Version: 6.00 Build 0)  -->
<svg version="1.1" id="Camada_1" xmlns="http://www.w3.org/2000/svg" xmlns:xlink="http://www.w3.org/1999/xlink" x="0px" y="0px"
	 viewBox="0 0 418 78" style="enable-background:new 0 0 418 78;" xml:space="preserve">
<style type="text/css">
	.st0{fill:#FFFFFF;}
</style>
<path class="st0" d="M80,25.2C80,25.2,80,25.2,80,25.2c-0.5,0-0.8,0.4-0.8,0.8c0,0.4,0.4,0.7,0.9,0.8c0.5,0,0.9-0.3,0.9-0.8
	C80.9,25.6,80.4,25,80,25.2z"/>
<path class="st0" d="M82.4,30.1C82.4,30.1,82.4,30.1,82.4,30.1c-0.3,0-0.6,0.3-0.6,0.6c0,0.3,0.3,0.5,0.6,0.6c0.3,0,0.7-0.2,0.6-0.6
	C83.1,30.4,82.8,30,82.4,30.1z"/>
<path class="st0" d="M85.4,35.2C85.4,35.2,85.4,35.2,85.4,35.2c-0.3,0-0.6,0.3-0.6,0.6c0,0.3,0.3,0.5,0.6,0.6c0.3,0,0.7-0.2,0.6-0.6
	C86.1,35.5,85.7,35.1,85.4,35.2z"/>
<path class="st0" d="M83.4,27.8C83.4,27.8,83.4,27.8,83.4,27.8c-0.4,0-0.7,0.4-0.7,0.8c0,0.5,0.4,0.8,0.8,0.8c0.4,0,0.9-0.3,0.8-0.8
	C84.3,28.3,83.8,27.6,83.4,27.8z"/>
<path class="st0" d="M81.3,33.1c0.2-0.2,0.3-0.6,0-0.8c-0.2-0.2-0.5-0.2-0.7,0c0,0-0.1,0-0.1,0.1c-0.2,0.2-0.2,0.5,0,0.8
	C80.7,33.3,81.1,33.3,81.3,33.1z"/>
<path class="st0" d="M77.6,25.8c0.1-0.1,0.2-0.3,0.1-0.4c-0.1-0.1-0.3-0.1-0.4,0c-0.2,0-0.3,0.2-0.2,0.4
	C77.3,25.8,77.5,25.9,77.6,25.8L77.6,25.8z"/>
<path class="st0" d="M79.7,32.6c0.1,0,0.2-0.1,0.2-0.3c0-0.1-0.2-0.2-0.3-0.2c0,0,0,0,0,0c0,0,0,0-0.1,0c-0.1,0-0.2,0.2-0.1,0.3
	C79.4,32.6,79.6,32.6,79.7,32.6z"/>
<path class="st0" d="M98.5,38.1C98.1,13.3,78.4,0,59.8,0H25l2.8,0.7c3.1,0.8,6.9,3.1,7.6,6.2l0,63.9c-0.8,3.1-4.4,5.5-7.7,6.4
	L25.4,78h20.1V64.8c0.8,2.9,2.3,5.6,4.3,7.7c3.6,3.6,8.5,5.6,14,5.6c16.8,0,34.7-13.7,34.7-39.1L98.5,38.1L98.5,38.1z M83.1,37.1
	C83.1,37.2,83,37.2,83.1,37.1c-0.4,0.4-1.1,0.5-1.7,0.5l-0.3,0c-1.5,0.1-3.1,0.1-4.7,0.1c-0.5,0-0.9,0-1.4,0
	c0.6-0.1,1.3-0.3,1.9-0.5c2.7-0.7,5.3-2.3,5.3-2.3c0.3,0,0.6,0.1,0.7,0.3c0.1,0.1,0.1,0.2-0.1,0.4c0,0.1-0.1,0.1-0.1,0.2l-0.2,0.3
	l0,0c0,0.2,0,0.4,0.1,0.5c0.1,0.1,0.2,0.2,0.3,0.3l0.2-0.2c0,0,0,0,0,0L83.1,37.1C83.1,37.1,83.1,37.1,83.1,37.1z M79.7,30.4
	L79.7,30.4C79.7,30.4,79.7,30.5,79.7,30.4L79.7,30.4z M76.2,25.9c0,0,0.1,0.1,0,0.2c0,0.2-0.1,0.4-0.2,0.6c-0.1,0.1-0.1,0.2-0.2,0.3
	c-0.2,0.5-0.2,1.1,0,1.6l0,0.1c0.1,0.1,0.1,0.2,0.2,0.3c0.3,0.4,0.8,0.6,1.2,0.8c0.2,0.1,0.4,0.1,0.5,0.3c0.5,0.3,0.6,1,0.6,1.5
	c0,0.2,0,0.4,0,0.5c-0.1,0.5-0.1,1,0.1,1.6c0.3,0.6,0.8,1.1,1.4,1.3c0.6,0.2,1.1,0.1,1.7,0c0.2,0,0.3,0,0.5-0.1l-0.1,0
	c-0.9,0.4-1.7,0.7-2.6,1c-0.8,0.2-1.7,0.4-2.7,0.6c-0.9,0.1-1.9,0.2-2.8,0.3c-0.1,0-0.3,0-0.4,0c0.3-0.1,0.5-0.2,0.8-0.3
	c1.4-0.9,2-1.6,3.1-2.7c0.1-0.2-0.1,0-0.1,0c-0.5,0.3-0.9,0.7-1.4,0.9c-0.6,0.4-1.3,0.7-1.9,1c-1,0.4-2,0.8-3.1,1.1c0,0,0.1,0,0.1,0
	c0.1-0.1,3.5-2.4,3.4-2.6c0,0-3.5,1.6-3.8,1.8l0-0.1L70.3,36c-0.1-0.1-0.2-0.1-0.3-0.1c0.5-0.6,4.1-4,5.4-4.6c0,0,0.2-0.2,0-0.1
	c-1.4,0.6-2.9,1.1-4.1,2.1c-0.4,0.4-0.9,0.8-1.3,1.2c0.6-0.9,2.2-3,2.2-3c-0.2-0.2-1.9,1-2.4,1.7c0.7-1.7,1.7-3.3,3-4.7
	c0.4-0.5,0.9-0.9,1.4-1.4l0.2-0.2c0.4-0.4,0.9-0.8,1.4-1C76.1,25.9,76.2,25.9,76.2,25.9z M76,38.8l-0.3-0.1
	C75.8,38.8,75.9,38.8,76,38.8c1.6,0,3.3,0,4.9-0.1l0.1,0c0.3,0,0.6,0,0.8-0.1c0,0,0.1,0.1,0.1,0.1c0.2,0.1,0.3,0.2,0.3,0.3
	c0,0.2,0,0.4-0.1,0.5l0,0c-0.1,0.1-0.3,0.2-0.5,0.3C81.7,39.9,78.9,40.3,76,38.8z M82.6,33.5c0,0.1-0.1,0.2-0.1,0.4
	c-0.1,0-0.2,0-0.3,0c-0.1,0-0.2,0-0.3,0c-0.1-0.2-0.2-0.3-0.4-0.4c-0.2-0.2-0.5-0.2-0.8-0.2c-0.3,0.1-0.6,0.3-0.7,0.5
	c0,0-0.1,0-0.1-0.1c-0.2-0.2-0.4-0.4-0.5-0.6c-0.1-0.3,0-0.6,0-1l0-0.2c0-0.3,0-0.5,0-0.7c0,0,0.1,0,0.1,0c0.2,0,0.4,0,0.6-0.2
	c0.1-0.1,0.1-0.1,0.2-0.2c-0.1,0.1-0.1,0.3-0.1,0.5c0,0.2,0,0.3,0.1,0.5c0,0.1,0,0.2,0.1,0.2c0.2,0.4,0.7,0.7,1.2,0.6
	c0.1,0,0.2,0,0.3,0c0.5-0.1,0.6,0,0.7,0.1c0,0.1,0,0.3,0.1,0.3C82.7,33.2,82.7,33.3,82.6,33.5z M79.9,28.8c-0.1,0.3-0.3,0.6-0.4,0.8
	c-0.2,0-0.4,0.1-0.4,0.3c-0.2-0.3-0.4-0.5-0.6-0.7c-0.1-0.1-0.2-0.1-0.3-0.2c0-0.1,0-0.1,0-0.2c0-0.2-0.1-0.3-0.3-0.4
	c0-0.1,0.1-0.2,0.1-0.4c0,0,0,0,0-0.1c0.1,0.1,0.1,0.2,0.2,0.3c0.2,0.2,0.5,0.2,0.7,0.2c0.2,0,0.3-0.1,0.4-0.2
	c0.1,0,0.2,0.1,0.3,0.2C80,28.6,80,28.7,79.9,28.8z M77.8,25.9c0,0-0.1,0.1-0.1,0.1c-0.2,0.1-0.3,0.3-0.4,0.5c0,0.2,0,0.4,0.1,0.6
	c0,0,0,0.1,0,0.1c0,0.1,0,0.1,0,0.2c0,0.1-0.1,0.2-0.2,0.4c-0.1,0.2-0.2,0.3-0.2,0.5c0-0.1-0.1-0.1-0.1-0.2c-0.1-0.3,0-0.6,0.2-0.9
	c0.2-0.4,0.6-1.4-0.1-2c-0.2-0.2-0.5-0.3-0.8-0.3c-0.3,0-0.5,0.1-0.8,0.2c-0.2-0.2-0.4-0.3-0.6-0.4c-0.1-0.1-0.1-0.2-0.2-0.3
	c0.4-0.2,0.7-0.3,1.1-0.3c0.3,0,0.4,0,0.5,0.1c0.1,0.1,0.1,0.2,0.1,0.3l0.1,0.2c0.1,0.1,0.2,0.3,0.3,0.4c0.1,0.1,0.3,0.2,0.4,0.2
	c0.1,0,0.1,0,0.2,0.1C77.7,25.3,77.8,25.6,77.8,25.9z M74.6,25.5c-0.5,0.4-1,0.8-1.5,1.2c-1.3,1.2-2.3,2.5-3.2,4
	c0-0.1,0.1-0.2,0.1-0.2c0-1.4,0.7-3,1.5-4l-0.2,0c-0.9,0.9-1.6,2-2.2,3.5c-0.1,0.2-0.1,0.4-0.2,0.6c0.1-0.9,0.4-1.9,0.7-3v0
	c0.2-0.6,0.4-1.1,0.6-1.7l0.1-0.2c0.1-0.2,0.3-0.9,0.5-0.9c0,0,0.1,0.1,0.1,0.2c0.1,0.2,0.3,0.5,0.7,0.5c0.3,0,0.5-0.1,0.7-0.3
	c0.1-0.1,0.2-0.2,0.2-0.2c0.1-0.1,0.2-0.2,0.4-0.4l0.1-0.1c0.1-0.1,0.5-0.4,0.6-0.4c0,0,0.1,0.2,0.1,0.2l0,0.1
	c0.1,0.2,0.2,0.4,0.4,0.6c0.1,0.1,0.2,0.1,0.3,0.2C74.4,25.5,74.5,25.5,74.6,25.5z M81.2,31.5c0-0.1,0-0.2,0.1-0.4
	c0-0.1,0.1-0.3,0.1-0.6c0,0,0.1-0.1,0.1-0.2c0.1-0.2,0.1-0.4,0-0.5c-0.1-0.2-0.2-0.3-0.4-0.4c-0.1,0-0.3-0.1-0.4,0
	c0,0,0-0.1,0.1-0.1c0.1-0.2,0.3-0.5,0.3-0.9c-0.1-0.6-0.8-0.9-1.2-1.1c-0.1-0.3-0.4-0.5-0.7-0.5l-0.1-0.1l-0.2,0c0,0,0,0,0,0
	c0-0.1,0-0.2,0-0.3c0-0.2-0.1-0.4-0.2-0.5c0.1-0.4,0-0.9-0.2-1.3c-0.2-0.2-0.4-0.4-0.6-0.5l-0.2-0.1c-0.1-0.1-0.2-0.1-0.2-0.1
	c0-0.1-0.1-0.1-0.2-0.3C77,23.2,76.6,23,76,23c-0.6,0-1.2,0.1-1.8,0.4c-0.6-0.4-1.4,0.1-1.8,0.4c-0.3,0.2-0.5,0.4-0.7,0.6
	c0,0-0.1-0.1-0.1-0.1c-0.4-0.5-1-0.6-1.6-0.2c-0.5,0.4-0.7,1-0.8,1.5c0,0.1-0.1,0.2-0.1,0.3c-0.5,1.5-0.9,2.9-1.1,4.2
	c-0.3,1.6-0.3,3.2-0.1,4.8c-0.3,0.9-0.3,2,0,2.9c-1.1,0.9-4.8,3.6-10.7,4.8c3.4-2.9,5.4-7.4,5.5-12.5c0-1.7-0.1-3.3-0.5-4.9h0
	c0-0.1-0.4-1.3-0.4-1.2c-0.5,1-2.1,2.7-2.8,3.5L58.8,28c-1,1.1-1.8,2.1-2.5,3.2c-1.4,2.3-2.2,5-2.3,7.6c0,0.6,0,1.2,0,1.8l0,0.8
	c0,0.7,0,1.4-0.1,2.2c0,0,0,0,0,0c-2,0.8-3.6,1.9-5,3.4c-1.6,1.8-2.8,4-3.5,6.4V1.9h14.3c16.8,0,28.6,15.3,28.6,37.1
	c0,21.6-10.3,37.2-24.6,37.2c-6.4,0-10.4-2.7-12.6-4.9c-3-3-4.6-7.2-4.6-12.1c0-2.6,0.4-4.9,1.2-6.9c0.4,0.1,0.7,0.2,1.1,0.3
	c0.5,0.1,1,0.3,1.5,0.4c1.2,0.2,2.4,0.2,3.6,0.1c1.2-0.1,2.3-0.5,3.4-0.9c0.3-0.2,0.7-0.3,1-0.5c0.2-0.1,0.4-0.2,0.5-0.3
	c0.5-0.2,2.1-0.8,2.7-0.9c0,0-1.2-0.7-1.2-0.7c0,0,0,0,0,0c-3.2-1.7-7.5-1.9-10.8-0.5c0.2-0.3,0.4-0.5,0.7-0.8
	c1.7-1.9,4-3.2,6.8-3.7c4.5,4.7,11.4,4.8,15.2,4.5c1.5-0.1,3.6-0.4,5.5-0.9c0.1,0,1.1-0.3,1.1-0.3l-1.5-1c-2.2-1.3-4.5-2.7-7-3.5
	c-1.9-0.6-4-0.9-6.5-0.9c2.8-1.3,4.6-2.7,5.3-3.3c0.5,0.2,1.1,0.3,1.6,0.4c0.2,0,0.3,0,0.5,0.1c0.1,0,0.2,0,0.3,0.1
	c0.6,0.1,1.4,0.3,2-0.2c0,0,0,0,0,0c0.4,0.1,0.8,0.2,1.3,0.3l0.3,0.1c0.8,0.2,1.7,0.5,2.5,0.7c0.8,0.2,1.7,0.4,2.8,0.4
	c0.9,0,2,0,2.7-0.8c0.3-0.4,0.5-0.9,0.4-1.3c0-0.2-0.1-0.4-0.3-0.6c0,0,0,0,0,0c0.3-0.1,0.9-0.5,1-1c0.1-0.3,0-0.5-0.2-0.8
	c-0.1-0.1-0.2-0.2-0.3-0.2c0,0,0-0.1,0.1-0.1l0.1-0.1c0.1-0.2,0.3-0.5,0.2-0.8c0.2-0.4,0.1-1-0.2-1.3c-0.1-0.1-0.2-0.2-0.3-0.2l0,0
	c0,0,0-0.1,0-0.1c0.1-0.3,0.1-0.6,0.1-0.9c-0.1-0.6-0.6-1-1.3-1.1c-0.2,0-0.3,0-0.5,0c-0.1,0-0.1,0-0.2,0c-0.2,0-0.3,0-0.5-0.1"/>
<g>
	<path class="st0" d="M20,71v-64C21,3.7,24.5,1.3,28,0.4h-25c3.4,0.9,7.1,3.3,7.9,6.6v64c-0.8,3.2-4.5,5.7-7.9,6.7h25
		C24.5,76.6,21,74.2,20,71L20,71z"/>
	<path class="st0" d="M30.6,78H0.3l2.5-0.7c3.3-0.9,6.9-3.3,7.7-6.4l0-63.9C9.7,3.9,6,1.5,2.8,0.7L0,0h30.9l-2.8,0.7
		c-3.1,0.8-6.7,3.1-7.6,6.3v63.9c0.9,3.1,4.5,5.4,7.7,6.4L30.6,78z M5,77.3h20.9c-2.7-1.2-5.4-3.3-6.2-6.2l0-0.1l0-64.1
		c0.8-2.8,3.4-4.9,6.1-6.1H5.1c2.8,1.2,5.4,3.3,6.1,6.1l0,64.1C10.5,73.8,7.8,76,5,77.3z"/>
</g>
<g>
	<path class="st0" d="M415.8,56.8V10.6h1.8v57.6h-0.7l-34.7-54.8v54.8h-1.8V12.7l-3.3-1.4v-0.7h9.5L415.8,56.8z"/>
	<path class="st0" d="M418,68.6h-1.3l-0.1-0.2l-34-53.7v53.9H380V13l-3.3-1.4v-1.4h10.1l28.6,45.3V10.2h2.5V68.6z M417.1,67.9h0.2
		V11h-1v47.1L386.4,11h-9v0.1l3.3,1.4v55.4h1V12.2L417.1,67.9z"/>
</g>
<g>
	<path class="st0" d="M343.8,9.4c3.6,0.2,7,1.3,10.2,3.2c3.3,1.9,6,4.7,8.1,8.7l-1.2,0.4c-2.1-3.5-4.6-6.1-7.7-7.8
		c-3.1-1.7-6.3-2.5-9.7-2.5c-3.9,0.1-7.2,0.9-10.1,2.5c-2.8,1.6-5.2,3.7-7.1,6.4c-1.8,2.6-3.3,5.6-4.2,9c-0.9,3.3-1.4,6.7-1.4,10.2
		c0.1,3.5,0.5,6.9,1.5,10.3c0.9,3.3,2.3,6.3,4.2,8.9c1.8,2.6,4.2,4.7,6.9,6.4c2.8,1.6,6,2.4,9.6,2.4c3.5,0,6.6-0.6,9.3-1.8
		c2.8-1.3,4.9-2.8,6.4-4.5V40.6l-3.3-1.4v-0.7h8.2v18.2c-0.3,0.8-0.8,1.6-1.4,2.4c-0.5,0.8-1.1,1.5-1.7,2.3
		c-0.1,0.1-0.2,0.2-0.2,0.3c-0.1,0.1-0.1,0.1-0.2,0.2c-0.1,0.1-0.2,0.3-0.4,0.5c-2.3,2.5-4.9,4.3-8,5.4c-3,1.1-6.1,1.7-9.4,1.8
		c-4.5,0.1-8.4-0.8-11.8-2.5c-3.4-1.7-6.2-3.9-8.5-6.7c-2.2-2.8-3.9-6.1-5.1-9.7c-1.1-3.7-1.7-7.4-1.7-11.1c0-3.8,0.5-7.6,1.6-11.2
		c1.1-3.7,2.8-6.9,5.1-9.7c2.2-2.8,5-5.1,8.4-6.9c3.4-1.7,7.4-2.6,11.9-2.6c0.3,0,0.7,0,1,0.1C343.1,9.4,343.4,9.4,343.8,9.4z"/>
	<path class="st0" d="M341.5,70.1c-4.3,0-8.2-0.8-11.6-2.5c-3.4-1.7-6.3-4-8.6-6.8c-2.3-2.9-4-6.2-5.1-9.8
		c-1.1-3.7-1.7-7.5-1.7-11.2c0-3.8,0.6-7.6,1.6-11.3c1.2-3.7,2.9-7,5.1-9.9c2.3-2.9,5.1-5.2,8.5-7c3.5-1.8,7.5-2.7,12.1-2.7
		c0.3,0,0.7,0,1,0.1l0.9,0l0,0c3.6,0.2,7.1,1.3,10.4,3.2c3.3,1.9,6.1,4.8,8.2,8.8l0.2,0.4l-1.9,0.6l-0.2-0.3c-2-3.5-4.6-6-7.6-7.6
		c-3-1.7-6.2-2.5-9.5-2.5c-3.8,0.1-7.1,0.9-9.9,2.5c-2.8,1.6-5.1,3.7-7,6.3c-1.8,2.6-3.2,5.6-4.2,8.9c-0.9,3.3-1.4,6.7-1.4,10.1
		c0.1,3.4,0.5,6.9,1.5,10.2c0.9,3.3,2.3,6.2,4.1,8.8c1.8,2.6,4.1,4.7,6.8,6.3c2.7,1.5,5.9,2.3,9.4,2.3c3.4,0,6.5-0.6,9.1-1.8
		c2.6-1.2,4.7-2.6,6.2-4.3V40.9l-3.3-1.4v-1.3h8.9l0,18.7c-0.3,0.8-0.8,1.6-1.4,2.4c-0.5,0.8-1.1,1.5-1.7,2.3
		c-0.1,0.1-0.2,0.2-0.2,0.3l-0.1,0.1l-0.2,0.2c0,0.1-0.2,0.3-0.4,0.5c-2.3,2.5-5,4.3-8.1,5.5c-3,1.2-6.2,1.8-9.5,1.8
		C341.8,70.1,341.6,70.1,341.5,70.1z M341.8,9.7c-4.4,0-8.4,0.9-11.7,2.6c-3.3,1.7-6.1,4-8.3,6.8c-2.2,2.8-3.9,6-5,9.6
		c-1.1,3.6-1.6,7.3-1.6,11.1c0,3.7,0.6,7.4,1.7,11c1.1,3.5,2.8,6.8,5,9.5c2.2,2.7,5,4.9,8.4,6.6c3.4,1.7,7.3,2.5,11.6,2.4
		c3.2-0.1,6.3-0.7,9.2-1.8c3-1.1,5.6-2.9,7.9-5.3c0.3-0.3,0.3-0.4,0.3-0.4l0.1-0.1l0.2-0.2c0.1-0.1,0.2-0.2,0.3-0.4
		c0.6-0.7,1.1-1.5,1.7-2.2c0.6-0.8,1-1.5,1.3-2.2V39l-7.4,0l3.3,1.4v20.9l-0.1,0.1c-1.6,1.8-3.8,3.3-6.6,4.6
		c-2.8,1.2-5.9,1.8-9.4,1.8c-3.7,0-7-0.8-9.8-2.4c-2.8-1.7-5.2-3.8-7-6.5c-1.9-2.6-3.3-5.7-4.2-9c-0.9-3.4-1.4-6.9-1.5-10.4
		c0-3.5,0.5-7,1.4-10.3c1-3.4,2.4-6.5,4.3-9.1c1.9-2.7,4.4-4.9,7.2-6.5c2.9-1.7,6.4-2.5,10.3-2.6c3.4,0,6.7,0.9,9.9,2.6
		c3.1,1.6,5.7,4.2,7.7,7.7l0.5-0.2c-2-3.7-4.6-6.4-7.7-8.1c-3.1-1.9-6.5-2.9-10-3.1h-1C342.4,9.7,342.1,9.7,341.8,9.7z"/>
</g>
<g>
	<path class="st0" d="M291,10.7h8.4v57.6h-5.1V12.8l-3.3-1.4V10.7z"/>
	<path class="st0" d="M299.8,68.7h-5.9V13.1l-3.3-1.4v-1.4h9.1V68.7z M294.6,67.9h4.4V11h-7.7v0.1l3.3,1.4V67.9z"/>
</g>
<g>
	<path class="st0" d="M275.4,17.8c-0.8-1.1-1.8-2-2.9-2.9c-1.1-0.8-2.3-1.5-3.6-2c-1.3-0.6-2.7-1-4.2-1.3c-1.4-0.3-2.8-0.4-4.2-0.4
		c-2,0-3.9,0.3-5.7,0.8c-1.8,0.5-3.3,1.4-4.6,2.6c-1.4,1.3-2.4,2.7-2.9,4.2c-0.5,1.5-0.7,2.9-0.5,4.3c0.3,1.4,0.9,2.8,1.9,4.1
		c1,1.3,2.2,2.5,3.8,3.4c1.4,0.8,3,1.6,4.8,2.5c1.8,0.8,3.8,1.6,5.8,2.5c2.1,0.9,4.1,1.9,6,3c2,1,3.8,2.3,5.4,3.7
		c1.6,1.4,2.9,3,3.8,4.8c1,1.8,1.5,3.9,1.5,6.2c0,2.6-0.5,4.9-1.5,7c-1,2-2.3,3.7-4,5.1c-1.7,1.4-3.6,2.4-5.9,3.1
		c-2.2,0.7-4.6,1.1-7,1.1c-3.9,0-7.6-0.8-11.3-2.5c-3.6-1.7-6.8-4.1-9.5-7.2l1-0.8c2.5,2.9,5.5,5,9,6.5c3.5,1.4,7.1,2.1,10.8,2.1
		c1.8-0.1,3.6-0.5,5.3-1.1c1.7-0.6,3.2-1.5,4.4-2.6c1.3-1.1,2.3-2.6,3-4.3c0.8-1.7,1.1-3.6,1-5.8c-0.1-1.6-0.5-3.1-1.5-4.5
		c-0.9-1.4-2.1-2.6-3.6-3.7c-1.4-1.1-3-2.2-4.9-3.1c-1.8-0.9-3.6-1.8-5.5-2.5c-1.8-0.8-3.6-1.6-5.4-2.3c-1.7-0.7-3.2-1.4-4.5-2
		c-2.3-1.2-4.2-2.8-5.6-4.8c-1.4-2-2.1-4.3-2.2-7c0-2.4,0.5-4.5,1.5-6.3c1-1.9,2.4-3.4,4.1-4.6c1.7-1.3,3.6-2.2,5.6-2.8
		c2.1-0.6,4.3-0.9,6.4-0.9c3.2,0,6.3,0.6,9.3,1.9c3,1.3,5.5,3.1,7.3,5.6L275.4,17.8z"/>
	<path class="st0" d="M261.3,70c-3.9,0-7.8-0.8-11.5-2.5c-3.7-1.7-6.9-4.2-9.6-7.3l-0.2-0.3l1.5-1.3l0.2,0.3c2.5,2.8,5.4,5,8.8,6.4
		c3.4,1.4,7,2.1,10.7,2.1c1.8-0.1,3.5-0.5,5.2-1c1.6-0.6,3.1-1.4,4.3-2.5c1.3-1.1,2.2-2.5,2.9-4.1c0.7-1.6,1.1-3.5,0.9-5.7
		c-0.1-1.6-0.5-3-1.4-4.3c-0.9-1.3-2.1-2.5-3.5-3.6c-1.4-1.1-3-2.2-4.8-3.1c-1.8-0.9-3.6-1.8-5.4-2.5c-1.8-0.8-3.6-1.6-5.4-2.3
		c-1.7-0.7-3.3-1.4-4.5-2.1c-2.3-1.2-4.3-2.9-5.8-4.9c-1.5-2.1-2.2-4.5-2.3-7.2c0-2.5,0.5-4.6,1.6-6.5c1.1-1.9,2.5-3.5,4.2-4.7
		c1.7-1.3,3.6-2.2,5.7-2.8c5.3-1.5,10.9-1.1,16,1c3.1,1.3,5.6,3.2,7.5,5.7l0.2,0.2l-1.3,1.5l-0.3-0.4c-0.8-1.1-1.7-2-2.8-2.8
		c-1.1-0.8-2.2-1.5-3.5-2c-1.3-0.6-2.6-1-4.1-1.3c-3.3-0.6-6.7-0.5-9.8,0.4c-1.7,0.5-3.2,1.4-4.5,2.5c-1.4,1.3-2.3,2.6-2.8,4
		c-0.5,1.4-0.7,2.8-0.5,4.2c0.3,1.3,0.9,2.7,1.8,3.9c0.9,1.3,2.2,2.4,3.7,3.3c1.3,0.8,2.9,1.6,4.8,2.4c1.8,0.8,3.8,1.6,5.8,2.5
		c2.1,0.9,4.1,2,6.1,3c2,1,3.9,2.3,5.4,3.7c1.6,1.4,2.9,3.1,3.9,4.9c1,1.8,1.5,4,1.5,6.4c0,2.7-0.5,5.1-1.6,7.1
		c-1,2.1-2.4,3.8-4.1,5.2c-1.7,1.4-3.7,2.5-6,3.2C266.2,69.6,263.8,70,261.3,70z M241,60c2.6,2.9,5.6,5.2,9.1,6.8
		c3.6,1.6,7.4,2.4,11.2,2.4c2.4,0,4.7-0.4,6.9-1c2.2-0.7,4.1-1.7,5.7-3c1.6-1.3,2.9-3,3.9-4.9c1-2,1.5-4.3,1.5-6.8
		c0-2.3-0.5-4.3-1.4-6c-1-1.8-2.2-3.3-3.8-4.7c-1.5-1.4-3.3-2.6-5.3-3.6c-1.9-1.1-4-2.1-6-3c-2-0.9-3.9-1.8-5.8-2.5
		c-1.9-0.8-3.5-1.7-4.9-2.5c-1.6-1-2.9-2.2-3.9-3.5c-1-1.4-1.7-2.8-1.9-4.2c-0.2-1.5-0.1-3,0.5-4.5c0.6-1.5,1.6-3,3-4.3
		c1.3-1.2,3-2.1,4.8-2.7c3.2-1,6.7-1.1,10.1-0.4c1.5,0.3,2.9,0.7,4.2,1.3c1.3,0.5,2.5,1.3,3.7,2.1c1,0.7,1.9,1.6,2.7,2.6l0.3-0.3
		c-1.8-2.3-4.1-4-7-5.2c-4.9-2.1-10.3-2.4-15.5-1c-2,0.6-3.9,1.5-5.5,2.7c-1.6,1.2-3,2.7-4,4.5c-1,1.7-1.5,3.8-1.5,6.1
		c0.1,2.5,0.8,4.8,2.1,6.7c1.4,2,3.3,3.5,5.5,4.7c1.2,0.6,2.7,1.3,4.4,2c1.7,0.7,3.6,1.5,5.4,2.3c1.8,0.8,3.7,1.6,5.5,2.5
		c1.9,0.9,3.5,2,5,3.2c1.5,1.1,2.7,2.4,3.7,3.8c1,1.4,1.5,3,1.5,4.7c0.1,2.2-0.2,4.2-1,6c-0.7,1.7-1.8,3.2-3.1,4.4
		c-1.3,1.2-2.8,2.1-4.5,2.7c-1.7,0.6-3.5,1-5.4,1.1c0,0,0,0,0,0c-3.8,0-7.5-0.7-11-2.2c-3.4-1.4-6.4-3.5-8.9-6.3L241,60z"/>
</g>
<g>
	<path class="st0" d="M193.7,10.7h37.1v1.6h-28.6v24.4H225v1.6h-22.7v28.6h28.6v1.6H197V12.8l-3.3-1.4V10.7z"/>
	<path class="st0" d="M231.2,68.7h-34.6V13.1l-3.3-1.4v-1.4h37.8v2.3h-28.6v23.7h22.7v2.3h-22.7v27.8h28.6V68.7z M197.4,67.9h33.1
		v-0.8h-28.6V37.8h22.7V37h-22.7V11.9h28.6V11h-36.3v0.1l3.3,1.4V67.9z"/>
</g>
<g>
	<path class="st0" d="M134.9,11.4v-0.7h17c5.6,0,10.2,0.9,13.9,2.7c3.8,1.7,6.7,4,8.9,6.8c2.2,2.8,3.8,5.9,4.7,9.3
		c0.9,3.4,1.4,6.8,1.4,10.1c0,3.3-0.5,6.6-1.4,10.1c-0.9,3.4-2.5,6.5-4.7,9.3c-2.2,2.8-5.2,5-8.9,6.8c-3.7,1.7-8.3,2.6-13.9,2.6
		h-13.7V12.8L134.9,11.4z M143.3,12.2v54.6h8.6c4.8,0,8.7-0.8,11.7-2.5c3-1.7,5.3-3.8,7-6.5c1.7-2.7,2.9-5.6,3.5-8.8
		c0.7-3.3,1-6.5,1-9.6c0-3.2-0.3-6.4-1-9.6c-0.7-3.2-1.8-6.1-3.6-8.8c-1.7-2.6-4.1-4.7-7.1-6.4c-3-1.7-6.8-2.5-11.5-2.5H143.3z"/>
	<path class="st0" d="M151.9,68.7h-14.1V13.1l-3.3-1.4v-1.4h17.4c5.6,0,10.4,0.9,14.1,2.7c3.8,1.8,6.8,4.1,9,6.9
		c2.2,2.8,3.9,6,4.8,9.5c0.9,3.5,1.4,6.9,1.4,10.2c0,3.3-0.5,6.7-1.4,10.2c-0.9,3.4-2.5,6.6-4.8,9.4c-2.3,2.8-5.3,5.1-9,6.9
		C162.3,67.8,157.5,68.7,151.9,68.7z M138.6,67.9h13.3c5.5,0,10.2-0.9,13.8-2.6c3.6-1.7,6.6-4,8.8-6.7c2.2-2.7,3.8-5.8,4.7-9.1
		c0.9-3.4,1.4-6.7,1.4-10c0-3.2-0.5-6.6-1.4-10c-0.9-3.4-2.5-6.5-4.7-9.2c-2.1-2.7-5.1-5-8.8-6.7c-3.6-1.8-8.3-2.7-13.8-2.7h-16.7
		v0.1l3.3,1.4V67.9z M151.9,67.2h-9V11.9h9c4.7,0,8.6,0.9,11.7,2.6c3,1.7,5.5,3.8,7.2,6.5c1.8,2.6,3,5.6,3.6,8.9
		c0.7,3.2,1,6.5,1,9.7c0,3.1-0.3,6.4-1,9.7c-0.6,3.3-1.8,6.3-3.6,9c-1.7,2.7-4.1,4.9-7.1,6.6C160.7,66.4,156.7,67.2,151.9,67.2z
		 M143.6,66.5h8.3c4.7,0,8.6-0.8,11.5-2.4c2.9-1.7,5.2-3.8,6.9-6.3c1.7-2.6,2.9-5.5,3.5-8.7c0.6-3.2,1-6.4,1-9.5
		c0-3.1-0.3-6.3-1-9.5c-0.6-3.2-1.8-6.1-3.5-8.6c-1.7-2.6-4-4.7-7-6.3c-2.9-1.7-6.7-2.5-11.3-2.5h-8.3V66.5z"/>
</g>
<g>
	<rect x="116" y="0.4" class="st0" width="1" height="77.3"/>
	<path class="st0" d="M117.4,78h-1.7V0h1.7V78z M116.4,77.3h0.2V0.7h-0.2V77.3z"/>
</g>
</svg>
