<svg width="92" height="25" viewBox="0 0 92 25" fill="none" xmlns="http://www.w3.org/2000/svg">
<g clip-path="url(#clip0_12_2)">
<path d="M4.1 0H0V24.4H12.9V20.4H4.1V0Z" fill="#FA8072"/>
<path d="M33.7 3.6C32.6 2.5 31.3 1.6 29.8 1C26.8 -0.3 23.2 -0.3 20.2 1C18.7 1.6 17.4 2.5 16.3 3.6C15.2 4.7 14.3 6 13.7 7.5C13.1 9 12.8 10.6 12.8 12.3C12.8 14 13.1 15.6 13.7 17.1C14.3 18.6 15.2 19.9 16.3 21C17.4 22.1 18.7 23 20.2 23.6C21.7 24.2 23.3 24.5 25 24.5C26.7 24.5 28.3 24.2 29.8 23.6C31.3 23 32.6 22.1 33.7 21C34.8 19.9 35.7 18.6 36.3 17.1C36.9 15.6 37.2 14 37.2 12.3C37.2 10.6 36.9 9 36.3 7.5C35.7 6 34.9 4.7 33.7 3.6ZM33.2 12.2C33.2 13.3 33 14.4 32.5 15.4C32.1 16.4 31.5 17.3 30.7 18C30 18.7 29.1 19.3 28.1 19.7C26.1 20.5 23.7 20.5 21.7 19.7C20.7 19.3 19.8 18.7 19.1 18C18.4 17.3 17.8 16.4 17.3 15.4C16.9 14.4 16.7 13.3 16.7 12.2C16.7 11.1 16.9 10 17.3 9C17.7 8 18.3 7.1 19.1 6.4C19.8 5.7 20.7 5.1 21.7 4.6C22.7 4.2 23.8 4 24.9 4C26 4 27.1 4.2 28.1 4.6C29.1 5 30 5.6 30.7 6.4C31.4 7.1 32 8 32.5 9C33 10.1 33.2 11.1 33.2 12.2Z" fill="#FA8072"/>
<path d="M50.3 15.6H59.8V17.4C59.2 18.2 58.4 18.9 57.3 19.4C56.2 20 54.8 20.3 53.2 20.3C52.1 20.3 51 20.1 50 19.7C49 19.3 48.1 18.7 47.4 18C46.7 17.3 46.1 16.4 45.6 15.4C45.2 14.4 45 13.3 45 12.2C45 11.1 45.2 10 45.6 9C46 8 46.6 7.1 47.4 6.4C48.1 5.7 49 5.2 50 4.7C51 4.3 52.1 4.1 53.2 4.1C54.7 4.1 56.1 4.5 57.2 5.2C58.4 5.9 59.4 6.9 60.3 8.1L60.6 8.5L63.6 5.8L63.3 5.4C62.1 3.6 60.5 2.3 58.7 1.4C57.1 0.5 55.2 0 53.2 0C51.5 0 49.9 0.3 48.4 1C46.9 1.6 45.6 2.5 44.5 3.6C43.4 4.7 42.5 6 41.9 7.5C41.3 9 40.9 10.6 40.9 12.3C40.9 14 41.2 15.6 41.9 17.1C42.5 18.6 43.4 19.9 44.5 21C45.6 22.1 46.9 23 48.4 23.6C49.9 24.2 51.5 24.5 53.2 24.5C55.3 24.5 57.3 24 59.1 23C60.9 22 62.4 20.7 63.6 19L63.7 18.9V11.9H50.3V15.6Z" fill="#FA8072"/>
<path d="M90.7 7.5C90.1 6 89.2 4.7 88.1 3.6C87 2.5 85.7 1.6 84.2 1C81.2 -0.3 77.6 -0.3 74.6 1C73.1 1.6 71.8 2.5 70.7 3.6C69.6 4.7 68.7 6 68.1 7.5C67.5 9 67.2 10.6 67.2 12.3C67.2 14 67.5 15.6 68.2 17.1C68.8 18.6 69.7 19.9 70.8 21C71.9 22.1 73.2 23 74.7 23.6C76.2 24.2 77.8 24.5 79.5 24.5C81.2 24.5 82.8 24.2 84.3 23.6C85.8 23 87.1 22.1 88.2 21C89.3 19.9 90.2 18.6 90.8 17.1C91.4 15.6 91.7 14 91.7 12.3C91.7 10.6 91.3 9 90.7 7.5ZM87.6 12.2C87.6 13.3 87.4 14.4 86.9 15.4C86.5 16.4 85.9 17.3 85.1 18C84.4 18.7 83.5 19.3 82.5 19.7C80.5 20.5 78.1 20.5 76.1 19.7C75.1 19.3 74.2 18.7 73.5 18C72.8 17.3 72.2 16.4 71.7 15.4C71.3 14.4 71.1 13.3 71.1 12.2C71.1 11.1 71.3 10 71.7 9C72.1 8 72.7 7.1 73.5 6.4C74.2 5.7 75.1 5.1 76.1 4.6C77.1 4.2 78.2 4 79.3 4C80.4 4 81.5 4.2 82.5 4.6C83.5 5 84.4 5.6 85.1 6.4C85.8 7.1 86.4 8 86.9 9C87.4 10.1 87.6 11.1 87.6 12.2Z" fill="#FA8072"/>
</g>
<defs>
<clipPath id="clip0_12_2">
<rect width="91.7" height="24.4" fill="white"/>
</clipPath>
</defs>
</svg>
