<svg width="92" height="25" viewBox="0 0 92 25" fill="none" xmlns="http://www.w3.org/2000/svg">
<mask id="mask0_21_10" style="mask-type:luminance" maskUnits="userSpaceOnUse" x="0" y="0" width="92" height="25">
<path d="M91.7 0H0V24.4H91.7V0Z" fill="white"/>
</mask>
<g mask="url(#mask0_21_10)">
<path d="M4.1 0H0V24.4H12.9V20.4H4.1V0Z" fill="white"/>
<path d="M33.7001 3.5999C32.6001 2.4999 31.3 1.5999 29.8 0.999902C26.8 -0.300098 23.2 -0.300098 20.2 0.999902C18.7 1.5999 17.4 2.4999 16.3 3.5999C15.2 4.6999 14.3 5.9999 13.7 7.4999C13.1 8.9999 12.8 10.5999 12.8 12.2999C12.8 13.9999 13.1 15.5999 13.7 17.0999C14.3 18.5999 15.2 19.8999 16.3 20.9999C17.4 22.0999 18.7 22.9999 20.2 23.5999C21.7 24.1999 23.3 24.4999 25 24.4999C26.7 24.4999 28.3 24.1999 29.8 23.5999C31.3 22.9999 32.6001 22.0999 33.7001 20.9999C34.8001 19.8999 35.7 18.5999 36.3 17.0999C36.9 15.5999 37.2001 13.9999 37.2001 12.2999C37.2001 10.5999 36.9 8.9999 36.3 7.4999C35.7 5.9999 34.9001 4.6999 33.7001 3.5999ZM33.2001 12.1999C33.2001 13.2999 33 14.3999 32.5 15.3999C32.1 16.3999 31.5001 17.2999 30.7001 17.9999C30.0001 18.6999 29.1 19.2999 28.1 19.6999C26.1 20.4999 23.7 20.4999 21.7 19.6999C20.7 19.2999 19.8 18.6999 19.1 17.9999C18.4 17.2999 17.8 16.3999 17.3 15.3999C16.9 14.3999 16.7 13.2999 16.7 12.1999C16.7 11.0999 16.9 9.9999 17.3 8.9999C17.7 7.9999 18.3 7.0999 19.1 6.3999C19.8 5.6999 20.7 5.0999 21.7 4.5999C22.7 4.1999 23.8 3.9999 24.9 3.9999C26 3.9999 27.1 4.1999 28.1 4.5999C29.1 4.9999 30.0001 5.5999 30.7001 6.3999C31.4001 7.0999 32 7.9999 32.5 8.9999C33 10.0999 33.2001 11.0999 33.2001 12.1999Z" fill="white"/>
<path d="M50.2999 15.6H59.7999V17.4C59.1999 18.2 58.3999 18.9 57.2999 19.4C56.1999 20 54.7999 20.3 53.1999 20.3C52.0999 20.3 50.9999 20.1 49.9999 19.7C48.9999 19.3 48.0999 18.7 47.3999 18C46.6999 17.3 46.0999 16.4 45.5999 15.4C45.1999 14.4 44.9999 13.3 44.9999 12.2C44.9999 11.1 45.1999 10 45.5999 9C45.9999 8 46.5999 7.1 47.3999 6.4C48.0999 5.7 48.9999 5.2 49.9999 4.7C50.9999 4.3 52.0999 4.1 53.1999 4.1C54.6999 4.1 56.0999 4.5 57.1999 5.2C58.3999 5.9 59.3999 6.9 60.2999 8.1L60.5999 8.5L63.5999 5.8L63.2999 5.4C62.0999 3.6 60.4999 2.3 58.6999 1.4C57.0999 0.5 55.1999 0 53.1999 0C51.4999 0 49.8999 0.3 48.3999 1C46.8999 1.6 45.5999 2.5 44.4999 3.6C43.3999 4.7 42.4999 6 41.8999 7.5C41.2999 9 40.8999 10.6 40.8999 12.3C40.8999 14 41.1999 15.6 41.8999 17.1C42.4999 18.6 43.3999 19.9 44.4999 21C45.5999 22.1 46.8999 23 48.3999 23.6C49.8999 24.2 51.4999 24.5 53.1999 24.5C55.2999 24.5 57.2999 24 59.0999 23C60.8999 22 62.3999 20.7 63.5999 19L63.6999 18.9V11.9H50.2999V15.6Z" fill="white"/>
<path d="M90.7 7.4999C90.1 5.9999 89.2 4.6999 88.1 3.5999C87 2.4999 85.7 1.5999 84.2 0.999902C81.2 -0.300098 77.6 -0.300098 74.6 0.999902C73.1 1.5999 71.8 2.4999 70.7 3.5999C69.6 4.6999 68.7 5.9999 68.1 7.4999C67.5 8.9999 67.2 10.5999 67.2 12.2999C67.2 13.9999 67.5 15.5999 68.2 17.0999C68.8 18.5999 69.7 19.8999 70.8 20.9999C71.9 22.0999 73.2 22.9999 74.7 23.5999C76.2 24.1999 77.8 24.4999 79.5 24.4999C81.2 24.4999 82.8 24.1999 84.3 23.5999C85.8 22.9999 87.1 22.0999 88.2 20.9999C89.3 19.8999 90.2 18.5999 90.8 17.0999C91.4 15.5999 91.7 13.9999 91.7 12.2999C91.7 10.5999 91.3 8.9999 90.7 7.4999ZM87.6 12.1999C87.6 13.2999 87.4 14.3999 86.9 15.3999C86.5 16.3999 85.9 17.2999 85.1 17.9999C84.4 18.6999 83.5 19.2999 82.5 19.6999C80.5 20.4999 78.1 20.4999 76.1 19.6999C75.1 19.2999 74.2 18.6999 73.5 17.9999C72.8 17.2999 72.2 16.3999 71.7 15.3999C71.3 14.3999 71.1 13.2999 71.1 12.1999C71.1 11.0999 71.3 9.9999 71.7 8.9999C72.1 7.9999 72.7 7.0999 73.5 6.3999C74.2 5.6999 75.1 5.0999 76.1 4.5999C77.1 4.1999 78.2 3.9999 79.3 3.9999C80.4 3.9999 81.5 4.1999 82.5 4.5999C83.5 4.9999 84.4 5.5999 85.1 6.3999C85.8 7.0999 86.4 7.9999 86.9 8.9999C87.4 10.0999 87.6 11.0999 87.6 12.1999Z" fill="white"/>
</g>
</svg>
